<svg xmlns="http://www.w3.org/2000/svg" width="75mm" height="75mm" viewBox="-37.5 -37.5 75 75"><title>Commissione sopravvissuta. Io quasi.</title><circle r="37.5" fill="#803fa1"/><path d="M-35.5000,-0.0000L-35.4240,2.3218L-35.1963,4.6337L-34.8179,6.9257L-34.2904,9.1881L-33.6160,11.4111L-32.7977,13.5853L-31.8390,15.7012L-30.7439,17.7500L-29.5172,19.7227L-28.1640,21.6110L-26.6903,23.4068L-25.1023,25.1023L-23.4068,26.6903L-21.6110,28.1640L-19.7227,29.5172L-17.7500,30.7439L-15.7012,31.8390L-13.5853,32.7977L-11.4111,33.6160L-9.1881,34.2904L-6.9257,34.8179L-4.6337,35.1963L-2.3218,35.4240L-0.0000,35.5000L2.3218,35.4240L4.6337,35.1963L6.9257,34.8179L9.1881,34.2904L11.4111,33.6160L13.5853,32.7977L15.7012,31.8390L17.7500,30.7439L19.7227,29.5172L21.6110,28.1640L23.4068,26.6903L25.1023,25.1023L26.6903,23.4068L28.1640,21.6110L29.5172,19.7227L30.7439,17.7500L31.8390,15.7012L32.7977,13.5853L33.6160,11.4111L34.2904,9.1881L34.8179,6.9257L35.1963,4.6337L35.4240,2.3218L35.5000,0.0000L35.5000,0.0000L35.4240,-2.3218L35.1963,-4.6337L34.8179,-6.9257L34.2904,-9.1881L33.6160,-11.4111L32.7977,-13.5853L31.8390,-15.7012L30.7439,-17.7500L29.5172,-19.7227L28.1640,-21.6110L26.6903,-23.4068L25.1023,-25.1023L23.4068,-26.6903L21.6110,-28.1640L19.7227,-29.5172L17.7500,-30.7439L15.7012,-31.8390L13.5853,-32.7977L11.4111,-33.6160L9.1881,-34.2904L6.9257,-34.8179L4.6337,-35.1963L2.3218,-35.4240L0.0000,-35.5000L-2.3218,-35.4240L-4.6337,-35.1963L-6.9257,-34.8179L-9.1881,-34.2904L-11.4111,-33.6160L-13.5853,-32.7977L-15.7012,-31.8390L-17.7500,-30.7439L-19.7227,-29.5172L-21.6110,-28.1640L-23.4068,-26.6903L-25.1023,-25.1023L-26.6903,-23.4068L-28.1640,-21.6110L-29.5172,-19.7227L-30.7439,-17.7500L-31.8390,-15.7012L-32.7977,-13.5853L-33.6160,-11.4111L-34.2904,-9.1881L-34.8179,-6.9257L-35.1963,-4.6337L-35.4240,-2.3218L-35.5000,-0.0000ZM-34.6125,-0.0000L-34.5384,-2.2638L-34.3164,-4.5178L-33.9474,-6.7526L-33.4331,-8.9584L-32.7756,-11.1258L-31.9778,-13.2456L-31.0430,-15.3087L-29.9753,-17.3062L-28.7792,-19.2297L-27.4599,-21.0708L-26.0231,-22.8216L-24.4747,-24.4747L-22.8216,-26.0231L-21.0708,-27.4599L-19.2297,-28.7792L-17.3062,-29.9753L-15.3087,-31.0430L-13.2456,-31.9778L-11.1258,-32.7756L-8.9584,-33.4331L-6.7526,-33.9474L-4.5178,-34.3164L-2.2638,-34.5384L0.0000,-34.6125L2.2638,-34.5384L4.5178,-34.3164L6.7526,-33.9474L8.9584,-33.4331L11.1258,-32.7756L13.2456,-31.9778L15.3087,-31.0430L17.3063,-29.9753L19.2297,-28.7792L21.0708,-27.4599L22.8216,-26.0231L24.4747,-24.4747L26.0231,-22.8216L27.4599,-21.0708L28.7792,-19.2297L29.9753,-17.3062L31.0430,-15.3087L31.9778,-13.2456L32.7756,-11.1258L33.4331,-8.9584L33.9474,-6.7526L34.3164,-4.5178L34.5384,-2.2638L34.6125,0.0000L34.6125,0.0000L34.5384,2.2638L34.3164,4.5178L33.9474,6.7526L33.4331,8.9584L32.7756,11.1258L31.9778,13.2456L31.0430,15.3087L29.9753,17.3063L28.7792,19.2297L27.4599,21.0708L26.0231,22.8216L24.4747,24.4747L22.8216,26.0231L21.0708,27.4599L19.2297,28.7792L17.3063,29.9753L15.3087,31.0430L13.2456,31.9778L11.1258,32.7756L8.9584,33.4331L6.7526,33.9474L4.5178,34.3164L2.2638,34.5384L-0.0000,34.6125L-2.2638,34.5384L-4.5178,34.3164L-6.7526,33.9474L-8.9584,33.4331L-11.1258,32.7756L-13.2456,31.9778L-15.3087,31.0430L-17.3063,29.9753L-19.2297,28.7792L-21.0708,27.4599L-22.8216,26.0231L-24.4747,24.4747L-26.0231,22.8216L-27.4599,21.0708L-28.7792,19.2297L-29.9753,17.3062L-31.0430,15.3087L-31.9778,13.2456L-32.7756,11.1258L-33.4331,8.9584L-33.9474,6.7526L-34.3164,4.5178L-34.5384,2.2638L-34.6125,-0.0000ZM-29.9934,0.8787L-29.9370,1.2009L-29.8476,1.4908L-29.7252,1.7484L-29.5697,1.9737L-29.3813,2.1666L-29.1586,2.3257L-28.9004,2.4494L-28.6067,2.5378L-28.2775,2.5908L-27.9128,2.6085L-27.6587,2.6011L-27.4220,2.5791L-27.2026,2.5423L-27.0005,2.4907L-26.8158,2.4245L-26.6477,2.3431L-26.4955,2.2462L-26.3593,2.1338L-26.2391,2.0058L-26.1348,1.8622L-26.0482,1.7087L-25.9808,1.5508L-25.9326,1.3885L-25.9037,1.2217L-25.8941,1.0506L-25.9021,0.8655L-25.9263,0.6927L-25.9665,0.5321L-26.0229,0.3837L-26.0953,0.2476L-26.1820,0.1231L-26.2810,0.0096L-26.3924,-0.0929L-26.5162,-0.1843L-26.6524,-0.2648L-26.8103,-0.3393L-26.9991,-0.4128L-27.2188,-0.4854L-27.4695,-0.5570L-27.7512,-0.6276L-28.0263,-0.6972L-28.2574,-0.7657L-28.4445,-0.8331L-28.5875,-0.8994L-28.6866,-0.9646L-28.7411,-1.0176L-28.7834,-1.0747L-28.8137,-1.1359L-28.8318,-1.2012L-28.8379,-1.2707L-28.8314,-1.3460L-28.8120,-1.4149L-28.7797,-1.4775L-28.7345,-1.5337L-28.6763,-1.5837L-28.5681,-1.6493L-28.4446,-1.7003L-28.3057,-1.7368L-28.1513,-1.7586L-27.9816,-1.7659L-27.8182,-1.7591L-27.6721,-1.7387L-27.5431,-1.7047L-27.4313,-1.6570L-27.3368,-1.5957L-27.2568,-1.5189L-27.1888,-1.4246L-27.1327,-1.3128L-27.0886,-1.1836L-27.0565,-1.0369L-26.0385,-1.0816L-26.0664,-1.3483L-26.1307,-1.5927L-26.2315,-1.8149L-26.3687,-2.0148L-26.5424,-2.1924L-26.7530,-2.3422L-27.0013,-2.4587L-27.2870,-2.5419L-27.6104,-2.5919L-27.9713,-2.6085L-28.1969,-2.6015L-28.4090,-2.5804L-28.6074,-2.5454L-28.7922,-2.4962L-28.9634,-2.4331L-29.1201,-2.3566L-29.2614,-2.2672L-29.3873,-2.1651L-29.4977,-2.0501L-29.5928,-1.9224L-29.6714,-1.7863L-29.7325,-1.6462L-29.7762,-1.5021L-29.8024,-1.3540L-29.8111,-1.2019L-29.7926,-0.9699L-29.7369,-0.7524L-29.6440,-0.5495L-29.5140,-0.3612L-29.3469,-0.1874L-29.1953,-0.0728L-29.0046,0.0343L-28.7749,0.1341L-28.5061,0.2264L-28.1982,0.3112L-27.9621,0.3707L-27.7625,0.4224L-27.5994,0.4664L-27.4730,0.5027L-27.3832,0.5313L-27.2849,0.5698L-27.1991,0.6108L-27.1259,0.6545L-27.0652,0.7008L-27.0169,0.7497L-26.9792,0.8020L-26.9498,0.8587L-26.9288,0.9195L-26.9163,0.9847L-26.9121,1.0541L-26.9220,1.1627L-26.9519,1.2656L-27.0018,1.3629L-27.0716,1.4546L-27.1614,1.5407L-27.2708,1.6156L-27.3996,1.6738L-27.5479,1.7154L-27.7155,1.7404L-27.9025,1.7487L-28.0806,1.7394L-28.2434,1.7113L-28.3909,1.6646L-28.5232,1.5991L-28.6402,1.5149L-28.7422,1.4108L-28.8294,1.2854L-28.9020,1.1389L-28.9599,0.9712L-29.0030,0.7824L-29.9934,0.8787ZM-25.2441,0.0292L-25.2176,0.4900L-25.1379,0.9093L-25.0052,1.2873L-24.8193,1.6238L-24.5804,1.9190L-24.2965,2.1660L-23.9757,2.3581L-23.6180,2.4953L-23.2235,2.5776L-22.7921,2.6051L-22.3657,2.5775L-21.9750,2.4947L-21.6201,2.3568L-21.3010,2.1638L-21.0176,1.9155L-20.7786,1.6185L-20.5928,1.2789L-20.4600,0.8968L-20.3804,0.4722L-20.3538,0.0052L-20.3806,-0.4657L-20.4609,-0.8934L-20.5946,-1.2779L-20.7819,-1.6192L-21.0227,-1.9173L-21.3081,-2.1661L-21.6291,-2.3597L-21.9857,-2.4979L-22.3780,-2.5808L-22.8059,-2.6085L-23.0463,-2.6005L-23.2752,-2.5766L-23.4926,-2.5367L-23.6984,-2.4808L-23.8926,-2.4090L-24.0320,-2.3436L-24.1669,-2.2654L-24.2972,-2.1746L-24.4230,-2.0712L-24.5443,-1.9551L-24.6583,-1.8295L-24.7622,-1.6976L-24.8561,-1.5593L-24.9399,-1.4147L-25.0137,-1.2638L-25.0967,-1.0448L-25.1612,-0.8060L-25.2073,-0.5474L-25.2349,-0.2690L-25.2441,0.0292ZM-24.1952,-0.0052L-24.1798,-0.3356L-24.1336,-0.6311L-24.0566,-0.8914L-23.9487,-1.1167L-23.8101,-1.3068L-23.6462,-1.4622L-23.4629,-1.5830L-23.2600,-1.6694L-23.0375,-1.7212L-22.7956,-1.7384L-22.5538,-1.7214L-22.3320,-1.6702L-22.1301,-1.5849L-21.9482,-1.4655L-21.7862,-1.3120L-21.6494,-1.1238L-21.5430,-0.9004L-21.4670,-0.6418L-21.4214,-0.3480L-21.4062,-0.0189L-21.4218,0.3143L-21.4686,0.6125L-21.5467,0.8756L-21.6560,1.1036L-21.7965,1.2965L-21.9614,1.4544L-22.1437,1.5771L-22.3435,1.6648L-22.5608,1.7174L-22.7956,1.7350L-23.0305,1.7173L-23.2484,1.6643L-23.4492,1.5759L-23.6330,1.4522L-23.7997,1.2931L-23.9421,1.0997L-24.0529,0.8732L-24.1319,0.6136L-24.1794,0.3208L-24.1952,-0.0052ZM-24.6656,-12.0539L-24.6376,-11.5604L-24.5536,-11.1106L-24.4136,-10.7044L-24.2176,-10.3419L-23.9657,-10.0230L-23.6702,-9.7556L-23.3438,-9.5476L-22.9864,-9.3990L-22.5980,-9.3099L-22.1786,-9.2802L-21.8394,-9.2976L-21.5248,-9.3496L-21.2348,-9.4364L-20.9694,-9.5578L-20.7285,-9.7139L-20.5129,-9.9058L-20.3234,-10.1345L-20.1600,-10.4000L-20.0226,-10.7022L-19.9113,-11.0412L-20.9798,-11.3800L-21.0420,-11.1530L-21.1186,-10.9517L-21.2094,-10.7760L-21.3146,-10.6259L-21.4340,-10.5014L-21.5655,-10.4008L-21.7068,-10.3227L-21.8580,-10.2668L-22.0190,-10.2333L-22.1898,-10.2221L-22.4191,-10.2397L-22.6306,-10.2924L-22.8242,-10.3803L-22.9999,-10.5033L-23.1578,-10.6615L-23.2918,-10.8610L-23.3960,-11.1082L-23.4705,-11.4031L-23.5152,-11.7456L-23.5301,-12.1358L-23.5150,-12.5044L-23.4696,-12.8298L-23.3940,-13.1120L-23.2882,-13.3510L-23.1522,-13.5468L-22.9919,-13.7036L-22.8132,-13.8256L-22.6163,-13.9127L-22.4010,-13.9650L-22.1674,-13.9824L-21.9970,-13.9726L-21.8371,-13.9431L-21.6878,-13.8939L-21.5491,-13.8251L-21.4210,-13.7367L-21.3065,-13.6312L-21.2089,-13.5115L-21.1281,-13.3775L-21.0642,-13.2292L-21.0170,-13.0665L-19.9262,-13.3272L-20.0081,-13.5770L-20.1049,-13.8025L-20.2166,-14.0036L-20.3432,-14.1802L-20.4846,-14.3324L-20.7499,-14.5455L-21.0452,-14.7112L-21.3706,-14.8296L-21.7260,-14.9007L-22.1116,-14.9243L-22.5526,-14.8942L-22.9581,-14.8037L-23.3281,-14.6529L-23.6628,-14.4418L-23.9620,-14.1704L-24.2153,-13.8445L-24.4123,-13.4699L-24.5530,-13.0466L-24.6375,-12.5746L-24.6656,-12.0539ZM-20.5343,14.8217L-19.0952,14.8217L-19.0952,9.3828L-20.5343,9.3828L-20.5343,14.8217ZM-20.5343,8.6453L-19.0952,8.6453L-19.0952,7.3138L-20.5343,7.3138L-20.5343,8.6453ZM-19.5594,2.5191L-18.5415,2.5191L-18.5415,0.6173L-17.8777,0.6173L-17.6143,0.6144L-17.3770,0.6058L-17.1659,0.5913L-16.9809,0.5711L-16.8220,0.5451L-16.7150,0.5168L-16.6087,0.4788L-16.5032,0.4310L-16.3983,0.3734L-16.2941,0.3061L-16.1939,0.2284L-16.1009,0.1399L-16.0153,0.0405L-15.9370,-0.0697L-15.8659,-0.1909L-15.8053,-0.3233L-15.7581,-0.4676L-15.7244,-0.6238L-15.7042,-0.7917L-15.6974,-0.9715L-15.7091,-1.2034L-15.7442,-1.4175L-15.8026,-1.6139L-15.8845,-1.7925L-15.9897,-1.9534L-16.1123,-2.0947L-16.2461,-2.2147L-16.3913,-2.3134L-16.5477,-2.3908L-16.7154,-2.4469L-16.8540,-2.4741L-17.0444,-2.4953L-17.2865,-2.5104L-17.5803,-2.5195L-17.9259,-2.5225L-19.5594,-2.5225L-19.5594,2.5191ZM-18.5415,-0.2390L-18.5415,-1.6696L-18.0497,-1.6696L-17.8443,-1.6683L-17.6684,-1.6641L-17.5219,-1.6573L-17.4048,-1.6476L-17.3172,-1.6353L-17.2216,-1.6120L-17.1329,-1.5780L-17.0510,-1.5333L-16.9760,-1.4779L-16.9079,-1.4117L-16.8498,-1.3363L-16.8045,-1.2532L-16.7722,-1.1625L-16.7528,-1.0640L-16.7463,-0.9578L-16.7509,-0.8706L-16.7647,-0.7877L-16.7878,-0.7093L-16.8200,-0.6353L-16.8615,-0.5657L-16.9111,-0.5019L-16.9677,-0.4452L-17.0313,-0.3957L-17.1020,-0.3533L-17.1796,-0.3181L-17.2767,-0.2896L-17.4058,-0.2675L-17.5667,-0.2517L-17.7596,-0.2422L-17.9844,-0.2390L-18.5415,-0.2390ZM-19.2151,-11.4061L-19.2048,-11.1418L-19.1740,-10.8941L-19.1226,-10.6629L-19.0507,-10.4482L-18.9582,-10.2501L-18.8460,-10.0693L-18.7148,-9.9069L-18.5648,-9.7629L-18.3959,-9.6371L-18.2080,-9.5297L-18.0087,-9.4412L-17.8053,-9.3724L-17.5979,-9.3232L-17.3865,-9.2938L-17.1711,-9.2839L-16.8317,-9.3075L-16.5162,-9.3783L-16.2247,-9.4964L-15.9571,-9.6616L-15.7136,-9.8740L-15.5051,-10.1224L-15.3430,-10.3953L-15.2272,-10.6927L-15.1578,-11.0148L-15.1346,-11.3614L-15.1576,-11.7050L-15.2264,-12.0241L-15.3410,-12.3186L-15.5016,-12.5885L-15.7080,-12.8338L-15.9503,-13.0436L-16.2185,-13.2068L-16.5126,-13.3233L-16.8326,-13.3932L-17.1786,-13.4165L-17.4065,-13.4062L-17.6256,-13.3754L-17.8360,-13.3240L-18.0375,-13.2521L-18.2303,-13.1596L-18.4102,-13.0476L-18.5728,-12.9172L-18.7184,-12.7683L-18.8469,-12.6009L-18.9582,-12.4150L-19.0507,-12.2186L-19.1226,-12.0195L-19.1740,-11.8177L-19.2048,-11.6132L-19.2151,-11.4061ZM-18.1428,-11.3502L-18.1317,-11.5745L-18.0982,-11.7767L-18.0423,-11.9569L-17.9641,-12.1151L-17.8636,-12.2512L-17.7467,-12.3638L-17.6194,-12.4513L-17.4816,-12.5139L-17.3334,-12.5514L-17.1749,-12.5639L-17.0163,-12.5514L-16.8684,-12.5139L-16.7310,-12.4513L-16.6042,-12.3638L-16.4880,-12.2512L-16.3881,-12.1154L-16.3104,-11.9581L-16.2550,-11.7794L-16.2217,-11.5793L-16.2106,-11.3577L-16.2217,-11.1307L-16.2550,-10.9264L-16.3104,-10.7447L-16.3881,-10.5857L-16.4880,-10.4492L-16.6042,-10.3367L-16.7310,-10.2491L-16.8684,-10.1865L-17.0163,-10.1490L-17.1749,-10.1365L-17.3334,-10.1490L-17.4816,-10.1865L-17.6194,-10.2491L-17.7467,-10.3367L-17.8636,-10.4492L-17.9641,-10.5854L-18.0423,-10.7435L-18.0982,-10.9237L-18.1317,-11.1259L-18.1428,-11.3502ZM-17.9531,12.0255L-17.9389,12.3890L-17.8965,12.7297L-17.8259,13.0478L-17.7269,13.3431L-17.5997,13.6156L-17.4453,13.8642L-17.2650,14.0876L-17.0586,14.2858L-16.8262,14.4588L-16.5677,14.6066L-16.2935,14.7283L-16.0138,14.8230L-15.7285,14.8906L-15.4378,14.9311L-15.1414,14.9447L-14.6745,14.9122L-14.2405,14.8148L-13.8395,14.6524L-13.4714,14.4251L-13.1364,14.1329L-12.8497,13.7913L-12.6267,13.4159L-12.4674,13.0067L-12.3719,12.5637L-12.3400,12.0869L-12.3716,11.6142L-12.4662,11.1753L-12.6240,10.7702L-12.8448,10.3989L-13.1287,10.0614L-13.4620,9.7729L-13.8310,9.5484L-14.2356,9.3881L-14.6758,9.2920L-15.1517,9.2599L-15.4652,9.2740L-15.7667,9.3164L-16.0560,9.3871L-16.3333,9.4861L-16.5985,9.6133L-16.8458,9.7673L-17.0696,9.9468L-17.2699,10.1516L-17.4466,10.3819L-17.5997,10.6376L-17.7269,10.9078L-17.8259,11.1817L-17.8965,11.4592L-17.9389,11.7405L-17.9531,12.0255ZM-16.4781,12.1023L-16.4628,11.7938L-16.4167,11.5156L-16.3398,11.2677L-16.2323,11.0501L-16.0940,10.8629L-15.9332,10.7080L-15.7580,10.5876L-15.5686,10.5015L-15.3647,10.4499L-15.1466,10.4327L-14.9285,10.4499L-14.7250,10.5015L-14.5360,10.5876L-14.3615,10.7080L-14.2017,10.8629L-14.0643,11.0497L-13.9575,11.2660L-13.8812,11.5119L-13.8354,11.7872L-13.8201,12.0920L-13.8354,12.4042L-13.8812,12.6853L-13.9575,12.9352L-14.0643,13.1540L-14.2017,13.3417L-14.3615,13.4965L-14.5360,13.6170L-14.7250,13.7030L-14.9285,13.7546L-15.1466,13.7719L-15.3647,13.7546L-15.5686,13.7030L-15.7580,13.6170L-15.9332,13.4965L-16.0940,13.3417L-16.2323,13.1544L-16.3398,12.9369L-16.4167,12.6890L-16.4628,12.4108L-16.4781,12.1023ZM-14.8583,2.5191L-13.8403,2.5191L-13.8403,0.4144L-13.6340,0.4144L-13.5012,0.4167L-13.3836,0.4235L-13.2812,0.4348L-13.1938,0.4507L-13.1216,0.4711L-13.0576,0.4977L-12.9950,0.5320L-12.9338,0.5739L-12.8740,0.6236L-12.8155,0.6809L-12.7478,0.7595L-12.6603,0.8730L-12.5530,1.0212L-12.4259,1.2042L-12.2790,1.4220L-11.5431,2.5191L-10.3257,2.5191L-10.9412,1.5355L-11.0811,1.3146L-11.2089,1.1223L-11.3248,0.9586L-11.4288,0.8235L-11.5207,0.7170L-11.6113,0.6264L-11.7111,0.5388L-11.8201,0.4542L-11.9384,0.3726L-12.0658,0.2940L-11.8135,0.2446L-11.5876,0.1733L-11.3882,0.0801L-11.2151,-0.0350L-11.0685,-0.1719L-10.9484,-0.3277L-10.8550,-0.4993L-10.7883,-0.6868L-10.7482,-0.8900L-10.7349,-1.1091L-10.7437,-1.2839L-10.7701,-1.4508L-10.8141,-1.6097L-10.8758,-1.7606L-10.9550,-1.9035L-11.0489,-2.0340L-11.1545,-2.1475L-11.2717,-2.2442L-11.4007,-2.3239L-11.5413,-2.3867L-11.7055,-2.4356L-11.9051,-2.4736L-12.1400,-2.5008L-12.4102,-2.5171L-12.7158,-2.5225L-14.8583,-2.5225L-14.8583,2.5191ZM-13.8403,-0.3903L-13.8403,-1.6696L-13.0459,-1.6696L-12.8181,-1.6690L-12.6299,-1.6669L-12.4814,-1.6635L-12.3724,-1.6586L-12.3031,-1.6525L-12.2085,-1.6313L-12.1229,-1.6010L-12.0462,-1.5615L-11.9785,-1.5127L-11.9196,-1.4547L-11.8707,-1.3882L-11.8327,-1.3138L-11.8055,-1.2316L-11.7892,-1.1416L-11.7838,-1.0437L-11.7879,-0.9560L-11.8003,-0.8743L-11.8209,-0.7986L-11.8498,-0.7290L-11.8870,-0.6654L-11.9314,-0.6085L-11.9822,-0.5587L-12.0393,-0.5161L-12.1027,-0.4806L-12.1724,-0.4522L-12.2673,-0.4299L-12.4063,-0.4126L-12.5892,-0.4002L-12.8162,-0.3928L-13.0872,-0.3903L-13.8403,-0.3903ZM-14.3937,-9.3733L-13.3476,-9.3733L-13.3476,-11.2944L-13.3442,-11.5093L-13.3342,-11.6983L-13.3174,-11.8613L-13.2940,-11.9985L-13.2638,-12.1097L-13.2259,-12.2034L-13.1792,-12.2878L-13.1237,-12.3630L-13.0595,-12.4290L-12.9864,-12.4857L-12.9071,-12.5327L-12.8238,-12.5691L-12.7367,-12.5952L-12.6457,-12.6108L-12.5508,-12.6161L-12.4738,-12.6128L-12.4034,-12.6029L-12.3397,-12.5866L-12.2828,-12.5636L-12.2325,-12.5341L-12.1881,-12.4980L-12.1485,-12.4549L-12.1139,-12.4050L-12.0842,-12.3483L-12.0594,-12.2847L-12.0393,-12.2013L-12.0236,-12.0851L-12.0125,-11.9362L-12.0058,-11.7545L-12.0036,-11.5401L-12.0036,-9.3733L-10.9574,-9.3733L-10.9574,-11.2720L-10.9539,-11.4834L-10.9437,-11.6709L-10.9265,-11.8343L-10.9026,-11.9738L-10.8717,-12.0892L-10.8332,-12.1878L-10.7860,-12.2763L-10.7301,-12.3548L-10.6656,-12.4234L-10.5925,-12.4820L-10.5140,-12.5303L-10.4335,-12.5678L-10.3508,-12.5946L-10.2661,-12.6107L-10.1793,-12.6161L-10.0649,-12.6071L-9.9630,-12.5803L-9.8737,-12.5356L-9.7968,-12.4731L-9.7325,-12.3927L-9.6936,-12.3075L-9.6634,-12.1889L-9.6418,-12.0370L-9.6288,-11.8518L-9.6245,-11.6332L-9.6245,-9.3733L-8.5783,-9.3733L-8.5783,-11.9012L-8.5827,-12.1151L-8.5956,-12.3039L-8.6172,-12.4677L-8.6475,-12.6065L-8.6863,-12.7203L-8.7520,-12.8507L-8.8299,-12.9678L-8.9200,-13.0717L-9.0223,-13.1623L-9.1368,-13.2397L-9.2628,-13.3033L-9.3995,-13.3528L-9.5469,-13.3882L-9.7051,-13.4094L-9.8740,-13.4165L-10.0093,-13.4103L-10.1414,-13.3915L-10.2702,-13.3602L-10.3958,-13.3164L-10.5181,-13.2601L-10.6370,-13.1912L-10.7528,-13.1094L-10.8652,-13.0149L-10.9743,-12.9075L-11.0802,-12.7873L-11.1557,-12.9075L-11.2393,-13.0149L-11.3309,-13.1094L-11.4305,-13.1912L-11.5382,-13.2601L-11.6539,-13.3164L-11.7776,-13.3602L-11.9094,-13.3915L-12.0493,-13.4103L-12.1971,-13.4165L-12.4752,-13.3913L-12.7374,-13.3158L-12.9839,-13.1900L-13.2146,-13.0138L-13.4295,-12.7873L-13.4295,-13.3272L-14.3937,-13.3272L-14.3937,-9.3733ZM-10.2878,2.5191L-9.2080,2.5191L-8.7919,1.3739L-6.7766,1.3739L-6.3364,2.5191L-5.2290,2.5191L-7.2477,-2.5225L-8.3241,-2.5225L-10.2878,2.5191ZM-8.4789,0.5244L-7.7980,-1.3464L-7.1033,0.5244L-8.4789,0.5244ZM-8.5860,12.0408L-8.5578,12.5749L-8.4730,13.0626L-8.3316,13.5041L-8.1337,13.8993L-7.8793,14.2481L-7.6265,14.4989L-7.3475,14.6939L-7.0422,14.8332L-6.7108,14.9168L-6.3531,14.9447L-6.1612,14.9361L-5.9745,14.9106L-5.7932,14.8681L-5.6173,14.8086L-5.4466,14.7321L-5.2842,14.6411L-5.1328,14.5379L-4.9924,14.4227L-4.8632,14.2954L-4.7450,14.1560L-4.7450,16.8908L-3.3059,16.8908L-3.3059,9.3828L-4.6323,9.3828L-4.6323,10.1869L-4.7588,10.0099L-4.8925,9.8517L-5.0333,9.7124L-5.1813,9.5920L-5.3365,9.4904L-5.5011,9.4074L-5.6774,9.3429L-5.8653,9.2968L-6.0650,9.2691L-6.2763,9.2599L-6.6568,9.2893L-7.0117,9.3775L-7.3410,9.5245L-7.6447,9.7302L-7.9228,9.9948L-8.1616,10.3118L-8.3473,10.6749L-8.4799,11.0841L-8.5595,11.5394L-8.5860,12.0408ZM-7.1162,12.1176L-7.1022,11.7766L-7.0601,11.4744L-6.9899,11.2112L-6.8917,10.9868L-6.7654,10.8014L-6.6182,10.6521L-6.4573,10.5359L-6.2826,10.4530L-6.0943,10.4032L-5.8922,10.3866L-5.6942,10.4029L-5.5099,10.4517L-5.3394,10.5332L-5.1826,10.6472L-5.0395,10.7938L-4.9169,10.9737L-4.8215,11.1879L-4.7534,11.4363L-4.7125,11.7189L-4.6989,12.0357L-4.7138,12.3706L-4.7587,12.6707L-4.8335,12.9360L-4.9382,13.1665L-5.0727,13.3621L-5.2272,13.5225L-5.3915,13.6473L-5.5656,13.7364L-5.7496,13.7899L-5.9434,13.8077L-6.1357,13.7918L-6.3154,13.7442L-6.4824,13.6648L-6.6366,13.5537L-6.7782,13.4108L-6.8999,13.2321L-6.9945,13.0134L-7.0621,12.7547L-7.1027,12.4562L-7.1162,12.1176ZM-8.0682,24.7290L8.0682,24.7290L8.0682,23.6801L-8.0682,23.6801L-8.0682,24.7290ZM-7.6141,-9.3733L-6.5679,-9.3733L-6.5679,-11.2944L-6.5646,-11.5093L-6.5545,-11.6983L-6.5378,-11.8613L-6.5143,-11.9985L-6.4841,-12.1097L-6.4462,-12.2034L-6.3996,-12.2878L-6.3441,-12.3630L-6.2798,-12.4290L-6.2068,-12.4857L-6.1274,-12.5327L-6.0441,-12.5691L-5.9570,-12.5952L-5.8660,-12.6108L-5.7712,-12.6161L-5.6941,-12.6128L-5.6237,-12.6029L-5.5601,-12.5866L-5.5031,-12.5636L-5.4529,-12.5341L-5.4084,-12.4980L-5.3689,-12.4549L-5.3342,-12.4050L-5.3045,-12.3483L-5.2797,-12.2847L-5.2596,-12.2013L-5.2440,-12.0851L-5.2328,-11.9362L-5.2261,-11.7545L-5.2239,-11.5401L-5.2239,-9.3733L-4.1777,-9.3733L-4.1777,-11.2720L-4.1743,-11.4834L-4.1640,-11.6709L-4.1469,-11.8343L-4.1229,-11.9738L-4.0921,-12.0892L-4.0535,-12.1878L-4.0063,-12.2763L-3.9505,-12.3548L-3.8860,-12.4234L-3.8129,-12.4820L-3.7344,-12.5303L-3.6538,-12.5678L-3.5712,-12.5946L-3.4864,-12.6107L-3.3996,-12.6161L-3.2852,-12.6071L-3.1834,-12.5803L-3.0940,-12.5356L-3.0172,-12.4731L-2.9528,-12.3927L-2.9140,-12.3075L-2.8837,-12.1889L-2.8621,-12.0370L-2.8492,-11.8518L-2.8449,-11.6332L-2.8449,-9.3733L-1.7987,-9.3733L-1.7987,-11.9012L-1.8030,-12.1151L-1.8160,-12.3039L-1.8376,-12.4677L-1.8678,-12.6065L-1.9067,-12.7203L-1.9723,-12.8507L-2.0502,-12.9678L-2.1403,-13.0717L-2.2426,-13.1623L-2.3572,-13.2397L-2.4831,-13.3033L-2.6199,-13.3528L-2.7673,-13.3882L-2.9254,-13.4094L-3.0943,-13.4165L-3.2297,-13.4103L-3.3618,-13.3915L-3.4906,-13.3602L-3.6161,-13.3164L-3.7384,-13.2601L-3.8574,-13.1912L-3.9731,-13.1094L-4.0855,-13.0149L-4.1947,-12.9075L-4.3006,-12.7873L-4.3761,-12.9075L-4.4596,-13.0149L-4.5512,-13.1094L-4.6508,-13.1912L-4.7585,-13.2601L-4.8742,-13.3164L-4.9980,-13.3602L-5.1298,-13.3915L-5.2696,-13.4103L-5.4175,-13.4165L-5.6955,-13.3913L-5.9578,-13.3158L-6.2042,-13.1900L-6.4349,-13.0138L-6.6498,-12.7873L-6.6498,-13.3272L-7.6141,-13.3272L-7.6141,-9.3733ZM-5.2050,-2.5225L-3.4029,2.5191L-2.3162,2.5191L-0.5107,-2.5225L-1.5905,-2.5225L-2.8252,1.2088L-4.1010,-2.5225L-5.2050,-2.5225ZM-1.9231,12.8244L-1.9153,13.1184L-1.8919,13.3857L-1.8530,13.6264L-1.7985,13.8405L-1.7285,14.0279L-1.6410,14.1943L-1.5343,14.3450L-1.4083,14.4802L-1.2630,14.5999L-1.0985,14.7039L-0.9199,14.7906L-0.7323,14.8580L-0.5356,14.9061L-0.3299,14.9350L-0.1152,14.9447L0.0977,14.9346L0.3064,14.9045L0.5107,14.8543L0.7108,14.7840L0.9065,14.6937L1.0926,14.5859L1.2638,14.4634L1.4200,14.3262L1.5612,14.1742L1.6875,14.0074L1.6875,14.8217L3.0242,14.8217L3.0242,9.3828L1.5851,9.3828L1.5851,11.6772L1.5808,12.1095L1.5679,12.4724L1.5464,12.7659L1.5162,12.9899L1.4775,13.1445L1.4271,13.2604L1.3620,13.3686L1.2821,13.4690L1.1875,13.5616L1.0781,13.6464L0.9582,13.7192L0.8322,13.7758L0.7001,13.8163L0.5618,13.8406L0.4174,13.8487L0.2928,13.8426L0.1773,13.8245L0.0708,13.7943L-0.0267,13.7520L-0.1152,13.6976L-0.1940,13.6329L-0.2623,13.5595L-0.3202,13.4776L-0.3676,13.3870L-0.4046,13.2879L-0.4332,13.1489L-0.4554,12.9388L-0.4713,12.6576L-0.4808,12.3054L-0.4840,11.8821L-0.4840,9.3828L-1.9231,9.3828L-1.9231,12.8244ZM-0.7562,-9.3733L0.2899,-9.3733L0.2899,-13.3272L-0.7562,-13.3272L-0.7562,-9.3733ZM-0.7562,-13.8633L0.2899,-13.8633L0.2899,-14.8313L-0.7562,-14.8313L-0.7562,-13.8633ZM-0.5073,-2.5225L1.2948,2.5191L2.3815,2.5191L4.1870,-2.5225L3.1072,-2.5225L1.8725,1.2088L0.5967,-2.5225L-0.5073,-2.5225ZM0.9936,-10.5014L1.0647,-10.2859L1.1619,-10.0891L1.2851,-9.9112L1.4344,-9.7520L1.6097,-9.6116L1.8116,-9.4936L2.0404,-9.4019L2.2962,-9.3364L2.5789,-9.2970L2.8886,-9.2839L3.2271,-9.2996L3.5308,-9.3465L3.7996,-9.4247L4.0335,-9.5341L4.2326,-9.6748L4.3961,-9.8373L4.5233,-10.0120L4.6142,-10.1989L4.6687,-10.3980L4.6868,-10.6093L4.6737,-10.8001L4.6344,-10.9733L4.5689,-11.1289L4.4772,-11.2670L4.3592,-11.3874L4.2065,-11.4942L4.0134,-11.5942L3.7800,-11.6872L3.5062,-11.7735L3.1920,-11.8528L2.8855,-11.9254L2.6345,-11.9910L2.4390,-12.0499L2.2991,-12.1018L2.2147,-12.1469L2.1772,-12.1796L2.1480,-12.2149L2.1272,-12.2528L2.1147,-12.2935L2.1105,-12.3368L2.1153,-12.3870L2.1296,-12.4333L2.1534,-12.4758L2.1867,-12.5143L2.2296,-12.5490L2.3105,-12.5906L2.4101,-12.6229L2.5285,-12.6460L2.6657,-12.6598L2.8216,-12.6645L2.9466,-12.6595L3.0596,-12.6448L3.1605,-12.6202L3.2493,-12.5858L3.3261,-12.5416L3.3923,-12.4881L3.4494,-12.4260L3.4974,-12.3553L3.5363,-12.2759L3.5662,-12.1879L4.5528,-12.3703L4.4834,-12.5672L4.3944,-12.7438L4.2856,-12.9002L4.1573,-13.0363L4.0092,-13.1522L3.8347,-13.2473L3.6268,-13.3213L3.3856,-13.3742L3.1110,-13.4059L2.8030,-13.4165L2.4798,-13.4025L2.1924,-13.3605L1.9407,-13.2905L1.7248,-13.1925L1.5446,-13.0665L1.3985,-12.9200L1.2849,-12.7604L1.2037,-12.5876L1.1550,-12.4018L1.1388,-12.2028L1.1575,-11.9849L1.2138,-11.7870L1.3077,-11.6090L1.4390,-11.4510L1.6079,-11.3130L1.7805,-11.2187L2.0273,-11.1206L2.3482,-11.0186L2.7433,-10.9127L3.2125,-10.8029L3.3135,-10.7772L3.3990,-10.7505L3.4690,-10.7230L3.5235,-10.6945L3.5625,-10.6652L3.5893,-10.6323L3.6101,-10.5961L3.6250,-10.5566L3.6340,-10.5139L3.6369,-10.4679L3.6314,-10.4007L3.6149,-10.3392L3.5873,-10.2833L3.5488,-10.2332L3.4992,-10.1886L3.4092,-10.1350L3.3032,-10.0933L3.1811,-10.0635L3.0429,-10.0457L2.8886,-10.0397L2.7477,-10.0460L2.6200,-10.0650L2.5053,-10.0967L2.4037,-10.1410L2.3153,-10.1979L2.2389,-10.2671L2.1735,-10.3480L2.1191,-10.4408L2.0758,-10.5452L2.0435,-10.6615L0.9936,-10.5014ZM4.1355,13.3365L4.1549,13.6055L4.2130,13.8552L4.3098,14.0857L4.4453,14.2969L4.6195,14.4888L4.8273,14.6529L5.0636,14.7806L5.3284,14.8717L5.6217,14.9264L5.9434,14.9447L6.1316,14.9375L6.3154,14.9160L6.4947,14.8801L6.6694,14.8299L6.8396,14.7654L7.0056,14.6865L7.1674,14.5933L7.3251,14.4858L7.4788,14.3639L7.6283,14.2277L7.6353,14.2475L7.6439,14.2744L7.6541,14.3082L7.6660,14.3489L7.6795,14.3967L7.7113,14.5038L7.7410,14.5999L7.7687,14.6849L7.7943,14.7589L7.8178,14.8217L9.2416,14.8217L9.1706,14.6680L9.1092,14.5181L9.0575,14.3722L9.0154,14.2301L8.9829,14.0919L8.9581,13.9406L8.9387,13.7593L8.9249,13.5477L8.9166,13.3061L8.9138,13.0344L8.9292,11.3545L8.9215,11.0031L8.8984,10.6986L8.8600,10.4410L8.8063,10.2303L8.7371,10.0665L8.6491,9.9311L8.5388,9.8055L8.4062,9.6898L8.2512,9.5839L8.0739,9.4878L7.8658,9.4057L7.6183,9.3419L7.3315,9.2964L7.0054,9.2690L6.6399,9.2599L6.2367,9.2751L5.8754,9.3205L5.5558,9.3963L5.2780,9.5024L5.0420,9.6389L4.8396,9.8069L4.6626,10.0076L4.5110,10.2412L4.3848,10.5075L4.2841,10.8066L5.5900,11.0421L5.6465,10.8997L5.7097,10.7754L5.7793,10.6694L5.8555,10.5816L5.9383,10.5121L6.0311,10.4577L6.1374,10.4154L6.2572,10.3852L6.3906,10.3670L6.5375,10.3610L6.7503,10.3681L6.9341,10.3893L7.0887,10.4246L7.2143,10.4741L7.3108,10.5377L7.3846,10.6179L7.4419,10.7171L7.4829,10.8354L7.5075,10.9728L7.5157,11.1292L7.5157,11.2726L7.3352,11.3392L7.1051,11.4078L6.8255,11.4785L6.4963,11.5512L6.1175,11.6260L5.8325,11.6853L5.5755,11.7485L5.3465,11.8156L5.1457,11.8866L4.9729,11.9614L4.8212,12.0450L4.6836,12.1421L4.5602,12.2527L4.4509,12.3769L4.3558,12.5145L4.2765,12.6630L4.2148,12.8194L4.1708,12.9838L4.1443,13.1562L4.1355,13.3365ZM5.5746,13.1880L5.5859,13.0694L5.6197,12.9594L5.6761,12.8580L5.7549,12.7652L5.8563,12.6810L5.9467,12.6316L6.0702,12.5818L6.2269,12.5317L6.4168,12.4810L6.6399,12.4300L6.8667,12.3803L7.0676,12.3334L7.2428,12.2893L7.3921,12.2481L7.5157,12.2098L7.5157,12.4966L7.5134,12.6902L7.5066,12.8572L7.4954,12.9975L7.4796,13.1112L7.4593,13.1983L7.4194,13.3074L7.3651,13.4097L7.2965,13.5049L7.2135,13.5932L7.1162,13.6745L6.9734,13.7667L6.8278,13.8384L6.6792,13.8896L6.5278,13.9204L6.3736,13.9306L6.2392,13.9218L6.1146,13.8954L5.9999,13.8513L5.8950,13.7897L5.8000,13.7104L5.7189,13.6190L5.6558,13.5211L5.6107,13.4166L5.5837,13.3056L5.5746,13.1880ZM4.6753,2.5191L5.6933,2.5191L5.6933,-2.5225L4.6753,-2.5225L4.6753,2.5191ZM5.2341,-10.5014L5.3052,-10.2859L5.4024,-10.0891L5.5256,-9.9112L5.6749,-9.7520L5.8503,-9.6116L6.0522,-9.4936L6.2810,-9.4019L6.5367,-9.3364L6.8195,-9.2970L7.1292,-9.2839L7.4677,-9.2996L7.7713,-9.3465L8.0401,-9.4247L8.2741,-9.5341L8.4732,-9.6748L8.6367,-9.8373L8.7639,-10.0120L8.8547,-10.1989L8.9092,-10.3980L8.9274,-10.6093L8.9143,-10.8001L8.8750,-10.9733L8.8094,-11.1289L8.7177,-11.2670L8.5998,-11.3874L8.4470,-11.4942L8.2540,-11.5942L8.0205,-11.6872L7.7467,-11.7735L7.4326,-11.8528L7.1260,-11.9254L6.8750,-11.9910L6.6796,-12.0499L6.5396,-12.1018L6.4553,-12.1469L6.4178,-12.1796L6.3886,-12.2149L6.3677,-12.2528L6.3552,-12.2935L6.3510,-12.3368L6.3558,-12.3870L6.3701,-12.4333L6.3939,-12.4758L6.4273,-12.5143L6.4702,-12.5490L6.5510,-12.5906L6.6507,-12.6229L6.7691,-12.6460L6.9062,-12.6598L7.0621,-12.6645L7.1872,-12.6595L7.3001,-12.6448L7.4010,-12.6202L7.4898,-12.5858L7.5666,-12.5416L7.6328,-12.4881L7.6899,-12.4260L7.7379,-12.3553L7.7769,-12.2759L7.8067,-12.1879L8.7933,-12.3703L8.7240,-12.5672L8.6349,-12.7438L8.5262,-12.9002L8.3978,-13.0363L8.2498,-13.1522L8.0752,-13.2473L7.8674,-13.3213L7.6261,-13.3742L7.3515,-13.4059L7.0435,-13.4165L6.7204,-13.4025L6.4329,-13.3605L6.1813,-13.2905L5.9653,-13.1925L5.7851,-13.0665L5.6390,-12.9200L5.5254,-12.7604L5.4443,-12.5876L5.3956,-12.4018L5.3793,-12.2028L5.3981,-11.9849L5.4544,-11.7870L5.5482,-11.6090L5.6795,-11.4510L5.8484,-11.3130L6.0210,-11.2187L6.2678,-11.1206L6.5887,-11.0186L6.9838,-10.9127L7.4531,-10.8029L7.5540,-10.7772L7.6395,-10.7505L7.7095,-10.7230L7.7640,-10.6945L7.8030,-10.6652L7.8298,-10.6323L7.8507,-10.5961L7.8656,-10.5566L7.8745,-10.5139L7.8775,-10.4679L7.8720,-10.4007L7.8554,-10.3392L7.8279,-10.2833L7.7893,-10.2332L7.7397,-10.1886L7.6498,-10.1350L7.5437,-10.0933L7.4216,-10.0635L7.2834,-10.0457L7.1292,-10.0397L6.9883,-10.0460L6.8605,-10.0650L6.7458,-10.0967L6.6443,-10.1410L6.5558,-10.1979L6.4794,-10.2671L6.4140,-10.3480L6.3597,-10.4408L6.3163,-10.5452L6.2840,-10.6615L5.2341,-10.5014ZM6.4052,0.8787L6.4616,1.2009L6.5510,1.4908L6.6734,1.7484L6.8289,1.9737L7.0173,2.1666L7.2400,2.3257L7.4982,2.4494L7.7919,2.5378L8.1211,2.5908L8.4858,2.6085L8.7399,2.6011L8.9766,2.5791L9.1960,2.5423L9.3981,2.4907L9.5828,2.4245L9.7509,2.3431L9.9031,2.2462L10.0393,2.1338L10.1595,2.0058L10.2638,1.8622L10.3504,1.7087L10.4178,1.5508L10.4660,1.3885L10.4949,1.2217L10.5045,1.0506L10.4964,0.8655L10.4723,0.6927L10.4321,0.5321L10.3757,0.3837L10.3033,0.2476L10.2166,0.1231L10.1176,0.0096L10.0062,-0.0929L9.8824,-0.1843L9.7462,-0.2648L9.5883,-0.3393L9.3995,-0.4128L9.1798,-0.4854L8.9291,-0.5570L8.6474,-0.6276L8.3723,-0.6972L8.1412,-0.7657L7.9541,-0.8331L7.8110,-0.8994L7.7120,-0.9646L7.6575,-1.0176L7.6152,-1.0747L7.5849,-1.1359L7.5667,-1.2012L7.5607,-1.2707L7.5671,-1.3460L7.5866,-1.4149L7.6189,-1.4775L7.6641,-1.5337L7.7223,-1.5837L7.8304,-1.6493L7.9540,-1.7003L8.0929,-1.7368L8.2473,-1.7586L8.4170,-1.7659L8.5804,-1.7591L8.7265,-1.7387L8.8555,-1.7047L8.9672,-1.6570L9.0618,-1.5957L9.1418,-1.5189L9.2098,-1.4246L9.2659,-1.3128L9.3100,-1.1836L9.3421,-1.0369L10.3600,-1.0816L10.3322,-1.3483L10.2679,-1.5927L10.1671,-1.8149L10.0299,-2.0148L9.8562,-2.1924L9.6456,-2.3422L9.3973,-2.4587L9.1115,-2.5419L8.7882,-2.5919L8.4273,-2.6085L8.2017,-2.6015L7.9896,-2.5804L7.7912,-2.5454L7.6064,-2.4962L7.4352,-2.4331L7.2785,-2.3566L7.1372,-2.2672L7.0113,-2.1651L6.9009,-2.0501L6.8058,-1.9224L6.7272,-1.7863L6.6661,-1.6462L6.6224,-1.5021L6.5962,-1.3540L6.5874,-1.2019L6.6060,-0.9699L6.6617,-0.7524L6.7546,-0.5495L6.8846,-0.3612L7.0517,-0.1874L7.2033,-0.0728L7.3940,0.0343L7.6237,0.1341L7.8925,0.2264L8.2003,0.3112L8.4365,0.3707L8.6361,0.4224L8.7991,0.4664L8.9256,0.5027L9.0154,0.5313L9.1137,0.5698L9.1994,0.6108L9.2727,0.6545L9.3334,0.7008L9.3816,0.7497L9.4194,0.8020L9.4488,0.8587L9.4698,0.9195L9.4823,0.9847L9.4865,1.0541L9.4766,1.1627L9.4466,1.2656L9.3968,1.3629L9.3270,1.4546L9.2372,1.5407L9.1278,1.6156L8.9990,1.6738L8.8507,1.7154L8.6831,1.7404L8.4961,1.7487L8.3180,1.7394L8.1552,1.7113L8.0077,1.6646L7.8754,1.5991L7.7584,1.5149L7.6564,1.4108L7.5691,1.2854L7.4966,1.1389L7.4387,0.9712L7.3956,0.7824L6.4052,0.8787ZM9.8408,13.2700L9.9386,13.5664L10.0723,13.8370L10.2418,14.0818L10.4471,14.3008L10.6884,14.4940L10.9661,14.6562L11.2808,14.7824L11.6327,14.8725L12.0216,14.9266L12.4476,14.9447L12.9132,14.9231L13.3309,14.8586L13.7007,14.7511L14.0225,14.6005L14.2964,14.4069L14.5213,14.1834L14.6963,13.9431L14.8212,13.6860L14.8962,13.4121L14.9212,13.1214L14.9032,12.8590L14.8491,12.6208L14.7590,12.4067L14.6328,12.2168L14.4705,12.0511L14.2604,11.9042L13.9949,11.7667L13.6737,11.6387L13.2971,11.5201L12.8650,11.4109L12.4433,11.3111L12.0980,11.2208L11.8291,11.1399L11.6366,11.0684L11.5206,11.0063L11.4690,10.9614L11.4288,10.9129L11.4001,10.8606L11.3829,10.8047L11.3772,10.7451L11.3838,10.6761L11.4034,10.6124L11.4362,10.5540L11.4821,10.5009L11.5411,10.4532L11.6523,10.3960L11.7894,10.3516L11.9522,10.3198L12.1409,10.3008L12.3554,10.2944L12.5274,10.3012L12.6827,10.3215L12.8215,10.3553L12.9437,10.4026L13.0493,10.4634L13.1404,10.5370L13.2190,10.6224L13.2850,10.7197L13.3386,10.8289L13.3797,10.9500L14.7368,10.6990L14.6414,10.4282L14.5189,10.1852L14.3693,9.9701L14.1927,9.7829L13.9891,9.6235L13.7490,9.4926L13.4630,9.3908L13.1312,9.3181L12.7534,9.2744L12.3298,9.2599L11.8852,9.2792L11.4899,9.3369L11.1437,9.4332L10.8466,9.5680L10.5987,9.7413L10.3978,9.9429L10.2415,10.1625L10.1298,10.4001L10.0628,10.6558L10.0405,10.9295L10.0663,11.2292L10.1438,11.5014L10.2728,11.7462L10.4535,11.9636L10.6858,12.1535L10.9232,12.2832L11.2627,12.4182L11.7041,12.5585L12.2476,12.7041L12.8931,12.8551L13.0320,12.8906L13.1496,12.9272L13.2459,12.9651L13.3209,13.0043L13.3745,13.0446L13.4114,13.0899L13.4401,13.1397L13.4606,13.1940L13.4729,13.2527L13.4770,13.3160L13.4694,13.4084L13.4467,13.4930L13.4088,13.5699L13.3557,13.6389L13.2875,13.7002L13.1637,13.7739L13.0179,13.8313L12.8499,13.8722L12.6598,13.8968L12.4476,13.9050L12.2538,13.8963L12.0780,13.8702L11.9203,13.8267L11.7806,13.7657L11.6589,13.6873L11.5538,13.5922L11.4639,13.4809L11.3891,13.3533L11.3295,13.2096L11.2850,13.0497L9.8408,13.2700ZM9.8432,-9.3733L10.8894,-9.3733L10.8894,-13.3272L9.8432,-13.3272L9.8432,-9.3733ZM9.8432,-13.8633L10.8894,-13.8633L10.8894,-14.8313L9.8432,-14.8313L9.8432,-13.8633ZM11.1029,0.8787L11.1593,1.2009L11.2487,1.4908L11.3711,1.7484L11.5266,1.9737L11.7150,2.1666L11.9377,2.3257L12.1959,2.4494L12.4896,2.5378L12.8188,2.5908L13.1835,2.6085L13.4376,2.6011L13.6743,2.5791L13.8937,2.5423L14.0958,2.4907L14.2805,2.4245L14.4486,2.3431L14.6008,2.2462L14.7370,2.1338L14.8572,2.0058L14.9615,1.8622L15.0481,1.7087L15.1155,1.5508L15.1637,1.3885L15.1926,1.2217L15.2022,1.0506L15.1941,0.8655L15.1700,0.6927L15.1298,0.5321L15.0734,0.3837L15.0010,0.2476L14.9143,0.1231L14.8153,0.0096L14.7039,-0.0929L14.5801,-0.1843L14.4439,-0.2648L14.2860,-0.3393L14.0972,-0.4128L13.8775,-0.4854L13.6268,-0.5570L13.3451,-0.6276L13.0700,-0.6972L12.8389,-0.7657L12.6518,-0.8331L12.5087,-0.8994L12.4097,-0.9646L12.3552,-1.0176L12.3129,-1.0747L12.2826,-1.1359L12.2644,-1.2012L12.2584,-1.2707L12.2649,-1.3460L12.2843,-1.4149L12.3166,-1.4775L12.3618,-1.5337L12.4200,-1.5837L12.5281,-1.6493L12.6517,-1.7003L12.7906,-1.7368L12.9450,-1.7586L13.1147,-1.7659L13.2781,-1.7591L13.4242,-1.7387L13.5532,-1.7047L13.6650,-1.6570L13.7595,-1.5957L13.8395,-1.5189L13.9075,-1.4246L13.9636,-1.3128L14.0077,-1.1836L14.0398,-1.0369L15.0578,-1.0816L15.0299,-1.3483L14.9656,-1.5927L14.8648,-1.8149L14.7276,-2.0148L14.5539,-2.1924L14.3433,-2.3422L14.0950,-2.4587L13.8092,-2.5419L13.4859,-2.5919L13.1250,-2.6085L12.8994,-2.6015L12.6873,-2.5804L12.4889,-2.5454L12.3041,-2.4962L12.1329,-2.4331L11.9762,-2.3566L11.8349,-2.2672L11.7090,-2.1651L11.5986,-2.0501L11.5035,-1.9224L11.4249,-1.7863L11.3638,-1.6462L11.3201,-1.5021L11.2939,-1.3540L11.2851,-1.2019L11.3037,-0.9699L11.3594,-0.7524L11.4523,-0.5495L11.5823,-0.3612L11.7494,-0.1874L11.9010,-0.0728L12.0917,0.0343L12.3214,0.1341L12.5902,0.2264L12.8980,0.3112L13.1342,0.3707L13.3338,0.4224L13.4968,0.4664L13.6233,0.5027L13.7131,0.5313L13.8114,0.5698L13.8972,0.6108L13.9704,0.6545L14.0311,0.7008L14.0793,0.7497L14.1171,0.8020L14.1465,0.8587L14.1675,0.9195L14.1800,0.9847L14.1842,1.0541L14.1743,1.1627L14.1443,1.2656L14.0945,1.3629L14.0247,1.4546L13.9349,1.5407L13.8255,1.6156L13.6967,1.6738L13.5484,1.7154L13.3808,1.7404L13.1938,1.7487L13.0157,1.7394L12.8529,1.7113L12.7054,1.6646L12.5731,1.5991L12.4561,1.5149L12.3541,1.4108L12.2668,1.2854L12.1943,1.1389L12.1364,0.9712L12.0933,0.7824L11.1029,0.8787ZM11.7197,-11.4061L11.7299,-11.1418L11.7608,-10.8941L11.8121,-10.6629L11.8841,-10.4482L11.9765,-10.2501L12.0888,-10.0693L12.2199,-9.9069L12.3699,-9.7629L12.5389,-9.6371L12.7267,-9.5297L12.9261,-9.4412L13.1294,-9.3724L13.3368,-9.3232L13.5482,-9.2938L13.7636,-9.2839L14.1031,-9.3075L14.4186,-9.3783L14.7101,-9.4964L14.9776,-9.6616L15.2212,-9.8740L15.4296,-10.1224L15.5917,-10.3953L15.7075,-10.6927L15.7770,-11.0148L15.8001,-11.3614L15.7772,-11.7050L15.7084,-12.0241L15.5937,-12.3186L15.4332,-12.5885L15.2268,-12.8338L14.9845,-13.0436L14.7163,-13.2068L14.4221,-13.3233L14.1021,-13.3932L13.7562,-13.4165L13.5282,-13.4062L13.3091,-13.3754L13.0987,-13.3240L12.8972,-13.2521L12.7044,-13.1596L12.5246,-13.0476L12.3619,-12.9172L12.2163,-12.7683L12.0879,-12.6009L11.9765,-12.4150L11.8841,-12.2186L11.8121,-12.0195L11.7608,-11.8177L11.7299,-11.6132L11.7197,-11.4061ZM12.7919,-11.3502L12.8031,-11.5745L12.8366,-11.7767L12.8924,-11.9569L12.9706,-12.1151L13.0711,-12.2512L13.1880,-12.3638L13.3154,-12.4513L13.4531,-12.5139L13.6013,-12.5514L13.7599,-12.5639L13.9184,-12.5514L14.0664,-12.5139L14.2037,-12.4513L14.3306,-12.3638L14.4468,-12.2512L14.5466,-12.1154L14.6243,-11.9581L14.6798,-11.7794L14.7131,-11.5793L14.7241,-11.3577L14.7131,-11.1307L14.6798,-10.9264L14.6243,-10.7447L14.5466,-10.5857L14.4468,-10.4492L14.3306,-10.3367L14.2037,-10.2491L14.0664,-10.1865L13.9184,-10.1490L13.7599,-10.1365L13.6013,-10.1490L13.4531,-10.1865L13.3154,-10.2491L13.1880,-10.3367L13.0711,-10.4492L12.9706,-10.5854L12.8924,-10.7435L12.8366,-10.9237L12.8031,-11.1259L12.7919,-11.3502ZM16.0516,0.1668L16.0556,0.4887L16.0676,0.7776L16.0875,1.0334L16.1155,1.2563L16.1514,1.4461L16.1848,1.5620L16.2300,1.6758L16.2871,1.7876L16.3561,1.8973L16.4368,2.0050L16.5297,2.1076L16.6352,2.2022L16.7531,2.2889L16.8836,2.3676L17.0266,2.4383L17.1898,2.4983L17.3809,2.5450L17.6000,2.5784L17.8470,2.5984L18.1219,2.6051L18.3522,2.5989L18.5643,2.5806L18.7583,2.5500L18.9341,2.5071L19.0917,2.4520L19.2343,2.3866L19.3649,2.3128L19.4836,2.2306L19.5902,2.1400L19.6850,2.0411L19.7681,1.9332L19.8401,1.8160L19.9010,1.6895L19.9507,1.5535L19.9893,1.4083L20.0190,1.2370L20.0421,1.0231L20.0586,0.7666L20.0685,0.4674L20.0718,0.1255L20.0718,-2.5225L19.0539,-2.5225L19.0539,0.2665L19.0521,0.4923L19.0467,0.6908L19.0378,0.8620L19.0253,1.0061L19.0092,1.1228L18.9843,1.2228L18.9454,1.3163L18.8924,1.4033L18.8254,1.4838L18.7444,1.5579L18.6478,1.6216L18.5342,1.6712L18.4035,1.7066L18.2558,1.7279L18.0910,1.7350L17.9276,1.7275L17.7787,1.7050L17.6442,1.6675L17.5242,1.6150L17.4186,1.5476L17.3275,1.4677L17.2508,1.3781L17.1886,1.2787L17.1408,1.1695L17.1074,1.0506L17.0938,0.9553L17.0832,0.8234L17.0756,0.6549L17.0711,0.4498L17.0696,0.2081L17.0696,-2.5225L16.0516,-2.5225L16.0516,0.1668ZM16.1811,14.8217L17.6202,14.8217L17.6202,9.3828L16.1811,9.3828L16.1811,14.8217ZM16.1811,8.6453L17.6202,8.6453L17.6202,7.3138L16.1811,7.3138L16.1811,8.6453ZM16.6117,-9.3733L17.6579,-9.3733L17.6579,-11.1641L17.6611,-11.4125L17.6707,-11.6275L17.6867,-11.8092L17.7091,-11.9575L17.7380,-12.0725L17.7754,-12.1669L17.8237,-12.2536L17.8829,-12.3325L17.9530,-12.4037L18.0339,-12.4671L18.1225,-12.5207L18.2156,-12.5624L18.3132,-12.5922L18.4152,-12.6101L18.5216,-12.6161L18.6041,-12.6119L18.6816,-12.5994L18.7542,-12.5785L18.8219,-12.5493L18.8846,-12.5118L18.9416,-12.4668L18.9919,-12.4150L19.0354,-12.3566L19.0723,-12.2914L19.1024,-12.2196L19.1266,-12.1263L19.1453,-11.9968L19.1587,-11.8311L19.1668,-11.6292L19.1695,-11.3912L19.1695,-9.3733L20.2156,-9.3733L20.2156,-11.8305L20.2133,-12.0052L20.2064,-12.1629L20.1949,-12.3036L20.1787,-12.4274L20.1579,-12.5341L20.1313,-12.6304L20.0975,-12.7224L20.0565,-12.8102L20.0084,-12.8939L19.9532,-12.9735L19.8888,-13.0481L19.8132,-13.1173L19.7264,-13.1810L19.6285,-13.2391L19.5194,-13.2918L19.4024,-13.3367L19.2806,-13.3716L19.1540,-13.3965L19.0226,-13.4115L18.8865,-13.4165L18.5830,-13.3897L18.3010,-13.3093L18.0403,-13.1753L17.8012,-12.9876L17.5834,-12.7464L17.5834,-13.3272L16.6117,-13.3272L16.6117,-9.3733ZM19.0952,14.8217L20.5343,14.8217L20.5343,13.3826L19.0952,13.3826L19.0952,14.8217ZM20.7837,-1.6696L22.2797,-1.6696L22.2797,2.5191L23.2976,2.5191L23.2976,-1.6696L24.7902,-1.6696L24.7902,-2.5225L20.7837,-2.5225L20.7837,-1.6696ZM20.9714,-11.3204L20.9871,-11.0026L21.0340,-10.7075L21.1121,-10.4350L21.2216,-10.1851L21.3623,-9.9578L21.5818,-9.7152L21.8442,-9.5265L22.1495,-9.3918L22.4977,-9.3109L22.8888,-9.2839L23.1407,-9.2959L23.3752,-9.3319L23.5922,-9.3918L23.7918,-9.4757L23.9740,-9.5836L24.1382,-9.7145L24.2838,-9.8672L24.4108,-10.0418L24.5191,-10.2383L24.6088,-10.4567L23.5664,-10.6317L23.5288,-10.5191L23.4848,-10.4196L23.4341,-10.3332L23.3769,-10.2600L23.3132,-10.1998L23.2431,-10.1515L23.1667,-10.1140L23.0840,-10.0872L22.9951,-10.0711L22.8999,-10.0658L22.7603,-10.0761L22.6301,-10.1072L22.5095,-10.1589L22.3984,-10.2314L22.2968,-10.3245L22.2093,-10.4363L22.1401,-10.5646L22.0895,-10.7094L22.0573,-10.8708L22.0436,-11.0486L24.6647,-11.0486L24.6523,-11.5049L24.5974,-11.9115L24.4998,-12.2685L24.3597,-12.5760L24.1770,-12.8338L23.9580,-13.0436L23.7093,-13.2068L23.4309,-13.3233L23.1226,-13.3932L22.7845,-13.4165L22.4812,-13.3942L22.1996,-13.3275L21.9397,-13.2161L21.7016,-13.0603L21.4852,-12.8599L21.3002,-12.6202L21.1564,-12.3464L21.0536,-12.0385L20.9920,-11.6965L20.9714,-11.3204ZM22.0623,-11.6890L22.0699,-11.8531L22.0956,-12.0029L22.1396,-12.1385L22.2017,-12.2597L22.2819,-12.3666L22.3760,-12.4564L22.4797,-12.5263L22.5929,-12.5761L22.7156,-12.6061L22.8478,-12.6161L22.9720,-12.6066L23.0885,-12.5782L23.1972,-12.5309L23.2982,-12.4647L23.3914,-12.3796L23.4723,-12.2764L23.5361,-12.1557L23.5830,-12.0175L23.6130,-11.8620L23.6259,-11.6890L22.0623,-11.6890ZM24.9346,2.5191L26.0145,2.5191L26.4306,1.3739L28.4459,1.3739L28.8861,2.5191L29.9934,2.5191L27.9747,-2.5225L26.8983,-2.5225L24.9346,2.5191ZM26.7435,0.5244L27.4245,-1.3464L28.1191,0.5244L26.7435,0.5244Z" fill="#ffffff" fill-rule="evenodd"/></svg>