<svg xmlns="http://www.w3.org/2000/svg" width="70mm" height="70mm" viewBox="-35 -35 70 70"><title>Laureato con CTRL+C / CTRL+V</title><circle r="35" fill="#2458b8"/><path d="M-30.8000,-0.0000L-30.7341,2.0144L-30.5365,4.0202L-30.2082,6.0088L-29.7505,7.9716L-29.1654,9.9003L-28.4555,11.7866L-27.6237,13.6225L-26.6736,15.4000L-25.6093,17.1116L-24.4353,18.7499L-23.1567,20.3079L-21.7789,21.7789L-20.3079,23.1567L-18.7499,24.4353L-17.1116,25.6093L-15.4000,26.6736L-13.6225,27.6237L-11.7866,28.4555L-9.9003,29.1654L-7.9716,29.7505L-6.0088,30.2082L-4.0202,30.5365L-2.0144,30.7341L-0.0000,30.8000L2.0144,30.7341L4.0202,30.5365L6.0088,30.2082L7.9716,29.7505L9.9003,29.1654L11.7866,28.4555L13.6225,27.6237L15.4000,26.6736L17.1116,25.6093L18.7499,24.4353L20.3079,23.1567L21.7789,21.7789L23.1567,20.3079L24.4353,18.7499L25.6093,17.1116L26.6736,15.4000L27.6237,13.6225L28.4555,11.7866L29.1654,9.9003L29.7505,7.9716L30.2082,6.0088L30.5365,4.0202L30.7341,2.0144L30.8000,0.0000L30.8000,0.0000L30.7341,-2.0144L30.5365,-4.0202L30.2082,-6.0088L29.7505,-7.9716L29.1654,-9.9003L28.4555,-11.7866L27.6237,-13.6225L26.6736,-15.4000L25.6093,-17.1116L24.4353,-18.7499L23.1567,-20.3079L21.7789,-21.7789L20.3079,-23.1567L18.7499,-24.4353L17.1116,-25.6093L15.4000,-26.6736L13.6225,-27.6237L11.7866,-28.4555L9.9003,-29.1654L7.9716,-29.7505L6.0088,-30.2082L4.0202,-30.5365L2.0144,-30.7341L0.0000,-30.8000L-2.0144,-30.7341L-4.0202,-30.5365L-6.0088,-30.2082L-7.9716,-29.7505L-9.9003,-29.1654L-11.7866,-28.4555L-13.6225,-27.6237L-15.4000,-26.6736L-17.1116,-25.6093L-18.7499,-24.4353L-20.3079,-23.1567L-21.7789,-21.7789L-23.1567,-20.3079L-24.4353,-18.7499L-25.6093,-17.1116L-26.6736,-15.4000L-27.6237,-13.6225L-28.4555,-11.7866L-29.1654,-9.9003L-29.7505,-7.9716L-30.2082,-6.0088L-30.5365,-4.0202L-30.7341,-2.0144L-30.8000,-0.0000ZM-30.0300,-0.0000L-29.9657,-1.9641L-29.7731,-3.9197L-29.4530,-5.8586L-29.0068,-7.7723L-28.4363,-9.6528L-27.7441,-11.4920L-26.9331,-13.2819L-26.0067,-15.0150L-24.9690,-16.6838L-23.8244,-18.2811L-22.5777,-19.8002L-21.2344,-21.2344L-19.8002,-22.5777L-18.2811,-23.8244L-16.6838,-24.9690L-15.0150,-26.0067L-13.2819,-26.9331L-11.4920,-27.7441L-9.6528,-28.4363L-7.7723,-29.0068L-5.8586,-29.4530L-3.9197,-29.7731L-1.9641,-29.9657L0.0000,-30.0300L1.9641,-29.9657L3.9197,-29.7731L5.8586,-29.4530L7.7723,-29.0068L9.6528,-28.4363L11.4920,-27.7441L13.2819,-26.9331L15.0150,-26.0067L16.6838,-24.9690L18.2811,-23.8244L19.8002,-22.5777L21.2344,-21.2344L22.5777,-19.8002L23.8244,-18.2811L24.9690,-16.6838L26.0067,-15.0150L26.9331,-13.2819L27.7441,-11.4920L28.4363,-9.6528L29.0068,-7.7723L29.4530,-5.8586L29.7731,-3.9197L29.9657,-1.9641L30.0300,0.0000L30.0300,0.0000L29.9657,1.9641L29.7731,3.9197L29.4530,5.8586L29.0068,7.7723L28.4363,9.6528L27.7441,11.4920L26.9331,13.2819L26.0067,15.0150L24.9690,16.6838L23.8244,18.2811L22.5777,19.8002L21.2344,21.2344L19.8002,22.5777L18.2811,23.8244L16.6838,24.9690L15.0150,26.0067L13.2819,26.9331L11.4920,27.7441L9.6528,28.4363L7.7723,29.0068L5.8586,29.4530L3.9197,29.7731L1.9641,29.9657L-0.0000,30.0300L-1.9641,29.9657L-3.9197,29.7731L-5.8586,29.4530L-7.7723,29.0068L-9.6528,28.4363L-11.4920,27.7441L-13.2819,26.9331L-15.0150,26.0067L-16.6838,24.9690L-18.2811,23.8244L-19.8002,22.5777L-21.2344,21.2344L-22.5777,19.8002L-23.8244,18.2811L-24.9690,16.6838L-26.0067,15.0150L-26.9331,13.2819L-27.7441,11.4920L-28.4363,9.6528L-29.0068,7.7723L-29.4530,5.8586L-29.7731,3.9197L-29.9657,1.9641L-30.0300,-0.0000ZM-23.8000,17.5000L23.8000,17.5000L23.8000,5.6000L-23.8000,5.6000L-23.8000,17.5000ZM-22.7500,16.4500L-22.7500,6.6500L22.7500,6.6500L22.7500,16.4500L-22.7500,16.4500ZM-23.8000,2.1000L23.8000,2.1000L23.8000,-9.8000L-23.8000,-9.8000L-23.8000,2.1000ZM-22.7500,1.0500L-22.7500,-8.7500L22.7500,-8.7500L22.7500,1.0500L-22.7500,1.0500ZM-20.1334,-14.0373L-20.1300,-13.9886L-20.1196,-13.9437L-20.1022,-13.9027L-20.0780,-13.8655L-20.0467,-13.8322L-20.0074,-13.8040L-19.9586,-13.7820L-19.9006,-13.7663L-19.8331,-13.7569L-19.7563,-13.7538L-17.0832,-13.7538L-17.0832,-14.8522L-17.0864,-14.9290L-17.0958,-14.9964L-17.1115,-15.0545L-17.1334,-15.1032L-17.1617,-15.1426L-17.1949,-15.1738L-17.2317,-15.1981L-17.2722,-15.2154L-17.3163,-15.2259L-17.3640,-15.2293L-17.4127,-15.2259L-17.4576,-15.2154L-17.4986,-15.1981L-17.5358,-15.1738L-17.5691,-15.1426L-17.5974,-15.1032L-17.6193,-15.0545L-17.6350,-14.9964L-17.6444,-14.9290L-17.6476,-14.8522L-17.6476,-14.3181L-18.8644,-14.3181L-18.8644,-16.5259L-18.5340,-16.5259L-18.4572,-16.5291L-18.3897,-16.5385L-18.3317,-16.5542L-18.2829,-16.5762L-18.2436,-16.6044L-18.2124,-16.6377L-18.1881,-16.6749L-18.1707,-16.7159L-18.1603,-16.7608L-18.1569,-16.8095L-18.1603,-16.8582L-18.1707,-16.9029L-18.1881,-16.9436L-18.2124,-16.9804L-18.2436,-17.0132L-18.2829,-17.0410L-18.3317,-17.0625L-18.3897,-17.0780L-18.4572,-17.0872L-18.5340,-17.0903L-19.7563,-17.0930L-19.8331,-17.0899L-19.9006,-17.0805L-19.9586,-17.0648L-20.0074,-17.0428L-20.0467,-17.0146L-20.0780,-16.9813L-20.1022,-16.9441L-20.1196,-16.9031L-20.1300,-16.8582L-20.1334,-16.8095L-20.1300,-16.7608L-20.1196,-16.7159L-20.1022,-16.6749L-20.0780,-16.6377L-20.0467,-16.6044L-20.0074,-16.5762L-19.9586,-16.5542L-19.9006,-16.5385L-19.8331,-16.5291L-19.7563,-16.5259L-19.4287,-16.5259L-19.4287,-14.3181L-19.7563,-14.3181L-19.8331,-14.3150L-19.9006,-14.3055L-19.9586,-14.2899L-20.0074,-14.2679L-20.0467,-14.2396L-20.0780,-14.2064L-20.1022,-14.1696L-20.1196,-14.1291L-20.1300,-14.0850L-20.1334,-14.0373ZM-19.9131,14.9475L-19.9081,15.0085L-19.8931,15.0669L-19.8681,15.1227L-19.8330,15.1758L-19.7880,15.2264L-19.7361,15.2707L-19.6804,15.3051L-19.6209,15.3297L-19.5576,15.3445L-19.4906,15.3494L-19.4317,15.3460L-19.3764,15.3356L-19.3248,15.3184L-19.2767,15.2943L-19.2322,15.2633L-19.1986,15.2310L-19.1633,15.1865L-19.1264,15.1299L-19.0879,15.0612L-19.0477,14.9803L-16.3529,9.1725L-16.3175,9.0913L-16.2899,9.0182L-16.2702,8.9534L-16.2584,8.8968L-16.2545,8.8484L-16.2594,8.7875L-16.2742,8.7293L-16.2988,8.6740L-16.3332,8.6214L-16.3775,8.5716L-16.4287,8.5280L-16.4839,8.4941L-16.5429,8.4699L-16.6059,8.4554L-16.6729,8.4506L-16.7304,8.4540L-16.7851,8.4644L-16.8367,8.4816L-16.8855,8.5057L-16.9312,8.5367L-16.9634,8.5690L-16.9975,8.6135L-17.0336,8.6701L-17.0717,8.7388L-17.1117,8.8197L-19.8146,14.6234L-19.8501,14.7046L-19.8776,14.7777L-19.8973,14.8425L-19.9091,14.8991L-19.9131,14.9475ZM-16.6923,-14.4337L-16.6810,-14.3190L-16.6469,-14.2084L-16.5902,-14.1019L-16.5108,-13.9994L-16.4088,-13.9010L-16.2885,-13.8143L-16.1546,-13.7469L-16.0070,-13.6987L-15.8458,-13.6698L-15.6710,-13.6602L-15.5854,-13.6624L-15.4961,-13.6692L-15.4031,-13.6805L-15.3063,-13.6963L-15.2057,-13.7166L-15.1051,-13.7414L-15.0080,-13.7708L-14.9144,-13.8046L-14.8243,-13.8430L-14.7377,-13.8859L-14.7377,-13.7538L-14.0770,-13.7538L-14.0002,-13.7569L-13.9328,-13.7663L-13.8747,-13.7820L-13.8260,-13.8040L-13.7866,-13.8322L-13.7554,-13.8654L-13.7311,-13.9023L-13.7138,-13.9427L-13.7034,-13.9868L-13.6999,-14.0346L-13.7034,-14.0833L-13.7138,-14.1282L-13.7311,-14.1692L-13.7554,-14.2063L-13.7866,-14.2396L-13.8260,-14.2679L-13.8747,-14.2899L-13.9328,-14.3055L-14.0002,-14.3150L-14.0770,-14.3181L-14.1734,-14.3181L-14.1734,-15.4798L-14.1850,-15.6306L-14.2199,-15.7681L-14.2779,-15.8923L-14.3593,-16.0031L-14.4638,-16.1006L-14.5894,-16.1824L-14.7338,-16.2460L-14.8971,-16.2914L-15.0791,-16.3186L-15.2801,-16.3277L-15.3522,-16.3264L-15.4276,-16.3222L-15.5064,-16.3153L-15.5884,-16.3057L-15.6737,-16.2933L-15.7604,-16.2786L-15.8464,-16.2620L-15.9317,-16.2436L-16.0164,-16.2233L-16.1004,-16.2011L-16.1589,-16.1840L-16.2088,-16.1678L-16.2501,-16.1527L-16.2828,-16.1385L-16.3069,-16.1254L-16.3258,-16.1119L-16.3430,-16.0968L-16.3584,-16.0800L-16.3721,-16.0615L-16.3840,-16.0414L-16.3939,-16.0197L-16.4016,-15.9965L-16.4071,-15.9717L-16.4104,-15.9454L-16.4115,-15.9175L-16.4084,-15.8687L-16.3990,-15.8235L-16.3833,-15.7819L-16.3613,-15.7440L-16.3331,-15.7097L-16.3003,-15.6805L-16.2648,-15.6577L-16.2265,-15.6415L-16.1855,-15.6317L-16.1417,-15.6285L-16.1060,-15.6299L-16.0651,-15.6342L-16.0188,-15.6414L-15.9673,-15.6514L-15.9105,-15.6643L-15.7568,-15.7000L-15.6149,-15.7277L-15.4850,-15.7475L-15.3669,-15.7594L-15.2608,-15.7634L-15.1464,-15.7602L-15.0478,-15.7506L-14.9650,-15.7346L-14.8978,-15.7123L-14.8465,-15.6835L-14.8073,-15.6497L-14.7769,-15.6122L-14.7551,-15.5709L-14.7421,-15.5259L-14.7377,-15.4771L-14.7377,-15.3422L-14.8689,-15.3620L-14.9936,-15.3774L-15.1120,-15.3884L-15.2240,-15.3950L-15.3296,-15.3972L-15.5740,-15.3851L-15.7963,-15.3486L-15.9964,-15.2877L-16.1744,-15.2026L-16.3303,-15.0930L-16.4606,-14.9693L-16.5620,-14.8415L-16.6344,-14.7097L-16.6778,-14.5737L-16.6923,-14.4337ZM-16.1087,-14.4447L-16.1025,-14.4887L-16.0840,-14.5324L-16.0532,-14.5759L-16.0100,-14.6192L-15.9545,-14.6622L-15.8516,-14.7227L-15.7409,-14.7697L-15.6225,-14.8033L-15.4964,-14.8234L-15.3626,-14.8301L-15.2460,-14.8275L-15.1252,-14.8196L-15.0003,-14.8064L-14.8711,-14.7879L-14.7377,-14.7641L-14.7377,-14.5218L-14.8204,-14.4691L-14.9075,-14.4210L-14.9992,-14.3775L-15.0954,-14.3386L-15.1961,-14.3043L-15.2969,-14.2756L-15.3934,-14.2532L-15.4856,-14.2373L-15.5736,-14.2277L-15.6572,-14.2245L-15.7489,-14.2281L-15.8325,-14.2390L-15.9079,-14.2572L-15.9752,-14.2826L-16.0344,-14.3154L-16.0611,-14.3364L-16.0819,-14.3598L-16.0968,-14.3857L-16.1057,-14.4140L-16.1087,-14.4447ZM-14.8497,-3.1329L-14.8361,-2.8857L-14.7952,-2.6463L-14.7272,-2.4146L-14.6318,-2.1905L-14.5093,-1.9742L-14.3674,-1.7732L-14.2140,-1.5949L-14.0491,-1.4395L-13.8727,-1.3068L-13.6849,-1.1970L-13.4394,-1.0862L-13.1822,-1.0001L-12.9131,-0.9386L-12.6322,-0.9017L-12.3396,-0.8894L-12.0880,-0.8982L-11.8454,-0.9248L-11.6116,-0.9691L-11.3867,-1.0311L-11.1706,-1.1108L-11.0188,-1.1814L-10.8786,-1.2618L-10.7498,-1.3520L-10.6325,-1.4521L-10.5267,-1.5620L-10.4646,-1.6398L-10.4164,-1.7156L-10.3820,-1.7894L-10.3613,-1.8613L-10.3544,-1.9312L-10.3595,-1.9983L-10.3747,-2.0617L-10.4002,-2.1216L-10.4358,-2.1779L-10.4815,-2.2306L-10.5340,-2.2763L-10.5898,-2.3119L-10.6489,-2.3374L-10.7112,-2.3526L-10.7769,-2.3577L-10.8138,-2.3562L-10.8490,-2.3515L-10.8827,-2.3437L-10.9147,-2.3328L-10.9450,-2.3187L-10.9768,-2.2995L-11.0133,-2.2728L-11.0543,-2.2388L-11.0999,-2.1973L-11.1501,-2.1485L-11.2344,-2.0673L-11.3168,-1.9976L-11.3972,-1.9394L-11.4756,-1.8926L-11.5521,-1.8573L-11.6874,-1.8116L-11.8342,-1.7759L-11.9926,-1.7505L-12.1624,-1.7353L-12.3437,-1.7302L-12.6433,-1.7464L-12.9156,-1.7951L-13.1604,-1.8764L-13.3779,-1.9901L-13.5680,-2.1362L-13.7267,-2.3067L-13.8502,-2.4932L-13.9383,-2.6958L-13.9912,-2.9145L-14.0089,-3.1493L-14.0089,-3.6948L-13.9992,-3.8927L-13.9702,-4.0794L-13.9218,-4.2549L-13.8540,-4.4193L-13.7669,-4.5726L-13.6671,-4.7120L-13.5615,-4.8351L-13.4499,-4.9417L-13.3325,-5.0319L-13.2091,-5.1058L-13.0803,-5.1648L-12.9466,-5.2108L-12.8079,-5.2436L-12.6644,-5.2633L-12.5159,-5.2698L-12.3946,-5.2654L-12.2734,-5.2521L-12.1524,-5.2300L-12.0316,-5.1989L-11.9109,-5.1591L-11.7957,-5.1118L-11.6911,-5.0587L-11.5972,-4.9996L-11.5139,-4.9346L-11.4413,-4.8638L-11.4092,-4.8229L-11.3816,-4.7758L-11.3586,-4.7225L-11.3402,-4.6630L-11.3265,-4.5972L-11.3046,-4.5004L-11.2786,-4.4167L-11.2482,-4.3462L-11.2136,-4.2887L-11.1747,-4.2444L-11.1311,-4.2105L-11.0822,-4.1841L-11.0280,-4.1652L-10.9686,-4.1539L-10.9040,-4.1501L-10.8329,-4.1553L-10.7672,-4.1708L-10.7069,-4.1966L-10.6520,-4.2328L-10.6025,-4.2793L-10.5605,-4.3379L-10.5277,-4.4105L-10.5043,-4.4971L-10.4903,-4.5976L-10.4856,-4.7120L-10.4856,-5.4257L-10.4903,-5.5400L-10.5043,-5.6403L-10.5277,-5.7264L-10.5605,-5.7984L-10.6025,-5.8563L-10.6520,-5.9021L-10.7069,-5.9377L-10.7672,-5.9632L-10.8329,-5.9784L-10.9040,-5.9835L-10.9461,-5.9814L-10.9870,-5.9750L-11.0268,-5.9643L-11.0654,-5.9494L-11.1029,-5.9302L-11.1393,-5.9067L-11.1745,-5.8790L-11.2085,-5.8470L-11.2414,-5.8107L-11.2731,-5.7702L-11.3848,-5.8356L-11.4999,-5.8939L-11.6184,-5.9452L-11.7404,-5.9894L-11.8658,-6.0266L-11.9949,-6.0568L-12.1277,-6.0804L-12.2642,-6.0972L-12.4046,-6.1073L-12.5487,-6.1106L-12.7889,-6.0983L-13.0239,-6.0614L-13.2535,-5.9999L-13.4780,-5.9138L-13.6972,-5.8030L-13.9043,-5.6696L-14.0926,-5.5153L-14.2620,-5.3401L-14.4125,-5.1442L-14.5441,-4.9273L-14.6541,-4.6966L-14.7397,-4.4588L-14.8008,-4.2139L-14.8375,-3.9620L-14.8497,-3.7030L-14.8497,-3.1329ZM-13.4714,-15.9726L-13.4679,-15.9239L-13.4575,-15.8790L-13.4402,-15.8380L-13.4159,-15.8008L-13.3847,-15.7675L-13.3453,-15.7393L-13.2966,-15.7173L-13.2385,-15.7016L-13.1711,-15.6922L-13.0942,-15.6891L-12.9979,-15.6891L-12.9979,-14.4750L-12.9945,-14.3888L-12.9842,-14.3085L-12.9672,-14.2342L-12.9433,-14.1658L-12.9125,-14.1034L-12.8618,-14.0244L-12.8042,-13.9525L-12.7398,-13.8878L-12.6685,-13.8303L-12.5905,-13.7799L-12.5060,-13.7378L-12.4156,-13.7050L-12.3192,-13.6816L-12.2169,-13.6676L-12.1087,-13.6629L-12.0285,-13.6651L-11.9466,-13.6717L-11.8629,-13.6827L-11.7775,-13.6981L-11.6903,-13.7180L-11.6013,-13.7422L-11.5105,-13.7708L-11.4180,-13.8039L-11.3238,-13.8413L-11.2278,-13.8831L-11.2278,-13.7538L-10.6909,-13.7538L-10.6141,-13.7569L-10.5467,-13.7663L-10.4886,-13.7820L-10.4399,-13.8040L-10.4005,-13.8322L-10.3693,-13.8654L-10.3450,-13.9023L-10.3277,-13.9427L-10.3173,-13.9868L-10.3138,-14.0346L-10.3172,-14.0823L-10.3275,-14.1266L-10.3445,-14.1674L-10.3684,-14.2046L-10.3991,-14.2383L-10.4370,-14.2670L-10.4824,-14.2894L-10.5352,-14.3053L-10.5956,-14.3149L-10.6634,-14.3181L-10.6634,-16.2534L-11.4315,-16.2534L-11.5083,-16.2503L-11.5757,-16.2409L-11.6338,-16.2252L-11.6825,-16.2032L-11.7219,-16.1749L-11.7531,-16.1417L-11.7774,-16.1049L-11.7948,-16.0644L-11.8052,-16.0203L-11.8086,-15.9726L-11.8052,-15.9239L-11.7948,-15.8790L-11.7774,-15.8380L-11.7531,-15.8008L-11.7219,-15.7675L-11.6825,-15.7393L-11.6338,-15.7173L-11.5757,-15.7016L-11.5083,-15.6922L-11.4315,-15.6891L-11.2278,-15.6891L-11.2278,-14.5383L-11.3397,-14.4722L-11.4443,-14.4148L-11.5414,-14.3661L-11.6312,-14.3260L-11.7137,-14.2947L-11.7913,-14.2704L-11.8669,-14.2515L-11.9404,-14.2380L-12.0119,-14.2300L-12.0812,-14.2273L-12.1491,-14.2306L-12.2096,-14.2407L-12.2627,-14.2575L-12.3085,-14.2810L-12.3468,-14.3112L-12.3780,-14.3486L-12.4023,-14.3936L-12.4197,-14.4462L-12.4301,-14.5064L-12.4335,-14.5741L-12.4335,-16.2534L-13.0942,-16.2534L-13.1711,-16.2503L-13.2385,-16.2409L-13.2966,-16.2252L-13.3453,-16.2032L-13.3847,-16.1749L-13.4159,-16.1417L-13.4402,-16.1049L-13.4575,-16.0644L-13.4679,-16.0203L-13.4714,-15.9726ZM-10.2621,12.2609L-10.2485,12.5081L-10.2076,12.7475L-10.1396,12.9793L-10.0442,13.2033L-9.9217,13.4196L-9.7798,13.6207L-9.6264,13.7989L-9.4615,13.9544L-9.2851,14.0870L-9.0973,14.1969L-8.8518,14.3076L-8.5946,14.3937L-8.3255,14.4553L-8.0446,14.4922L-7.7520,14.5045L-7.5004,14.4956L-7.2578,14.4691L-7.0240,14.4248L-6.7991,14.3627L-6.5830,14.2830L-6.4312,14.2125L-6.2910,14.1321L-6.1622,14.0418L-6.0449,13.9418L-5.9391,13.8318L-5.8770,13.7541L-5.8288,13.6783L-5.7944,13.6044L-5.7737,13.5326L-5.7668,13.4627L-5.7719,13.3956L-5.7871,13.3321L-5.8126,13.2722L-5.8482,13.2159L-5.8939,13.1633L-5.9464,13.1175L-6.0022,13.0819L-6.0613,13.0565L-6.1236,13.0412L-6.1893,13.0361L-6.2262,13.0377L-6.2614,13.0424L-6.2951,13.0502L-6.3271,13.0611L-6.3574,13.0751L-6.3892,13.0944L-6.4257,13.1210L-6.4667,13.1551L-6.5123,13.1965L-6.5625,13.2453L-6.6468,13.3265L-6.7292,13.3962L-6.8096,13.4545L-6.8880,13.5013L-6.9645,13.5365L-7.0998,13.5823L-7.2466,13.6179L-7.4050,13.6433L-7.5748,13.6586L-7.7561,13.6637L-8.0557,13.6474L-8.3280,13.5987L-8.5728,13.5175L-8.7903,13.4038L-8.9804,13.2576L-9.1391,13.0872L-9.2626,12.9006L-9.3507,12.6980L-9.4037,12.4793L-9.4213,12.2445L-9.4213,11.6990L-9.4116,11.5012L-9.3826,11.3145L-9.3342,11.1389L-9.2664,10.9745L-9.1793,10.8213L-9.0795,10.6818L-8.9739,10.5588L-8.8623,10.4521L-8.7449,10.3619L-8.6215,10.2881L-8.4927,10.2290L-8.3590,10.1831L-8.2204,10.1503L-8.0768,10.1306L-7.9283,10.1240L-7.8070,10.1285L-7.6858,10.1417L-7.5648,10.1639L-7.4440,10.1949L-7.3233,10.2348L-7.2081,10.2820L-7.1035,10.3352L-7.0096,10.3942L-6.9263,10.4592L-6.8537,10.5301L-6.8216,10.5709L-6.7940,10.6180L-6.7710,10.6713L-6.7526,10.7309L-6.7389,10.7967L-6.7170,10.8935L-6.6910,10.9771L-6.6606,11.0477L-6.6260,11.1051L-6.5871,11.1494L-6.5435,11.1834L-6.4946,11.2098L-6.4404,11.2287L-6.3810,11.2400L-6.3164,11.2437L-6.2453,11.2386L-6.1796,11.2231L-6.1193,11.1972L-6.0644,11.1611L-6.0149,11.1146L-5.9729,11.0559L-5.9401,10.9833L-5.9168,10.8968L-5.9027,10.7963L-5.8980,10.6818L-5.8980,9.9682L-5.9027,9.8538L-5.9168,9.7536L-5.9401,9.6674L-5.9729,9.5954L-6.0149,9.5375L-6.0644,9.4917L-6.1193,9.4561L-6.1796,9.4307L-6.2453,9.4154L-6.3164,9.4104L-6.3585,9.4125L-6.3994,9.4189L-6.4392,9.4295L-6.4778,9.4445L-6.5153,9.4637L-6.5517,9.4871L-6.5869,9.5149L-6.6209,9.5469L-6.6538,9.5831L-6.6855,9.6236L-6.7972,9.5583L-6.9123,9.4999L-7.0308,9.4487L-7.1528,9.4044L-7.2782,9.3673L-7.4073,9.3370L-7.5401,9.3135L-7.6766,9.2967L-7.8170,9.2866L-7.9611,9.2832L-8.2013,9.2955L-8.4363,9.3324L-8.6659,9.3939L-8.8904,9.4801L-9.1096,9.5908L-9.3167,9.7243L-9.5050,9.8786L-9.6744,10.0537L-9.8249,10.2497L-9.9565,10.4665L-10.0665,10.6973L-10.1521,10.9351L-10.2132,11.1799L-10.2499,11.4318L-10.2621,11.6908L-10.2621,12.2609ZM-9.8733,-14.0373L-9.8699,-13.9886L-9.8595,-13.9437L-9.8421,-13.9027L-9.8178,-13.8655L-9.7866,-13.8322L-9.7472,-13.8040L-9.6985,-13.7820L-9.6404,-13.7663L-9.5730,-13.7569L-9.4962,-13.7538L-7.7921,-13.7538L-7.7153,-13.7569L-7.6479,-13.7663L-7.5898,-13.7820L-7.5411,-13.8040L-7.5017,-13.8322L-7.4705,-13.8654L-7.4462,-13.9023L-7.4289,-13.9427L-7.4184,-13.9868L-7.4150,-14.0346L-7.4184,-14.0833L-7.4289,-14.1282L-7.4462,-14.1692L-7.4705,-14.2063L-7.5017,-14.2396L-7.5411,-14.2679L-7.5898,-14.2899L-7.6479,-14.3055L-7.7153,-14.3150L-7.7921,-14.3181L-8.5960,-14.3181L-8.5960,-15.1688L-8.4597,-15.2817L-8.3328,-15.3828L-8.2152,-15.4720L-8.1071,-15.5493L-8.0082,-15.6147L-7.9188,-15.6682L-7.8386,-15.7099L-7.7679,-15.7396L-7.7065,-15.7574L-7.6545,-15.7634L-7.6172,-15.7592L-7.5778,-15.7466L-7.5366,-15.7257L-7.4933,-15.6964L-7.4480,-15.6588L-7.4022,-15.6211L-7.3573,-15.5918L-7.3132,-15.5709L-7.2701,-15.5583L-7.2278,-15.5542L-7.1818,-15.5575L-7.1386,-15.5676L-7.0981,-15.5844L-7.0604,-15.6079L-7.0254,-15.6381L-6.9952,-15.6732L-6.9717,-15.7112L-6.9549,-15.7523L-6.9448,-15.7963L-6.9415,-15.8432L-6.9485,-15.9003L-6.9697,-15.9569L-7.0049,-16.0130L-7.0542,-16.0687L-7.1177,-16.1240L-7.2218,-16.1974L-7.3273,-16.2544L-7.4341,-16.2951L-7.5423,-16.3196L-7.6517,-16.3277L-7.7244,-16.3243L-7.7991,-16.3141L-7.8759,-16.2970L-7.9548,-16.2731L-8.0358,-16.2424L-8.1238,-16.2014L-8.2238,-16.1468L-8.3359,-16.0785L-8.4599,-15.9966L-8.5960,-15.9010L-8.5960,-16.2534L-9.3640,-16.2534L-9.4409,-16.2503L-9.5083,-16.2409L-9.5664,-16.2252L-9.6151,-16.2032L-9.6545,-16.1749L-9.6857,-16.1417L-9.7100,-16.1049L-9.7273,-16.0644L-9.7377,-16.0203L-9.7412,-15.9726L-9.7377,-15.9239L-9.7273,-15.8790L-9.7100,-15.8380L-9.6857,-15.8008L-9.6545,-15.7675L-9.6151,-15.7393L-9.5664,-15.7173L-9.5083,-15.7016L-9.4409,-15.6922L-9.3640,-15.6891L-9.1603,-15.6891L-9.1603,-14.3181L-9.4962,-14.3181L-9.5730,-14.3150L-9.6404,-14.3055L-9.6985,-14.2899L-9.7472,-14.2679L-9.7866,-14.2396L-9.8178,-14.2064L-9.8421,-14.1696L-9.8595,-14.1291L-9.8699,-14.0850L-9.8733,-14.0373ZM-9.7351,-4.3470L-9.7304,-4.2325L-9.7164,-4.1321L-9.6930,-4.0455L-9.6602,-3.9729L-9.6182,-3.9143L-9.5687,-3.8677L-9.5138,-3.8316L-9.4535,-3.8057L-9.3878,-3.7902L-9.3167,-3.7851L-9.2441,-3.7902L-9.1772,-3.8057L-9.1161,-3.8316L-9.0608,-3.8677L-9.0111,-3.9143L-8.9691,-3.9729L-8.9363,-4.0455L-8.9129,-4.1321L-8.8989,-4.2325L-8.8942,-4.3470L-8.8942,-5.1427L-7.9837,-5.1427L-7.9837,-1.8532L-8.5456,-1.8532L-8.6600,-1.8485L-8.7605,-1.8345L-8.8471,-1.8111L-8.9197,-1.7784L-8.9783,-1.7363L-9.0248,-1.6869L-9.0610,-1.6320L-9.0868,-1.5717L-9.1024,-1.5060L-9.1075,-1.4349L-9.1024,-1.3623L-9.0868,-1.2954L-9.0610,-1.2343L-9.0248,-1.1789L-8.9783,-1.1293L-8.9197,-1.0872L-8.8471,-1.0545L-8.7605,-1.0311L-8.6600,-1.0171L-8.5456,-1.0124L-6.5769,-1.0124L-6.4624,-1.0171L-6.3619,-1.0311L-6.2754,-1.0545L-6.2028,-1.0872L-6.1441,-1.1293L-6.0976,-1.1788L-6.0615,-1.2336L-6.0356,-1.2939L-6.0201,-1.3596L-6.0149,-1.4308L-6.0201,-1.5034L-6.0356,-1.5702L-6.0615,-1.6313L-6.0976,-1.6867L-6.1441,-1.7363L-6.2028,-1.7784L-6.2754,-1.8111L-6.3619,-1.8345L-6.4624,-1.8485L-6.5769,-1.8532L-7.1429,-1.8532L-7.1429,-5.1427L-6.2200,-5.1427L-6.2200,-4.3470L-6.2153,-4.2325L-6.2013,-4.1321L-6.1779,-4.0455L-6.1452,-3.9729L-6.1031,-3.9143L-6.0537,-3.8677L-5.9988,-3.8316L-5.9385,-3.8057L-5.8728,-3.7902L-5.8017,-3.7851L-5.7291,-3.7902L-5.6622,-3.8057L-5.6011,-3.8316L-5.5457,-3.8677L-5.4961,-3.9143L-5.4540,-3.9729L-5.4213,-4.0455L-5.3979,-4.1321L-5.3839,-4.2325L-5.3792,-4.3470L-5.3792,-5.9835L-9.7351,-5.9876L-9.7351,-4.3470ZM-6.6056,-14.9871L-6.5894,-14.7706L-6.5407,-14.5682L-6.4594,-14.3799L-6.3457,-14.2057L-6.1996,-14.0456L-6.0263,-13.9078L-5.8313,-13.8007L-5.6147,-13.7241L-5.3763,-13.6782L-5.1163,-13.6629L-4.9575,-13.6666L-4.7961,-13.6777L-4.6320,-13.6961L-4.4653,-13.7219L-4.2959,-13.7551L-4.1379,-13.7924L-4.0052,-13.8305L-3.8979,-13.8693L-3.8158,-13.9089L-3.7591,-13.9492L-3.7294,-13.9814L-3.7062,-14.0162L-3.6897,-14.0536L-3.6798,-14.0937L-3.6765,-14.1364L-3.6796,-14.1832L-3.6889,-14.2267L-3.7043,-14.2669L-3.7258,-14.3038L-3.7536,-14.3374L-3.7859,-14.3661L-3.8210,-14.3885L-3.8590,-14.4044L-3.8998,-14.4140L-3.9436,-14.4172L-3.9819,-14.4150L-4.0308,-14.4084L-4.0902,-14.3974L-4.1603,-14.3820L-4.2409,-14.3622L-4.4407,-14.3136L-4.6241,-14.2758L-4.7909,-14.2488L-4.9412,-14.2327L-5.0750,-14.2273L-5.2217,-14.2327L-5.3558,-14.2488L-5.4772,-14.2758L-5.5859,-14.3136L-5.6820,-14.3622L-5.7663,-14.4195L-5.8397,-14.4837L-5.9022,-14.5547L-5.9538,-14.6326L-5.9945,-14.7173L-3.6793,-14.7173L-3.6793,-14.9568L-3.6828,-15.0643L-3.6934,-15.1664L-3.7110,-15.2633L-3.7356,-15.3550L-3.7674,-15.4413L-3.8219,-15.5575L-3.8819,-15.6659L-3.9474,-15.7667L-4.0184,-15.8597L-4.0950,-15.9451L-4.1570,-16.0005L-4.2308,-16.0543L-4.3165,-16.1066L-4.4139,-16.1574L-4.5230,-16.2066L-4.6404,-16.2502L-4.7622,-16.2841L-4.8886,-16.3084L-5.0194,-16.3229L-5.1548,-16.3277L-5.3785,-16.3128L-5.5916,-16.2680L-5.7939,-16.1934L-5.9856,-16.0890L-6.1665,-15.9547L-6.3246,-15.7966L-6.4475,-15.6208L-6.5354,-15.4273L-6.5881,-15.2160L-6.6056,-14.9871ZM-5.9780,-15.2816L-5.9220,-15.3736L-5.8599,-15.4558L-5.7916,-15.5282L-5.7172,-15.5908L-5.6366,-15.6436L-5.5498,-15.6867L-5.4569,-15.7203L-5.3578,-15.7442L-5.2525,-15.7586L-5.1411,-15.7634L-5.0286,-15.7586L-4.9226,-15.7442L-4.8229,-15.7203L-4.7297,-15.6867L-4.6428,-15.6436L-4.5623,-15.5908L-4.4882,-15.5282L-4.4205,-15.4558L-4.3591,-15.3736L-4.3042,-15.2816L-5.9780,-15.2816ZM-5.1475,11.0469L-5.1428,11.1613L-5.1288,11.2618L-5.1054,11.3483L-5.0726,11.4209L-5.0306,11.4796L-4.9811,11.5261L-4.9262,11.5623L-4.8659,11.5881L-4.8002,11.6036L-4.7291,11.6088L-4.6565,11.6036L-4.5896,11.5881L-4.5285,11.5623L-4.4732,11.5261L-4.4235,11.4796L-4.3815,11.4209L-4.3487,11.3483L-4.3253,11.2618L-4.3113,11.1613L-4.3066,11.0469L-4.3066,10.2512L-3.3961,10.2512L-3.3961,13.5406L-3.9580,13.5406L-4.0724,13.5453L-4.1729,13.5593L-4.2595,13.5827L-4.3321,13.6154L-4.3907,13.6575L-4.4372,13.7070L-4.4734,13.7619L-4.4992,13.8222L-4.5148,13.8879L-4.5199,13.9590L-4.5148,14.0316L-4.4992,14.0984L-4.4734,14.1596L-4.4372,14.2149L-4.3907,14.2646L-4.3321,14.3066L-4.2595,14.3394L-4.1729,14.3627L-4.0724,14.3768L-3.9580,14.3814L-1.9893,14.3814L-1.8748,14.3768L-1.7743,14.3627L-1.6878,14.3394L-1.6152,14.3066L-1.5565,14.2646L-1.5100,14.2151L-1.4739,14.1602L-1.4480,14.0999L-1.4325,14.0342L-1.4273,13.9631L-1.4325,13.8905L-1.4480,13.8236L-1.4739,13.7625L-1.5100,13.7071L-1.5565,13.6575L-1.6152,13.6154L-1.6878,13.5827L-1.7743,13.5593L-1.8748,13.5453L-1.9893,13.5406L-2.5553,13.5406L-2.5553,10.2512L-1.6324,10.2512L-1.6324,11.0469L-1.6277,11.1613L-1.6137,11.2618L-1.5903,11.3483L-1.5576,11.4209L-1.5155,11.4796L-1.4661,11.5261L-1.4112,11.5623L-1.3509,11.5881L-1.2852,11.6036L-1.2141,11.6088L-1.1415,11.6036L-1.0746,11.5881L-1.0135,11.5623L-0.9581,11.5261L-0.9085,11.4796L-0.8664,11.4209L-0.8337,11.3483L-0.8103,11.2618L-0.7963,11.1613L-0.7916,11.0469L-0.7916,9.4104L-5.1475,9.4063L-5.1475,11.0469ZM-4.9116,-1.4349L-4.9065,-1.3623L-4.8909,-1.2954L-4.8651,-1.2343L-4.8289,-1.1789L-4.7824,-1.1293L-4.7238,-1.0872L-4.6512,-1.0545L-4.5646,-1.0311L-4.4641,-1.0171L-4.3497,-1.0124L-3.0741,-1.0124L-2.9597,-1.0171L-2.8592,-1.0311L-2.7727,-1.0545L-2.7001,-1.0872L-2.6414,-1.1293L-2.5949,-1.1788L-2.5587,-1.2336L-2.5329,-1.2939L-2.5174,-1.3596L-2.5122,-1.4308L-2.5174,-1.5034L-2.5329,-1.5702L-2.5587,-1.6313L-2.5949,-1.6867L-2.6414,-1.7363L-2.7001,-1.7784L-2.7727,-1.8111L-2.8592,-1.8345L-2.9597,-1.8485L-3.0741,-1.8532L-3.3776,-1.8532L-3.3776,-2.9114L-2.5450,-2.9114L-2.2620,-2.7331L-1.9511,-2.4540L-1.6123,-2.0742L-1.2456,-1.5937L-0.8511,-1.0124L-0.3712,-1.0124L-0.2568,-1.0171L-0.1566,-1.0311L-0.0705,-1.0545L0.0016,-1.0872L0.0595,-1.1293L0.1052,-1.1788L0.1408,-1.2336L0.1663,-1.2939L0.1815,-1.3596L0.1866,-1.4308L0.1792,-1.5185L0.1571,-1.5981L0.1202,-1.6695L0.0685,-1.7326L0.0021,-1.7876L-0.0477,-1.8112L-0.1148,-1.8296L-0.1993,-1.8427L-0.3011,-1.8506L-0.4204,-1.8532L-0.5431,-2.0412L-0.6553,-2.2083L-0.7571,-2.3543L-0.8483,-2.4793L-0.9290,-2.5833L-1.0489,-2.7241L-1.1659,-2.8543L-1.2799,-2.9741L-1.3910,-3.0834L-1.4991,-3.1821L-1.3231,-3.2851L-1.1657,-3.3938L-1.0271,-3.5082L-0.9072,-3.6284L-0.8060,-3.7543L-0.7233,-3.8860L-0.6590,-4.0234L-0.6130,-4.1665L-0.5855,-4.3154L-0.5763,-4.4700L-0.5959,-4.7150L-0.6547,-4.9448L-0.7527,-5.1593L-0.8900,-5.3586L-1.0664,-5.5426L-1.2785,-5.7013L-1.5225,-5.8248L-1.7985,-5.9129L-2.1066,-5.9659L-2.4466,-5.9835L-4.3497,-5.9876L-4.4641,-5.9829L-4.5646,-5.9689L-4.6512,-5.9455L-4.7238,-5.9128L-4.7824,-5.8707L-4.8289,-5.8211L-4.8651,-5.7657L-4.8909,-5.7046L-4.9065,-5.6377L-4.9116,-5.5651L-4.9065,-5.4925L-4.8909,-5.4257L-4.8651,-5.3646L-4.8289,-5.3092L-4.7824,-5.2596L-4.7238,-5.2175L-4.6512,-5.1848L-4.5646,-5.1614L-4.4641,-5.1474L-4.3497,-5.1427L-4.2185,-5.1427L-4.2185,-1.8532L-4.3497,-1.8532L-4.4627,-1.8485L-4.5623,-1.8345L-4.6485,-1.8111L-4.7211,-1.7784L-4.7804,-1.7363L-4.8276,-1.6869L-4.8644,-1.6320L-4.8906,-1.5717L-4.9064,-1.5060L-4.9116,-1.4349ZM-3.3776,-3.7522L-3.3776,-5.1427L-2.4138,-5.1427L-2.2279,-5.1346L-2.0607,-5.1102L-1.9122,-5.0696L-1.7825,-5.0127L-1.6714,-4.9396L-1.5798,-4.8570L-1.5086,-4.7716L-1.4578,-4.6835L-1.4273,-4.5925L-1.4171,-4.4987L-1.4224,-4.4346L-1.4384,-4.3701L-1.4651,-4.3053L-1.5024,-4.2402L-1.5504,-4.1747L-1.6138,-4.1097L-1.6974,-4.0461L-1.8012,-3.9837L-1.9251,-3.9227L-2.0692,-3.8630L-2.1872,-3.8231L-2.3114,-3.7921L-2.4418,-3.7700L-2.5785,-3.7567L-2.7214,-3.7522L-3.3776,-3.7522ZM-3.1590,-14.4337L-3.1476,-14.3190L-3.1136,-14.2084L-3.0569,-14.1019L-2.9775,-13.9994L-2.8754,-13.9010L-2.7552,-13.8143L-2.6213,-13.7469L-2.4737,-13.6987L-2.3125,-13.6698L-2.1376,-13.6602L-2.0521,-13.6624L-1.9628,-13.6692L-1.8697,-13.6805L-1.7729,-13.6963L-1.6724,-13.7166L-1.5718,-13.7414L-1.4746,-13.7708L-1.3810,-13.8046L-1.2910,-13.8430L-1.2044,-13.8859L-1.2044,-13.7538L-0.5437,-13.7538L-0.4669,-13.7569L-0.3994,-13.7663L-0.3414,-13.7820L-0.2926,-13.8040L-0.2533,-13.8322L-0.2220,-13.8654L-0.1978,-13.9023L-0.1804,-13.9427L-0.1700,-13.9868L-0.1666,-14.0346L-0.1700,-14.0833L-0.1804,-14.1282L-0.1978,-14.1692L-0.2220,-14.2063L-0.2533,-14.2396L-0.2926,-14.2679L-0.3414,-14.2899L-0.3994,-14.3055L-0.4669,-14.3150L-0.5437,-14.3181L-0.6401,-14.3181L-0.6401,-15.4798L-0.6517,-15.6306L-0.6865,-15.7681L-0.7446,-15.8923L-0.8259,-16.0031L-0.9305,-16.1006L-1.0561,-16.1824L-1.2005,-16.2460L-1.3637,-16.2914L-1.5458,-16.3186L-1.7467,-16.3277L-1.8189,-16.3264L-1.8943,-16.3222L-1.9730,-16.3153L-2.0551,-16.3057L-2.1404,-16.2933L-2.2271,-16.2786L-2.3131,-16.2620L-2.3984,-16.2436L-2.4831,-16.2233L-2.5671,-16.2011L-2.6256,-16.1840L-2.6754,-16.1678L-2.7167,-16.1527L-2.7494,-16.1385L-2.7736,-16.1254L-2.7925,-16.1119L-2.8097,-16.0968L-2.8251,-16.0800L-2.8388,-16.0615L-2.8506,-16.0414L-2.8606,-16.0197L-2.8683,-15.9965L-2.8738,-15.9717L-2.8771,-15.9454L-2.8782,-15.9175L-2.8750,-15.8687L-2.8656,-15.8235L-2.8499,-15.7819L-2.8280,-15.7440L-2.7997,-15.7097L-2.7670,-15.6805L-2.7314,-15.6577L-2.6932,-15.6415L-2.6522,-15.6317L-2.6084,-15.6285L-2.5727,-15.6299L-2.5317,-15.6342L-2.4855,-15.6414L-2.4340,-15.6514L-2.3771,-15.6643L-2.2234,-15.7000L-2.0816,-15.7277L-1.9516,-15.7475L-1.8336,-15.7594L-1.7275,-15.7634L-1.6131,-15.7602L-1.5145,-15.7506L-1.4316,-15.7346L-1.3645,-15.7123L-1.3131,-15.6835L-1.2740,-15.6497L-1.2435,-15.6122L-1.2218,-15.5709L-1.2088,-15.5259L-1.2044,-15.4771L-1.2044,-15.3422L-1.3356,-15.3620L-1.4603,-15.3774L-1.5787,-15.3884L-1.6907,-15.3950L-1.7963,-15.3972L-2.0407,-15.3851L-2.2630,-15.3486L-2.4631,-15.2877L-2.6411,-15.2026L-2.7970,-15.0930L-2.9273,-14.9693L-3.0286,-14.8415L-3.1010,-14.7097L-3.1445,-14.5737L-3.1590,-14.4337ZM-2.5754,-14.4447L-2.5692,-14.4887L-2.5507,-14.5324L-2.5199,-14.5759L-2.4767,-14.6192L-2.4212,-14.6622L-2.3182,-14.7227L-2.2076,-14.7697L-2.0892,-14.8033L-1.9631,-14.8234L-1.8293,-14.8301L-1.7127,-14.8275L-1.5919,-14.8196L-1.4669,-14.8064L-1.3377,-14.7879L-1.2044,-14.7641L-1.2044,-14.5218L-1.2870,-14.4691L-1.3742,-14.4210L-1.4659,-14.3775L-1.5621,-14.3386L-1.6628,-14.3043L-1.7636,-14.2756L-1.8601,-14.2532L-1.9523,-14.2373L-2.0402,-14.2277L-2.1239,-14.2245L-2.2156,-14.2281L-2.2992,-14.2390L-2.3746,-14.2572L-2.4419,-14.2826L-2.5010,-14.3154L-2.5278,-14.3364L-2.5486,-14.3598L-2.5635,-14.3857L-2.5724,-14.4140L-2.5754,-14.4447ZM-0.3240,13.9590L-0.3189,14.0316L-0.3034,14.0984L-0.2775,14.1596L-0.2413,14.2149L-0.1948,14.2646L-0.1362,14.3066L-0.0636,14.3394L0.0230,14.3627L0.1235,14.3768L0.2379,14.3814L1.5135,14.3814L1.6279,14.3768L1.7284,14.3627L1.8149,14.3394L1.8875,14.3066L1.9462,14.2646L1.9927,14.2151L2.0289,14.1602L2.0547,14.0999L2.0702,14.0342L2.0754,13.9631L2.0702,13.8905L2.0547,13.8236L2.0289,13.7625L1.9927,13.7071L1.9462,13.6575L1.8875,13.6154L1.8149,13.5827L1.7284,13.5593L1.6279,13.5453L1.5135,13.5406L1.2100,13.5406L1.2100,12.4824L2.0426,12.4824L2.3256,12.6608L2.6365,12.9398L2.9753,13.3196L3.3420,13.8002L3.7365,14.3814L4.2164,14.3814L4.3308,14.3768L4.4310,14.3627L4.5171,14.3394L4.5892,14.3066L4.6471,14.2646L4.6928,14.2151L4.7284,14.1602L4.7539,14.0999L4.7691,14.0342L4.7742,13.9631L4.7668,13.8753L4.7447,13.7957L4.7078,13.7244L4.6561,13.6612L4.5896,13.6062L4.5399,13.5826L4.4728,13.5642L4.3883,13.5511L4.2865,13.5432L4.1672,13.5406L4.0445,13.3526L3.9322,13.1856L3.8305,13.0396L3.7393,12.9146L3.6586,12.8105L3.5387,12.6698L3.4217,12.5395L3.3077,12.4197L3.1966,12.3105L3.0885,12.2117L3.2645,12.1088L3.4219,12.0001L3.5605,11.8856L3.6804,11.7655L3.7816,11.6396L3.8643,11.5079L3.9286,11.3705L3.9746,11.2273L4.0021,11.0785L4.0113,10.9238L3.9917,10.6788L3.9329,10.4490L3.8349,10.2345L3.6976,10.0353L3.5212,9.8513L3.3091,9.6925L3.0651,9.5691L2.7891,9.4809L2.4810,9.4280L2.1410,9.4104L0.2379,9.4063L0.1235,9.4109L0.0230,9.4250L-0.0636,9.4483L-0.1362,9.4811L-0.1948,9.5231L-0.2413,9.5728L-0.2775,9.6281L-0.3034,9.6893L-0.3189,9.7561L-0.3240,9.8287L-0.3189,9.9013L-0.3034,9.9682L-0.2775,10.0293L-0.2413,10.0846L-0.1948,10.1343L-0.1362,10.1764L-0.0636,10.2091L0.0230,10.2325L0.1235,10.2465L0.2379,10.2512L0.3691,10.2512L0.3691,13.5406L0.2379,13.5406L0.1249,13.5453L0.0253,13.5593L-0.0609,13.5827L-0.1335,13.6154L-0.1928,13.6575L-0.2400,13.7070L-0.2768,13.7619L-0.3030,13.8222L-0.3188,13.8879L-0.3240,13.9590ZM1.2100,11.6416L1.2100,10.2512L2.1738,10.2512L2.3597,10.2593L2.5269,10.2837L2.6754,10.3243L2.8051,10.3811L2.9162,10.4542L3.0078,10.5368L3.0790,10.6222L3.1298,10.7104L3.1603,10.8014L3.1705,10.8951L3.1652,10.9593L3.1492,11.0237L3.1225,11.0885L3.0852,11.1537L3.0372,11.2191L2.9738,11.2841L2.8902,11.3478L2.7864,11.4101L2.6625,11.4711L2.5184,11.5309L2.4004,11.5707L2.2762,11.6017L2.1458,11.6239L2.0091,11.6372L1.8662,11.6416L1.2100,11.6416ZM0.2892,-1.4349L0.2943,-1.3623L0.3098,-1.2954L0.3357,-1.2343L0.3718,-1.1789L0.4184,-1.1293L0.4770,-1.0872L0.5496,-1.0545L0.6362,-1.0311L0.7366,-1.0171L0.8511,-1.0124L4.8337,-1.0124L4.8337,-2.6489L4.8290,-2.7634L4.8150,-2.8638L4.7916,-2.9504L4.7589,-3.0230L4.7168,-3.0816L4.6673,-3.1282L4.6125,-3.1643L4.5522,-3.1902L4.4865,-3.2057L4.4153,-3.2108L4.3427,-3.2057L4.2759,-3.1902L4.2148,-3.1643L4.1594,-3.1282L4.1098,-3.0816L4.0677,-3.0230L4.0350,-2.9504L4.0116,-2.8638L3.9975,-2.7634L3.9929,-2.6489L3.9929,-1.8532L2.1800,-1.8532L2.1800,-5.1427L2.6722,-5.1427L2.7866,-5.1474L2.8871,-5.1614L2.9736,-5.1848L3.0462,-5.2175L3.1049,-5.2596L3.1514,-5.3092L3.1876,-5.3646L3.2134,-5.4257L3.2289,-5.4925L3.2341,-5.5651L3.2289,-5.6377L3.2134,-5.7043L3.1876,-5.7650L3.1514,-5.8198L3.1049,-5.8687L3.0462,-5.9100L2.9736,-5.9422L2.8871,-5.9651L2.7866,-5.9789L2.6722,-5.9835L0.8511,-5.9876L0.7366,-5.9829L0.6362,-5.9689L0.5496,-5.9455L0.4770,-5.9128L0.4184,-5.8707L0.3718,-5.8211L0.3357,-5.7657L0.3098,-5.7046L0.2943,-5.6377L0.2892,-5.5651L0.2943,-5.4925L0.3098,-5.4257L0.3357,-5.3646L0.3718,-5.3092L0.4184,-5.2596L0.4770,-5.2175L0.5496,-5.1848L0.6362,-5.1614L0.7366,-5.1474L0.8511,-5.1427L1.3392,-5.1427L1.3392,-1.8532L0.8511,-1.8532L0.7366,-1.8485L0.6362,-1.8345L0.5496,-1.8111L0.4770,-1.7784L0.4184,-1.7363L0.3718,-1.6869L0.3357,-1.6320L0.3098,-1.5717L0.2943,-1.5060L0.2892,-1.4349ZM0.3868,-15.9726L0.3902,-15.9239L0.4007,-15.8790L0.4180,-15.8380L0.4423,-15.8008L0.4735,-15.7675L0.5129,-15.7393L0.5616,-15.7173L0.6197,-15.7016L0.6871,-15.6922L0.7639,-15.6891L0.9677,-15.6891L0.9677,-14.4475L0.9782,-14.3195L1.0097,-14.1997L1.0623,-14.0882L1.1359,-13.9850L1.2306,-13.8900L1.3462,-13.8083L1.4829,-13.7447L1.6407,-13.6993L1.8195,-13.6720L2.0193,-13.6629L2.1333,-13.6673L2.2573,-13.6803L2.3914,-13.7021L2.5355,-13.7325L2.6896,-13.7717L2.8382,-13.8160L2.9658,-13.8619L3.0723,-13.9096L3.1578,-13.9588L3.2223,-14.0098L3.2540,-14.0429L3.2787,-14.0785L3.2963,-14.1165L3.3069,-14.1569L3.3104,-14.1997L3.3071,-14.2456L3.2974,-14.2887L3.2811,-14.3289L3.2584,-14.3662L3.2292,-14.4007L3.1955,-14.4304L3.1596,-14.4536L3.1213,-14.4701L3.0807,-14.4800L3.0378,-14.4833L3.0035,-14.4804L2.9643,-14.4718L2.9202,-14.4575L2.8713,-14.4375L2.8176,-14.4117L2.6685,-14.3453L2.5141,-14.2937L2.3545,-14.2568L2.1895,-14.2346L2.0193,-14.2273L1.9076,-14.2309L1.8105,-14.2418L1.7279,-14.2600L1.6598,-14.2854L1.6063,-14.3181L1.5796,-14.3462L1.5588,-14.3842L1.5439,-14.4321L1.5350,-14.4899L1.5320,-14.5576L1.5320,-15.6891L2.5754,-15.6891L2.6522,-15.6922L2.7196,-15.7016L2.7777,-15.7173L2.8264,-15.7393L2.8658,-15.7675L2.8970,-15.8007L2.9213,-15.8375L2.9386,-15.8780L2.9490,-15.9221L2.9525,-15.9699L2.9490,-16.0186L2.9386,-16.0635L2.9213,-16.1045L2.8970,-16.1416L2.8658,-16.1749L2.8264,-16.2032L2.7777,-16.2252L2.7196,-16.2409L2.6522,-16.2503L2.5754,-16.2534L1.5320,-16.2534L1.5320,-16.7627L1.5289,-16.8395L1.5194,-16.9069L1.5038,-16.9650L1.4818,-17.0138L1.4535,-17.0531L1.4203,-17.0843L1.3835,-17.1086L1.3430,-17.1260L1.2989,-17.1364L1.2512,-17.1398L1.2025,-17.1364L1.1576,-17.1260L1.1166,-17.1086L1.0794,-17.0843L1.0461,-17.0531L1.0179,-17.0138L0.9959,-16.9650L0.9802,-16.9069L0.9708,-16.8395L0.9677,-16.7627L0.9677,-16.2534L0.7639,-16.2534L0.6871,-16.2503L0.6197,-16.2409L0.5616,-16.2252L0.5129,-16.2032L0.4735,-16.1749L0.4423,-16.1417L0.4180,-16.1049L0.4007,-16.0644L0.3902,-16.0203L0.3868,-15.9726ZM3.5994,-14.9623L3.6068,-14.8301L3.6289,-14.7002L3.6658,-14.5725L3.7175,-14.4469L3.7839,-14.3236L3.8644,-14.2065L3.9583,-14.0996L4.0657,-14.0030L4.1865,-13.9166L4.3207,-13.8405L4.4630,-13.7766L4.6079,-13.7268L4.7554,-13.6913L4.9056,-13.6700L5.0585,-13.6629L5.2125,-13.6701L5.3639,-13.6918L5.5129,-13.7278L5.6593,-13.7783L5.8031,-13.8432L5.9387,-13.9203L6.0602,-14.0073L6.1675,-14.1042L6.2608,-14.2110L6.3400,-14.3277L6.4049,-14.4502L6.4554,-14.5744L6.4914,-14.7002L6.5131,-14.8277L6.5203,-14.9568L6.5130,-15.0926L6.4912,-15.2270L6.4549,-15.3600L6.4040,-15.4915L6.3386,-15.6216L6.2589,-15.7457L6.1653,-15.8592L6.0576,-15.9622L5.9360,-16.0546L5.8004,-16.1364L5.6566,-16.2053L5.5106,-16.2589L5.3622,-16.2971L5.2115,-16.3201L5.0585,-16.3277L4.9067,-16.3202L4.7574,-16.2978L4.6107,-16.2603L4.4665,-16.2079L4.3248,-16.1405L4.1910,-16.0601L4.0702,-15.9685L3.9626,-15.8659L3.8681,-15.7520L3.7866,-15.6271L3.7192,-15.4961L3.6668,-15.3642L3.6294,-15.2312L3.6069,-15.0972L3.5994,-14.9623ZM4.1638,-14.9513L4.1740,-15.0770L4.2047,-15.1966L4.2560,-15.3100L4.3276,-15.4173L4.4198,-15.5184L4.5273,-15.6066L4.6449,-15.6752L4.7726,-15.7242L4.9105,-15.7536L5.0585,-15.7634L5.2258,-15.7510L5.3796,-15.7141L5.5200,-15.6524L5.6469,-15.5661L5.7605,-15.4551L5.8308,-15.3619L5.8856,-15.2652L5.9247,-15.1650L5.9481,-15.0613L5.9559,-14.9540L5.9456,-14.8487L5.9145,-14.7463L5.8628,-14.6470L5.7903,-14.5506L5.6972,-14.4571L5.5888,-14.3744L5.4708,-14.3100L5.3430,-14.2640L5.2056,-14.2365L5.0585,-14.2273L4.9124,-14.2365L4.7757,-14.2640L4.6485,-14.3100L4.5308,-14.3744L4.4226,-14.4571L4.3294,-14.5505L4.2569,-14.6465L4.2052,-14.7454L4.1741,-14.8469L4.1638,-14.9513ZM4.8768,13.9590L4.8819,14.0316L4.8974,14.0984L4.9233,14.1596L4.9594,14.2149L5.0060,14.2646L5.0646,14.3066L5.1372,14.3394L5.2237,14.3627L5.3242,14.3768L5.4387,14.3814L9.4213,14.3814L9.4213,12.7449L9.4166,12.6305L9.4026,12.5300L9.3792,12.4435L9.3465,12.3709L9.3044,12.3122L9.2549,12.2657L9.2001,12.2295L9.1398,12.2037L9.0741,12.1882L9.0029,12.1830L8.9303,12.1882L8.8635,12.2037L8.8024,12.2295L8.7470,12.2657L8.6974,12.3122L8.6553,12.3709L8.6226,12.4435L8.5992,12.5300L8.5851,12.6305L8.5805,12.7449L8.5805,13.5406L6.7676,13.5406L6.7676,10.2512L7.2598,10.2512L7.3742,10.2465L7.4747,10.2325L7.5612,10.2091L7.6338,10.1764L7.6925,10.1343L7.7390,10.0846L7.7752,10.0293L7.8010,9.9682L7.8165,9.9013L7.8217,9.8287L7.8165,9.7562L7.8010,9.6896L7.7752,9.6289L7.7390,9.5741L7.6925,9.5252L7.6338,9.4839L7.5612,9.4517L7.4747,9.4287L7.3742,9.4149L7.2598,9.4104L5.4387,9.4063L5.3242,9.4109L5.2237,9.4250L5.1372,9.4483L5.0646,9.4811L5.0060,9.5231L4.9594,9.5728L4.9233,9.6281L4.8974,9.6893L4.8819,9.7561L4.8768,9.8287L4.8819,9.9013L4.8974,9.9682L4.9233,10.0293L4.9594,10.0846L5.0060,10.1343L5.0646,10.1764L5.1372,10.2091L5.2237,10.2325L5.3242,10.2465L5.4387,10.2512L5.9268,10.2512L5.9268,13.5406L5.4387,13.5406L5.3242,13.5453L5.2237,13.5593L5.1372,13.5827L5.0646,13.6154L5.0060,13.6575L4.9594,13.7070L4.9233,13.7619L4.8974,13.8222L4.8819,13.8879L4.8768,13.9590ZM5.3874,-3.4036L5.3926,-3.3310L5.4081,-3.2642L5.4339,-3.2030L5.4701,-3.1477L5.5166,-3.0980L5.5753,-3.0560L5.6479,-3.0232L5.7344,-2.9999L5.8349,-2.9858L5.9493,-2.9812L7.1511,-2.9812L7.1511,-1.5743L7.1557,-1.4599L7.1698,-1.3594L7.1932,-1.2729L7.2259,-1.2003L7.2680,-1.1416L7.3176,-1.0951L7.3730,-1.0589L7.4341,-1.0331L7.5009,-1.0176L7.5735,-1.0124L7.6461,-1.0176L7.7127,-1.0331L7.7734,-1.0589L7.8282,-1.0951L7.8771,-1.1416L7.9184,-1.2003L7.9506,-1.2729L7.9735,-1.3594L7.9873,-1.4599L7.9919,-1.5743L7.9919,-2.9812L9.1937,-2.9812L9.3081,-2.9858L9.4086,-2.9999L9.4951,-3.0232L9.5677,-3.0560L9.6264,-3.0980L9.6729,-3.1477L9.7091,-3.2030L9.7349,-3.2642L9.7504,-3.3310L9.7556,-3.4036L9.7504,-3.4761L9.7349,-3.5427L9.7091,-3.6034L9.6729,-3.6582L9.6264,-3.7071L9.5677,-3.7485L9.4951,-3.7806L9.4086,-3.8036L9.3081,-3.8174L9.1937,-3.8220L7.9919,-3.8220L7.9960,-5.2247L7.9913,-5.3391L7.9773,-5.4396L7.9539,-5.5262L7.9212,-5.5988L7.8791,-5.6574L7.8295,-5.7039L7.7741,-5.7401L7.7130,-5.7659L7.6461,-5.7815L7.5735,-5.7866L7.5009,-5.7814L7.4341,-5.7656L7.3730,-5.7394L7.3176,-5.7026L7.2680,-5.6554L7.2259,-5.5961L7.1932,-5.5235L7.1698,-5.4373L7.1557,-5.3377L7.1511,-5.2247L7.1511,-3.8220L5.9493,-3.8220L5.8349,-3.8188L5.7344,-3.8059L5.6479,-3.7833L5.5753,-3.7511L5.5166,-3.7092L5.4701,-3.6596L5.4339,-3.6042L5.4081,-3.5431L5.3926,-3.4762L5.3874,-3.4036ZM9.9750,11.9902L9.9802,12.0628L9.9957,12.1297L10.0215,12.1908L10.0577,12.2462L10.1042,12.2958L10.1629,12.3379L10.2354,12.3706L10.3220,12.3940L10.4225,12.4080L10.5369,12.4127L11.7387,12.4127L11.7387,13.8195L11.7433,13.9340L11.7574,14.0345L11.7808,14.1210L11.8135,14.1936L11.8556,14.2522L11.9052,14.2988L11.9606,14.3349L12.0217,14.3608L12.0885,14.3763L12.1611,14.3814L12.2336,14.3763L12.3003,14.3608L12.3610,14.3349L12.4158,14.2988L12.4646,14.2522L12.5060,14.1936L12.5381,14.1210L12.5611,14.0345L12.5749,13.9340L12.5795,13.8195L12.5795,12.4127L13.7813,12.4127L13.8957,12.4080L13.9962,12.3940L14.0827,12.3706L14.1553,12.3379L14.2140,12.2958L14.2605,12.2462L14.2967,12.1908L14.3225,12.1297L14.3380,12.0628L14.3432,11.9902L14.3380,11.9177L14.3225,11.8511L14.2967,11.7904L14.2605,11.7356L14.2140,11.6867L14.1553,11.6454L14.0827,11.6132L13.9962,11.5902L13.8957,11.5765L13.7813,11.5719L12.5795,11.5719L12.5836,10.1691L12.5789,10.0547L12.5649,9.9542L12.5415,9.8677L12.5088,9.7951L12.4667,9.7364L12.4171,9.6899L12.3617,9.6537L12.3006,9.6279L12.2337,9.6124L12.1611,9.6072L12.0885,9.6125L12.0217,9.6282L11.9606,9.6545L11.9052,9.6912L11.8556,9.7385L11.8135,9.7977L11.7808,9.8704L11.7574,9.9565L11.7433,10.0561L11.7387,10.1691L11.7387,11.5719L10.5369,11.5719L10.4225,11.5751L10.3220,11.5880L10.2354,11.6105L10.1629,11.6427L10.1042,11.6847L10.0577,11.7343L10.0215,11.7897L9.9957,11.8508L9.9802,11.9176L9.9750,11.9902ZM10.3544,-3.1329L10.3680,-2.8857L10.4089,-2.6463L10.4769,-2.4146L10.5723,-2.1905L10.6948,-1.9742L10.8367,-1.7732L10.9901,-1.5949L11.1550,-1.4395L11.3314,-1.3068L11.5192,-1.1970L11.7647,-1.0862L12.0219,-1.0001L12.2910,-0.9386L12.5719,-0.9017L12.8646,-0.8894L13.1161,-0.8982L13.3587,-0.9248L13.5925,-0.9691L13.8174,-1.0311L14.0335,-1.1108L14.1853,-1.1814L14.3255,-1.2618L14.4543,-1.3520L14.5716,-1.4521L14.6774,-1.5620L14.7395,-1.6398L14.7877,-1.7156L14.8221,-1.7894L14.8428,-1.8613L14.8497,-1.9312L14.8446,-1.9983L14.8294,-2.0617L14.8039,-2.1216L14.7683,-2.1779L14.7226,-2.2306L14.6701,-2.2763L14.6143,-2.3119L14.5552,-2.3374L14.4929,-2.3526L14.4272,-2.3577L14.3903,-2.3562L14.3551,-2.3515L14.3214,-2.3437L14.2894,-2.3328L14.2591,-2.3187L14.2273,-2.2995L14.1908,-2.2728L14.1498,-2.2388L14.1042,-2.1973L14.0540,-2.1485L13.9697,-2.0673L13.8873,-1.9976L13.8069,-1.9394L13.7285,-1.8926L13.6521,-1.8573L13.5167,-1.8116L13.3699,-1.7759L13.2115,-1.7505L13.0417,-1.7353L12.8604,-1.7302L12.5608,-1.7464L12.2885,-1.7951L12.0437,-1.8764L11.8262,-1.9901L11.6361,-2.1362L11.4774,-2.3067L11.3539,-2.4932L11.2658,-2.6958L11.2129,-2.9145L11.1952,-3.1493L11.1952,-3.6948L11.2049,-3.8927L11.2339,-4.0794L11.2823,-4.2549L11.3501,-4.4193L11.4372,-4.5726L11.5370,-4.7120L11.6426,-4.8351L11.7542,-4.9417L11.8716,-5.0319L11.9950,-5.1058L12.1238,-5.1648L12.2575,-5.2108L12.3962,-5.2436L12.5397,-5.2633L12.6882,-5.2698L12.8095,-5.2654L12.9307,-5.2521L13.0517,-5.2300L13.1725,-5.1989L13.2932,-5.1591L13.4084,-5.1118L13.5130,-5.0587L13.6069,-4.9996L13.6902,-4.9346L13.7628,-4.8638L13.7949,-4.8229L13.8225,-4.7758L13.8455,-4.7225L13.8639,-4.6630L13.8776,-4.5972L13.8995,-4.5004L13.9255,-4.4167L13.9559,-4.3462L13.9905,-4.2887L14.0294,-4.2444L14.0730,-4.2105L14.1219,-4.1841L14.1761,-4.1652L14.2355,-4.1539L14.3001,-4.1501L14.3712,-4.1553L14.4369,-4.1708L14.4972,-4.1966L14.5521,-4.2328L14.6016,-4.2793L14.6436,-4.3379L14.6764,-4.4105L14.6998,-4.4971L14.7138,-4.5976L14.7185,-4.7120L14.7185,-5.4257L14.7138,-5.5400L14.6998,-5.6403L14.6764,-5.7264L14.6436,-5.7984L14.6016,-5.8563L14.5521,-5.9021L14.4972,-5.9377L14.4369,-5.9632L14.3712,-5.9784L14.3001,-5.9835L14.2580,-5.9814L14.2171,-5.9750L14.1773,-5.9643L14.1387,-5.9494L14.1012,-5.9302L14.0648,-5.9067L14.0296,-5.8790L13.9956,-5.8470L13.9627,-5.8107L13.9310,-5.7702L13.8193,-5.8356L13.7042,-5.8939L13.5857,-5.9452L13.4637,-5.9894L13.3383,-6.0266L13.2092,-6.0568L13.0764,-6.0804L12.9399,-6.0972L12.7995,-6.1073L12.6554,-6.1106L12.4152,-6.0983L12.1802,-6.0614L11.9506,-5.9999L11.7261,-5.9138L11.5069,-5.8030L11.2998,-5.6696L11.1115,-5.5153L10.9421,-5.3401L10.7916,-5.1442L10.6600,-4.9273L10.5500,-4.6966L10.4644,-4.4588L10.4033,-4.2139L10.3666,-3.9620L10.3544,-3.7030L10.3544,-3.1329ZM10.4432,-14.9348L10.4630,-14.6912L10.5225,-14.4692L10.6216,-14.2688L10.7603,-14.0899L10.9387,-13.9327L11.0968,-13.8346L11.2783,-13.7583L11.4831,-13.7038L11.7113,-13.6711L11.9628,-13.6602L12.2416,-13.6702L12.4922,-13.7002L12.7147,-13.7503L12.9089,-13.8205L13.0750,-13.9107L13.1671,-13.9786L13.2388,-14.0481L13.2900,-14.1191L13.3208,-14.1917L13.3310,-14.2658L13.3276,-14.3108L13.3176,-14.3535L13.3008,-14.3936L13.2773,-14.4314L13.2470,-14.4668L13.2122,-14.4975L13.1748,-14.5214L13.1349,-14.5384L13.0924,-14.5487L13.0474,-14.5521L13.0080,-14.5479L12.9668,-14.5351L12.9239,-14.5139L12.8792,-14.4843L12.8327,-14.4461L12.7848,-14.4062L12.7358,-14.3712L12.6857,-14.3412L12.6345,-14.3162L12.5822,-14.2961L12.4878,-14.2703L12.3831,-14.2503L12.2680,-14.2360L12.1426,-14.2274L12.0068,-14.2245L11.8043,-14.2322L11.6263,-14.2551L11.4727,-14.2934L11.3435,-14.3470L11.2388,-14.4158L11.1555,-14.4979L11.0908,-14.5911L11.0445,-14.6955L11.0168,-14.8109L11.0075,-14.9375L11.0172,-15.0757L11.0461,-15.2040L11.0943,-15.3224L11.1617,-15.4308L11.2484,-15.5294L11.3511,-15.6136L11.4664,-15.6791L11.5945,-15.7259L11.7351,-15.7540L11.8885,-15.7634L12.0223,-15.7581L12.1461,-15.7422L12.2601,-15.7158L12.3642,-15.6788L12.4583,-15.6312L12.5052,-15.5984L12.5447,-15.5592L12.5766,-15.5138L12.6010,-15.4621L12.6180,-15.4041L12.6322,-15.3471L12.6484,-15.2984L12.6665,-15.2579L12.6867,-15.2257L12.7088,-15.2018L12.7422,-15.1780L12.7784,-15.1595L12.8175,-15.1463L12.8595,-15.1384L12.9043,-15.1357L12.9530,-15.1391L12.9979,-15.1494L13.0389,-15.1664L13.0761,-15.1903L13.1094,-15.2211L13.1376,-15.2599L13.1596,-15.3083L13.1753,-15.3661L13.1847,-15.4334L13.1878,-15.5101L13.1878,-15.8735L13.1847,-15.9493L13.1753,-16.0160L13.1596,-16.0735L13.1376,-16.1219L13.1094,-16.1612L13.0763,-16.1924L13.0398,-16.2167L12.9999,-16.2340L12.9565,-16.2444L12.9098,-16.2479L12.8671,-16.2440L12.8248,-16.2325L12.7829,-16.2132L12.7415,-16.1862L12.7006,-16.1515L12.6311,-16.1850L12.5592,-16.2150L12.4849,-16.2414L12.4081,-16.2643L12.3289,-16.2837L12.2472,-16.2995L12.1629,-16.3119L12.0759,-16.3207L11.9862,-16.3260L11.8940,-16.3277L11.6450,-16.3119L11.4156,-16.2645L11.2059,-16.1855L11.0157,-16.0749L10.8451,-15.9327L10.7004,-15.7664L10.5879,-15.5834L10.5075,-15.3838L10.4593,-15.1676L10.4432,-14.9348ZM13.7494,-14.9623L13.7568,-14.8301L13.7789,-14.7002L13.8158,-14.5725L13.8675,-14.4469L13.9339,-14.3236L14.0144,-14.2065L14.1083,-14.0996L14.2157,-14.0030L14.3365,-13.9166L14.4707,-13.8405L14.6130,-13.7766L14.7579,-13.7268L14.9054,-13.6913L15.0556,-13.6700L15.2085,-13.6629L15.3625,-13.6701L15.5139,-13.6918L15.6629,-13.7278L15.8093,-13.7783L15.9531,-13.8432L16.0887,-13.9203L16.2102,-14.0073L16.3175,-14.1042L16.4108,-14.2110L16.4900,-14.3277L16.5549,-14.4502L16.6054,-14.5744L16.6414,-14.7002L16.6631,-14.8277L16.6703,-14.9568L16.6630,-15.0926L16.6412,-15.2270L16.6049,-15.3600L16.5540,-15.4915L16.4886,-15.6216L16.4089,-15.7457L16.3153,-15.8592L16.2076,-15.9622L16.0860,-16.0546L15.9504,-16.1364L15.8066,-16.2053L15.6606,-16.2589L15.5122,-16.2971L15.3615,-16.3201L15.2085,-16.3277L15.0567,-16.3202L14.9074,-16.2978L14.7607,-16.2603L14.6165,-16.2079L14.4748,-16.1405L14.3410,-16.0601L14.2202,-15.9685L14.1126,-15.8659L14.0181,-15.7520L13.9366,-15.6271L13.8692,-15.4961L13.8168,-15.3642L13.7794,-15.2312L13.7569,-15.0972L13.7494,-14.9623ZM14.3138,-14.9513L14.3240,-15.0770L14.3547,-15.1966L14.4060,-15.3100L14.4776,-15.4173L14.5698,-15.5184L14.6773,-15.6066L14.7949,-15.6752L14.9226,-15.7242L15.0605,-15.7536L15.2085,-15.7634L15.3758,-15.7510L15.5296,-15.7141L15.6700,-15.6524L15.7969,-15.5661L15.9105,-15.4551L15.9808,-15.3619L16.0356,-15.2652L16.0747,-15.1650L16.0981,-15.0613L16.1059,-14.9540L16.0956,-14.8487L16.0645,-14.7463L16.0128,-14.6470L15.9403,-14.5506L15.8472,-14.4571L15.7388,-14.3744L15.6208,-14.3100L15.4930,-14.2640L15.3556,-14.2365L15.2085,-14.2273L15.0624,-14.2365L14.9257,-14.2640L14.7985,-14.3100L14.6808,-14.3744L14.5726,-14.4571L14.4794,-14.5505L14.4069,-14.6465L14.3552,-14.7454L14.3241,-14.8469L14.3138,-14.9513ZM14.4867,9.8287L14.4946,9.9165L14.5182,9.9961L14.5576,10.0674L14.6127,10.1306L14.6836,10.1855L14.7294,10.2092L14.7912,10.2275L14.8691,10.2407L14.9632,10.2485L15.0732,10.2512L16.7959,14.3814L17.6039,14.3814L19.3307,10.2512L19.4393,10.2485L19.5321,10.2407L19.6092,10.2275L19.6706,10.2092L19.7162,10.1855L19.7871,10.1293L19.8422,10.0655L19.8816,9.9941L19.9052,9.9152L19.9131,9.8287L19.9079,9.7562L19.8924,9.6896L19.8666,9.6289L19.8304,9.5741L19.7839,9.5252L19.7252,9.4839L19.6526,9.4517L19.5661,9.4287L19.4656,9.4149L19.3512,9.4104L18.2232,9.4063L18.1088,9.4109L18.0083,9.4250L17.9218,9.4483L17.8492,9.4811L17.7905,9.5231L17.7440,9.5728L17.7078,9.6281L17.6820,9.6893L17.6665,9.7561L17.6613,9.8287L17.6665,9.9013L17.6820,9.9682L17.7078,10.0293L17.7440,10.0846L17.7905,10.1343L17.8492,10.1764L17.9218,10.2091L18.0083,10.2325L18.1088,10.2465L18.2232,10.2512L18.4160,10.2512L17.1979,13.1551L15.9879,10.2512L16.1848,10.2512L16.2991,10.2465L16.3994,10.2325L16.4855,10.2091L16.5575,10.1764L16.6154,10.1343L16.6612,10.0846L16.6968,10.0293L16.7222,9.9682L16.7375,9.9013L16.7426,9.8287L16.7374,9.7562L16.7219,9.6896L16.6961,9.6289L16.6599,9.5741L16.6134,9.5252L16.5549,9.4839L16.4828,9.4517L16.3971,9.4287L16.2977,9.4149L16.1848,9.4104L15.0486,9.4063L14.9342,9.4109L14.8337,9.4250L14.7472,9.4483L14.6746,9.4811L14.6159,9.5231L14.5694,9.5728L14.5332,9.6281L14.5074,9.6893L14.4919,9.7561L14.4867,9.8287ZM17.0364,-14.0373L17.0399,-13.9886L17.0503,-13.9437L17.0676,-13.9027L17.0919,-13.8655L17.1231,-13.8322L17.1625,-13.8040L17.2112,-13.7820L17.2693,-13.7663L17.3368,-13.7569L17.4136,-13.7538L18.0550,-13.7538L18.1318,-13.7569L18.1993,-13.7663L18.2573,-13.7820L18.3061,-13.8040L18.3454,-13.8322L18.3766,-13.8654L18.4009,-13.9023L18.4183,-13.9427L18.4287,-13.9868L18.4321,-14.0346L18.4268,-14.0953L18.4106,-14.1500L18.3836,-14.1984L18.3458,-14.2407L18.2973,-14.2768L18.2658,-14.2917L18.2219,-14.3032L18.1658,-14.3115L18.0973,-14.3164L18.0165,-14.3181L18.0165,-15.3670L18.1036,-15.4582L18.1845,-15.5359L18.2591,-15.6000L18.3274,-15.6506L18.3895,-15.6877L18.4503,-15.7149L18.5150,-15.7361L18.5836,-15.7513L18.6560,-15.7604L18.7322,-15.7634L18.8305,-15.7590L18.9185,-15.7458L18.9962,-15.7237L19.0634,-15.6929L19.1204,-15.6533L19.1561,-15.6152L19.1838,-15.5691L19.2036,-15.5152L19.2155,-15.4533L19.2195,-15.3835L19.2195,-14.3181L19.1517,-14.3150L19.0913,-14.3055L19.0384,-14.2899L18.9931,-14.2679L18.9552,-14.2396L18.9245,-14.2064L18.9006,-14.1696L18.8835,-14.1291L18.8733,-14.0850L18.8699,-14.0373L18.8733,-13.9886L18.8837,-13.9437L18.9011,-13.9027L18.9254,-13.8655L18.9566,-13.8322L18.9959,-13.8040L19.0447,-13.7820L19.1028,-13.7663L19.1702,-13.7569L19.2470,-13.7538L19.7563,-13.7538L19.8331,-13.7569L19.9006,-13.7663L19.9586,-13.7820L20.0074,-13.8040L20.0467,-13.8322L20.0780,-13.8654L20.1022,-13.9023L20.1196,-13.9427L20.1300,-13.9868L20.1334,-14.0346L20.1300,-14.0833L20.1198,-14.1282L20.1027,-14.1692L20.0788,-14.2063L20.0481,-14.2396L20.0102,-14.2679L19.9649,-14.2899L19.9120,-14.3055L19.8517,-14.3150L19.7838,-14.3181L19.7838,-15.3670L19.7746,-15.5216L19.7468,-15.6638L19.7006,-15.7938L19.6358,-15.9114L19.5526,-16.0167L19.4275,-16.1286L19.2857,-16.2157L19.1271,-16.2780L18.9518,-16.3153L18.7597,-16.3277L18.6740,-16.3251L18.5908,-16.3172L18.5102,-16.3039L18.4320,-16.2855L18.3564,-16.2617L18.2834,-16.2326L18.2129,-16.1982L18.1449,-16.1586L18.0794,-16.1137L18.0165,-16.0635L18.0165,-16.2534L17.4796,-16.2534L17.4028,-16.2503L17.3354,-16.2409L17.2773,-16.2252L17.2286,-16.2032L17.1892,-16.1749L17.1580,-16.1417L17.1337,-16.1049L17.1164,-16.0644L17.1060,-16.0203L17.1025,-15.9726L17.1059,-15.9248L17.1161,-15.8805L17.1332,-15.8398L17.1571,-15.8026L17.1878,-15.7689L17.2257,-15.7402L17.2711,-15.7178L17.3239,-15.7018L17.3843,-15.6922L17.4521,-15.6891L17.4521,-14.3181L17.3712,-14.3164L17.3023,-14.3115L17.2456,-14.3032L17.2010,-14.2917L17.1686,-14.2768L17.1210,-14.2399L17.0840,-14.1975L17.0576,-14.1496L17.0417,-14.0962L17.0364,-14.0373Z" fill="#ffffff" fill-rule="evenodd"/></svg>