<svg xmlns="http://www.w3.org/2000/svg" width="70mm" height="70mm" viewBox="-35 -35 70 70"><title>Dottore su LinkedIn</title><circle r="35" fill="#2458b8"/><path d="M-30.8000,-0.0000L-30.7341,2.0144L-30.5365,4.0202L-30.2082,6.0088L-29.7505,7.9716L-29.1654,9.9003L-28.4555,11.7866L-27.6237,13.6225L-26.6736,15.4000L-25.6093,17.1116L-24.4353,18.7499L-23.1567,20.3079L-21.7789,21.7789L-20.3079,23.1567L-18.7499,24.4353L-17.1116,25.6093L-15.4000,26.6736L-13.6225,27.6237L-11.7866,28.4555L-9.9003,29.1654L-7.9716,29.7505L-6.0088,30.2082L-4.0202,30.5365L-2.0144,30.7341L-0.0000,30.8000L2.0144,30.7341L4.0202,30.5365L6.0088,30.2082L7.9716,29.7505L9.9003,29.1654L11.7866,28.4555L13.6225,27.6237L15.4000,26.6736L17.1116,25.6093L18.7499,24.4353L20.3079,23.1567L21.7789,21.7789L23.1567,20.3079L24.4353,18.7499L25.6093,17.1116L26.6736,15.4000L27.6237,13.6225L28.4555,11.7866L29.1654,9.9003L29.7505,7.9716L30.2082,6.0088L30.5365,4.0202L30.7341,2.0144L30.8000,0.0000L30.8000,0.0000L30.7341,-2.0144L30.5365,-4.0202L30.2082,-6.0088L29.7505,-7.9716L29.1654,-9.9003L28.4555,-11.7866L27.6237,-13.6225L26.6736,-15.4000L25.6093,-17.1116L24.4353,-18.7499L23.1567,-20.3079L21.7789,-21.7789L20.3079,-23.1567L18.7499,-24.4353L17.1116,-25.6093L15.4000,-26.6736L13.6225,-27.6237L11.7866,-28.4555L9.9003,-29.1654L7.9716,-29.7505L6.0088,-30.2082L4.0202,-30.5365L2.0144,-30.7341L0.0000,-30.8000L-2.0144,-30.7341L-4.0202,-30.5365L-6.0088,-30.2082L-7.9716,-29.7505L-9.9003,-29.1654L-11.7866,-28.4555L-13.6225,-27.6237L-15.4000,-26.6736L-17.1116,-25.6093L-18.7499,-24.4353L-20.3079,-23.1567L-21.7789,-21.7789L-23.1567,-20.3079L-24.4353,-18.7499L-25.6093,-17.1116L-26.6736,-15.4000L-27.6237,-13.6225L-28.4555,-11.7866L-29.1654,-9.9003L-29.7505,-7.9716L-30.2082,-6.0088L-30.5365,-4.0202L-30.7341,-2.0144L-30.8000,-0.0000ZM-30.0300,-0.0000L-29.9657,-1.9641L-29.7731,-3.9197L-29.4530,-5.8586L-29.0068,-7.7723L-28.4363,-9.6528L-27.7441,-11.4920L-26.9331,-13.2819L-26.0067,-15.0150L-24.9690,-16.6838L-23.8244,-18.2811L-22.5777,-19.8002L-21.2344,-21.2344L-19.8002,-22.5777L-18.2811,-23.8244L-16.6838,-24.9690L-15.0150,-26.0067L-13.2819,-26.9331L-11.4920,-27.7441L-9.6528,-28.4363L-7.7723,-29.0068L-5.8586,-29.4530L-3.9197,-29.7731L-1.9641,-29.9657L0.0000,-30.0300L1.9641,-29.9657L3.9197,-29.7731L5.8586,-29.4530L7.7723,-29.0068L9.6528,-28.4363L11.4920,-27.7441L13.2819,-26.9331L15.0150,-26.0067L16.6838,-24.9690L18.2811,-23.8244L19.8002,-22.5777L21.2344,-21.2344L22.5777,-19.8002L23.8244,-18.2811L24.9690,-16.6838L26.0067,-15.0150L26.9331,-13.2819L27.7441,-11.4920L28.4363,-9.6528L29.0068,-7.7723L29.4530,-5.8586L29.7731,-3.9197L29.9657,-1.9641L30.0300,0.0000L30.0300,0.0000L29.9657,1.9641L29.7731,3.9197L29.4530,5.8586L29.0068,7.7723L28.4363,9.6528L27.7441,11.4920L26.9331,13.2819L26.0067,15.0150L24.9690,16.6838L23.8244,18.2811L22.5777,19.8002L21.2344,21.2344L19.8002,22.5777L18.2811,23.8244L16.6838,24.9690L15.0150,26.0067L13.2819,26.9331L11.4920,27.7441L9.6528,28.4363L7.7723,29.0068L5.8586,29.4530L3.9197,29.7731L1.9641,29.9657L-0.0000,30.0300L-1.9641,29.9657L-3.9197,29.7731L-5.8586,29.4530L-7.7723,29.0068L-9.6528,28.4363L-11.4920,27.7441L-13.2819,26.9331L-15.0150,26.0067L-16.6838,24.9690L-18.2811,23.8244L-19.8002,22.5777L-21.2344,21.2344L-22.5777,19.8002L-23.8244,18.2811L-24.9690,16.6838L-26.0067,15.0150L-26.9331,13.2819L-27.7441,11.4920L-28.4363,9.6528L-29.0068,7.7723L-29.4530,5.8586L-29.7731,3.9197L-29.9657,1.9641L-30.0300,-0.0000ZM-23.7552,14.3743L-23.6742,14.6199L-23.5634,14.8442L-23.4229,15.0471L-23.2527,15.2286L-23.0528,15.3887L-22.8226,15.5232L-22.5617,15.6278L-22.2701,15.7025L-21.9478,15.7473L-21.5947,15.7623L-21.2088,15.7444L-20.8626,15.6910L-20.5561,15.6018L-20.2894,15.4770L-20.0624,15.3166L-19.8760,15.1313L-19.7310,14.9322L-19.6274,14.7191L-19.5653,14.4921L-19.5445,14.2512L-19.5595,14.0337L-19.6043,13.8362L-19.6790,13.6588L-19.7836,13.5014L-19.9181,13.3640L-20.0922,13.2423L-20.3123,13.1284L-20.5785,13.0223L-20.8906,12.9240L-21.2488,12.8335L-21.5983,12.7508L-21.8845,12.6759L-22.1073,12.6088L-22.2668,12.5496L-22.3630,12.4981L-22.4058,12.4609L-22.4391,12.4207L-22.4628,12.3774L-22.4771,12.3311L-22.4819,12.2816L-22.4764,12.2244L-22.4601,12.1716L-22.4329,12.1232L-22.3949,12.0793L-22.3460,12.0397L-22.2538,11.9923L-22.1402,11.9555L-22.0053,11.9292L-21.8489,11.9134L-21.6711,11.9081L-21.5286,11.9137L-21.3998,11.9305L-21.2848,11.9585L-21.1835,11.9978L-21.0960,12.0482L-21.0205,12.1091L-20.9554,12.1800L-20.9006,12.2606L-20.8562,12.3511L-20.8222,12.4514L-19.6973,12.2434L-19.7765,12.0190L-19.8780,11.8176L-20.0019,11.6393L-20.1483,11.4842L-20.3171,11.3521L-20.5161,11.2436L-20.7531,11.1592L-21.0281,11.0989L-21.3412,11.0628L-21.6923,11.0507L-22.0608,11.0667L-22.3885,11.1145L-22.6754,11.1943L-22.9216,11.3061L-23.1270,11.4497L-23.2936,11.6168L-23.4231,11.7988L-23.5157,11.9957L-23.5712,12.2076L-23.5897,12.4345L-23.5683,12.6829L-23.5041,12.9085L-23.3972,13.1114L-23.2474,13.2915L-23.0549,13.4489L-22.8581,13.5564L-22.5768,13.6683L-22.2109,13.7846L-21.7604,13.9053L-21.2254,14.0305L-21.1103,14.0598L-21.0129,14.0902L-20.9331,14.1216L-20.8709,14.1541L-20.8264,14.1875L-20.7959,14.2250L-20.7721,14.2663L-20.7551,14.3113L-20.7449,14.3600L-20.7415,14.4125L-20.7478,14.4890L-20.7667,14.5592L-20.7981,14.6228L-20.8421,14.6801L-20.8986,14.7308L-21.0011,14.7919L-21.1220,14.8395L-21.2613,14.8734L-21.4188,14.8938L-21.5947,14.9006L-21.7553,14.8934L-21.9010,14.8717L-22.0317,14.8357L-22.1475,14.7852L-22.2484,14.7202L-22.3355,14.6413L-22.4100,14.5491L-22.4720,14.4434L-22.5214,14.3243L-22.5582,14.1918L-23.7552,14.3743ZM-18.5258,14.0050L-18.5194,14.2486L-18.5000,14.4702L-18.4678,14.6697L-18.4226,14.8471L-18.3645,15.0025L-18.2920,15.1403L-18.2036,15.2653L-18.0992,15.3774L-17.9788,15.4765L-17.8424,15.5628L-17.6944,15.6346L-17.5389,15.6905L-17.3759,15.7304L-17.2054,15.7543L-17.0275,15.7623L-16.8510,15.7540L-16.6780,15.7290L-16.5087,15.6874L-16.3429,15.6292L-16.1806,15.5543L-16.0264,15.4650L-15.8845,15.3634L-15.7551,15.2497L-15.6380,15.1237L-15.5333,14.9855L-15.5333,15.6604L-14.4255,15.6604L-14.4255,11.1526L-15.6182,11.1526L-15.6182,13.0542L-15.6218,13.4125L-15.6325,13.7133L-15.6503,13.9565L-15.6753,14.1422L-15.7074,14.2703L-15.7491,14.3664L-15.8031,14.4560L-15.8693,14.5392L-15.9478,14.6160L-16.0384,14.6863L-16.1378,14.7466L-16.2422,14.7936L-16.3517,14.8271L-16.4663,14.8472L-16.5860,14.8539L-16.6892,14.8489L-16.7850,14.8339L-16.8733,14.8088L-16.9541,14.7738L-17.0275,14.7287L-17.0927,14.6750L-17.1494,14.6143L-17.1973,14.5463L-17.2366,14.4713L-17.2673,14.3891L-17.2910,14.2739L-17.3094,14.0998L-17.3225,13.8668L-17.3304,13.5748L-17.3331,13.2240L-17.3331,11.1526L-18.5258,11.1526L-18.5258,14.0050ZM-14.4606,2.9572L-12.1760,2.9572L-11.9178,2.9521L-11.6812,2.9369L-11.4663,2.9115L-11.2730,2.8759L-11.1014,2.8301L-10.8953,2.7558L-10.7070,2.6706L-10.5364,2.5746L-10.3835,2.4678L-10.2483,2.3502L-10.0886,2.1778L-9.9444,1.9853L-9.8156,1.7729L-9.7023,1.5404L-9.6043,1.2879L-9.5379,1.0648L-9.4862,0.8252L-9.4493,0.5693L-9.4271,0.2970L-9.4198,0.0082L-9.4276,-0.3190L-9.4513,-0.6247L-9.4906,-0.9090L-9.5458,-1.1717L-9.6166,-1.4130L-9.7026,-1.6364L-9.8030,-1.8455L-9.9178,-2.0403L-10.0471,-2.2208L-10.1908,-2.3871L-10.3479,-2.5366L-10.5170,-2.6667L-10.6983,-2.7774L-10.8917,-2.8688L-11.0973,-2.9408L-11.2691,-2.9822L-11.4694,-3.0143L-11.6983,-3.0373L-11.9557,-3.0511L-12.2416,-3.0557L-14.4606,-3.0557L-14.4606,2.9572ZM-13.2465,1.9441L-13.2465,-2.0385L-12.7010,-2.0385L-12.4236,-2.0362L-12.1852,-2.0293L-11.9859,-2.0178L-11.8256,-2.0017L-11.7043,-1.9811L-11.5729,-1.9461L-11.4510,-1.9003L-11.3386,-1.8437L-11.2358,-1.7763L-11.1424,-1.6980L-11.0578,-1.6078L-10.9810,-1.5045L-10.9121,-1.3880L-10.8510,-1.2584L-10.7979,-1.1156L-10.7536,-0.9534L-10.7191,-0.7652L-10.6945,-0.5511L-10.6798,-0.3111L-10.6748,-0.0451L-10.6798,0.2221L-10.6945,0.4658L-10.7191,0.6860L-10.7536,0.8828L-10.7979,1.0562L-10.8500,1.2086L-10.9078,1.3429L-10.9714,1.4590L-11.0407,1.5569L-11.1157,1.6365L-11.1977,1.7030L-11.2877,1.7612L-11.3857,1.8112L-11.4918,1.8531L-11.6059,1.8867L-11.7074,1.9074L-11.8316,1.9235L-11.9785,1.9350L-12.1479,1.9418L-12.3401,1.9441L-13.2465,1.9441ZM-10.7326,15.6604L-6.3521,15.6604L-6.3521,14.6120L-9.4762,14.6120L-9.4762,9.4887L-10.7326,9.4887L-10.7326,15.6604ZM-8.6651,0.7178L-8.6538,1.0089L-8.6198,1.2818L-8.5632,1.5365L-8.4839,1.7730L-8.3821,1.9913L-8.2584,2.1904L-8.1140,2.3693L-7.9487,2.5280L-7.7626,2.6666L-7.5556,2.7850L-7.3360,2.8824L-7.1120,2.9582L-6.8835,3.0124L-6.6506,3.0448L-6.4133,3.0557L-6.0393,3.0297L-5.6918,2.9516L-5.3706,2.8216L-5.0759,2.6396L-4.8076,2.4056L-4.5779,2.1320L-4.3994,1.8313L-4.2718,1.5036L-4.1953,1.1488L-4.1698,0.7670L-4.1950,0.3884L-4.2708,0.0369L-4.3971,-0.2875L-4.5740,-0.5849L-4.8014,-0.8552L-5.0683,-1.0863L-5.3638,-1.2660L-5.6878,-1.3944L-6.0404,-1.4714L-6.4215,-1.4971L-6.6726,-1.4857L-6.9140,-1.4518L-7.1458,-1.3952L-7.3678,-1.3159L-7.5802,-1.2141L-7.7783,-1.0907L-7.9576,-0.9470L-8.1179,-0.7829L-8.2594,-0.5985L-8.3821,-0.3937L-8.4839,-0.1774L-8.5632,0.0420L-8.6198,0.2643L-8.6538,0.4896L-8.6651,0.7178ZM-7.4838,0.7793L-7.4715,0.5322L-7.4346,0.3094L-7.3731,0.1109L-7.2869,-0.0633L-7.1762,-0.2133L-7.0474,-0.3373L-6.9071,-0.4338L-6.7554,-0.5027L-6.5921,-0.5440L-6.4174,-0.5578L-6.2428,-0.5440L-6.0798,-0.5027L-5.9284,-0.4338L-5.7887,-0.3373L-5.6607,-0.2133L-5.5507,-0.0637L-5.4651,0.1096L-5.4040,0.3065L-5.3673,0.5270L-5.3551,0.7711L-5.3673,1.0211L-5.4040,1.2462L-5.4651,1.4464L-5.5507,1.6216L-5.6607,1.7719L-5.7887,1.8959L-5.9284,1.9924L-6.0798,2.0613L-6.2428,2.1026L-6.4174,2.1164L-6.5921,2.1026L-6.7554,2.0613L-6.9071,1.9924L-7.0474,1.8959L-7.1762,1.7719L-7.2869,1.6219L-7.3731,1.4477L-7.4346,1.2492L-7.4715,1.0264L-7.4838,0.7793ZM-8.4000,22.2250L8.4000,22.2250L8.4000,21.1750L-8.4000,21.1750L-8.4000,22.2250ZM-5.6000,-12.6000L5.6000,-12.6000L4.9000,-16.8000L1.3084,-17.8262L1.4000,-17.8751L1.5556,-17.9719L1.7045,-18.0786L1.8462,-18.1948L1.9799,-18.3201L2.1052,-18.4538L2.2214,-18.5955L2.3281,-18.7444L2.4249,-18.9000L2.5112,-19.0616L2.5869,-19.2285L2.6514,-19.4000L2.7046,-19.5753L2.7462,-19.7537L2.7760,-19.9345L2.7940,-20.1169L2.8000,-20.3000L2.7940,-20.4831L2.7760,-20.6655L2.7462,-20.8463L2.7046,-21.0247L2.6514,-21.2000L2.5869,-21.3715L2.5112,-21.5384L2.4249,-21.7000L2.3281,-21.8556L2.2214,-22.0045L2.1052,-22.1462L1.9799,-22.2799L1.8462,-22.4052L1.7045,-22.5214L1.5556,-22.6281L1.4000,-22.7249L1.2384,-22.8112L1.0715,-22.8869L0.9000,-22.9514L0.7247,-23.0046L0.5463,-23.0462L0.3655,-23.0760L0.1831,-23.0940L0.0000,-23.1000L-0.1831,-23.0940L-0.3655,-23.0760L-0.5463,-23.0462L-0.7247,-23.0046L-0.9000,-22.9514L-1.0715,-22.8869L-1.2384,-22.8112L-1.4000,-22.7249L-1.5556,-22.6281L-1.7045,-22.5214L-1.8462,-22.4052L-1.9799,-22.2799L-2.1052,-22.1462L-2.2214,-22.0045L-2.3281,-21.8556L-2.4249,-21.7000L-2.5112,-21.5384L-2.5869,-21.3715L-2.6514,-21.2000L-2.7046,-21.0247L-2.7462,-20.8463L-2.7760,-20.6655L-2.7940,-20.4831L-2.8000,-20.3000L-2.7940,-20.1169L-2.7760,-19.9345L-2.7462,-19.7537L-2.7046,-19.5753L-2.6514,-19.4000L-2.5869,-19.2285L-2.5112,-19.0616L-2.4249,-18.9000L-2.3281,-18.7444L-2.2214,-18.5955L-2.1052,-18.4538L-1.9799,-18.3201L-1.8462,-18.1948L-1.7045,-18.0786L-1.5556,-17.9719L-1.4000,-17.8751L-1.3084,-17.8262L-4.9000,-16.8000L-5.6000,-12.6000ZM-5.4650,15.6604L-4.2723,15.6604L-4.2723,11.1526L-5.4650,11.1526L-5.4650,15.6604ZM-5.4650,10.5413L-4.2723,10.5413L-4.2723,9.4377L-5.4650,9.4377L-5.4650,10.5413ZM-3.7432,-0.4799L-3.2141,-0.4799L-3.2141,1.4191L-3.2126,1.6472L-3.2082,1.8424L-3.2008,2.0048L-3.1905,2.1345L-3.1772,2.2312L-3.1563,2.3398L-3.1296,2.4390L-3.0972,2.5288L-3.0590,2.6092L-3.0152,2.6804L-2.9631,2.7444L-2.9003,2.8034L-2.8269,2.8576L-2.7428,2.9068L-2.6481,2.9511L-2.5455,2.9887L-2.4381,3.0180L-2.3257,3.0389L-2.2084,3.0515L-2.0862,3.0557L-1.8870,3.0488L-1.6963,3.0281L-1.5142,2.9936L-1.3407,2.9454L-1.1756,2.8834L-1.2740,1.9893L-1.3897,2.0291L-1.4939,2.0601L-1.5866,2.0823L-1.6678,2.0956L-1.7375,2.1000L-1.7821,2.0977L-1.8238,2.0908L-1.8628,2.0793L-1.8990,2.0632L-1.9323,2.0426L-1.9621,2.0184L-1.9871,1.9917L-2.0077,1.9626L-2.0236,1.9310L-2.0349,1.8970L-2.0430,1.8439L-2.0493,1.7552L-2.0538,1.6309L-2.0566,1.4711L-2.0574,1.2756L-2.0574,-0.4799L-1.2699,-0.4799L-1.2699,-1.3986L-2.0574,-1.3986L-2.0574,-2.9367L-3.2141,-2.2641L-3.2141,-1.3986L-3.7432,-1.3986L-3.7432,-0.4799ZM-3.0583,15.6604L-1.8655,15.6604L-1.8655,13.6187L-1.8619,13.3355L-1.8509,13.0903L-1.8327,12.8832L-1.8071,12.7141L-1.7743,12.5830L-1.7316,12.4754L-1.6765,12.3766L-1.6090,12.2866L-1.5291,12.2054L-1.4368,12.1331L-1.3358,12.0720L-1.2297,12.0244L-1.1185,11.9905L-1.0022,11.9701L-0.8808,11.9633L-0.7868,11.9681L-0.6984,11.9823L-0.6156,12.0061L-0.5385,12.0394L-0.4669,12.0822L-0.4020,12.1335L-0.3447,12.1925L-0.2950,12.2592L-0.2530,12.3334L-0.2186,12.4154L-0.1911,12.5217L-0.1697,12.6694L-0.1544,12.8582L-0.1452,13.0884L-0.1422,13.3598L-0.1422,15.6604L1.0506,15.6604L1.0506,12.8589L1.0479,12.6598L1.0400,12.4800L1.0269,12.3195L1.0084,12.1784L0.9848,12.0567L0.9544,11.9470L0.9158,11.8421L0.8691,11.7419L0.8143,11.6465L0.7513,11.5558L0.6779,11.4707L0.5917,11.3918L0.4928,11.3192L0.3812,11.2529L0.2568,11.1929L0.1233,11.1417L-0.0155,11.1019L-0.1599,11.0734L-0.3096,11.0564L-0.4648,11.0507L-0.8108,11.0813L-1.1324,11.1729L-1.4295,11.3258L-1.7022,11.5397L-1.9504,11.8147L-1.9504,11.1526L-3.0583,11.1526L-3.0583,15.6604ZM-0.9459,-0.4799L-0.4168,-0.4799L-0.4168,1.4191L-0.4153,1.6472L-0.4109,1.8424L-0.4035,2.0048L-0.3932,2.1345L-0.3799,2.2312L-0.3590,2.3398L-0.3323,2.4390L-0.2999,2.5288L-0.2618,2.6092L-0.2179,2.6804L-0.1658,2.7444L-0.1031,2.8034L-0.0296,2.8576L0.0544,2.9068L0.1492,2.9511L0.2517,2.9887L0.3592,3.0180L0.4716,3.0389L0.5889,3.0515L0.7111,3.0557L0.9103,3.0488L1.1009,3.0281L1.2830,2.9936L1.4566,2.9454L1.6217,2.8834L1.5232,1.9893L1.4076,2.0291L1.3034,2.0601L1.2107,2.0823L1.1295,2.0956L1.0597,2.1000L1.0152,2.0977L0.9734,2.0908L0.9345,2.0793L0.8983,2.0632L0.8649,2.0426L0.8352,2.0184L0.8101,1.9917L0.7896,1.9626L0.7737,1.9310L0.7624,1.8970L0.7542,1.8439L0.7479,1.7552L0.7434,1.6309L0.7407,1.4711L0.7398,1.2756L0.7398,-0.4799L1.5273,-0.4799L1.5273,-1.3986L0.7398,-1.3986L0.7398,-2.9367L-0.4168,-2.2641L-0.4168,-1.3986L-0.9459,-1.3986L-0.9459,-0.4799ZM2.0605,0.7178L2.0718,1.0089L2.1058,1.2818L2.1624,1.5365L2.2416,1.7730L2.3435,1.9913L2.4672,2.1904L2.6116,2.3693L2.7769,2.5280L2.9630,2.6666L3.1700,2.7850L3.3896,2.8824L3.6136,2.9582L3.8421,3.0124L4.0750,3.0448L4.3123,3.0557L4.6863,3.0297L5.0338,2.9516L5.3550,2.8216L5.6497,2.6396L5.9180,2.4056L6.1476,2.1320L6.3262,1.8313L6.4538,1.5036L6.5303,1.1488L6.5558,0.7670L6.5306,0.3884L6.4548,0.0369L6.3284,-0.2875L6.1516,-0.5849L5.9242,-0.8552L5.6573,-1.0863L5.3618,-1.2660L5.0378,-1.3944L4.6852,-1.4714L4.3041,-1.4971L4.0530,-1.4857L3.8116,-1.4518L3.5798,-1.3952L3.3578,-1.3159L3.1454,-1.2141L2.9473,-1.0907L2.7680,-0.9470L2.6077,-0.7829L2.4662,-0.5985L2.3435,-0.3937L2.2416,-0.1774L2.1624,0.0420L2.1058,0.2643L2.0718,0.4896L2.0605,0.7178ZM3.2418,0.7793L3.2541,0.5322L3.2910,0.3094L3.3525,0.1109L3.4386,-0.0633L3.5494,-0.2133L3.6782,-0.3373L3.8185,-0.4338L3.9702,-0.5027L4.1335,-0.5440L4.3082,-0.5578L4.4828,-0.5440L4.6458,-0.5027L4.7972,-0.4338L4.9369,-0.3373L5.0649,-0.2133L5.1749,-0.0637L5.2605,0.1096L5.3216,0.3065L5.3583,0.5270L5.3705,0.7711L5.3583,1.0211L5.3216,1.2462L5.2605,1.4464L5.1749,1.6216L5.0649,1.7719L4.9369,1.8959L4.7972,1.9924L4.6458,2.0613L4.4828,2.1026L4.3082,2.1164L4.1335,2.1026L3.9702,2.0613L3.8185,1.9924L3.6782,1.8959L3.5494,1.7719L3.4386,1.6219L3.3525,1.4477L3.2910,1.2492L3.2541,1.0264L3.2418,0.7793ZM2.2178,15.6604L3.4106,15.6604L3.4106,14.2172L3.9666,13.6357L5.1000,15.6604L6.3861,15.6604L4.7349,12.7995L6.2757,11.1526L4.8071,11.1526L3.4106,12.7401L3.4106,9.4377L2.2178,9.4377L2.2178,15.6604ZM6.7469,13.4404L6.7647,13.8028L6.8182,14.1393L6.9073,14.4500L7.0321,14.7349L7.1926,14.9940L7.4428,15.2706L7.7420,15.4857L8.0901,15.6393L8.4870,15.7315L8.9329,15.7623L9.2201,15.7486L9.4874,15.7076L9.7349,15.6393L9.9625,15.5436L10.1702,15.4206L10.3574,15.2714L10.5234,15.0973L10.6681,14.8982L10.7916,14.6742L10.8939,14.4252L9.7054,14.2257L9.6626,14.3541L9.6124,14.4675L9.5546,14.5660L9.4895,14.6495L9.4168,14.7181L9.3368,14.7731L9.2497,14.8159L9.1555,14.8464L9.0541,14.8648L8.9456,14.8709L8.7864,14.8591L8.6380,14.8237L8.5004,14.7647L8.3738,14.6821L8.2580,14.5759L8.1582,14.4485L8.0794,14.3022L8.0216,14.1371L7.9850,13.9531L7.9694,13.7503L10.9576,13.7503L10.9435,13.2302L10.8808,12.7666L10.7696,12.3595L10.6099,12.0090L10.4015,11.7150L10.1520,11.4758L9.8684,11.2898L9.5509,11.1570L9.1995,11.0773L8.8140,11.0507L8.4682,11.0761L8.1471,11.1522L7.8508,11.2791L7.5794,11.4568L7.3327,11.6853L7.1218,11.9585L6.9578,12.2707L6.8406,12.6217L6.7703,13.0116L6.7469,13.4404ZM7.9906,13.0202L7.9992,12.8331L8.0286,12.6623L8.0787,12.5078L8.1495,12.3696L8.2410,12.2477L8.3483,12.1453L8.4665,12.0657L8.5955,12.0088L8.7354,11.9747L8.8862,11.9633L9.0278,11.9741L9.1606,12.0064L9.2845,12.0603L9.3996,12.1358L9.5059,12.2328L9.5981,12.3506L9.6709,12.4882L9.7244,12.6457L9.7586,12.8230L9.7733,13.0202L7.9906,13.0202ZM7.4090,2.9572L8.5615,2.9572L8.5615,1.6119L8.5654,1.1978L8.5769,0.8448L8.5962,0.5527L8.6232,0.3217L8.6579,0.1518L8.6993,0.0209L8.7465,-0.0927L8.7994,-0.1891L8.8580,-0.2682L8.9224,-0.3302L8.9927,-0.3782L9.0688,-0.4155L9.1508,-0.4421L9.2387,-0.4581L9.3326,-0.4635L9.4343,-0.4559L9.5393,-0.4333L9.6476,-0.3956L9.7592,-0.3427L9.8740,-0.2748L10.2308,-1.2797L10.0837,-1.3579L9.9342,-1.4188L9.7825,-1.4623L9.6284,-1.4884L9.4720,-1.4971L9.3629,-1.4915L9.2584,-1.4748L9.1588,-1.4469L9.0639,-1.4078L8.9737,-1.3576L8.8837,-1.2899L8.7893,-1.1981L8.6905,-1.0825L8.5872,-0.9429L8.4795,-0.7793L8.4795,-1.3986L7.4090,-1.3986L7.4090,2.9572ZM10.3908,0.8121L10.4080,1.1622L10.4597,1.4874L10.5458,1.7876L10.6664,2.0629L10.8215,2.3133L11.0633,2.5805L11.3524,2.7884L11.6887,2.9369L12.0723,3.0260L12.5031,3.0557L12.7806,3.0425L13.0389,3.0028L13.2780,2.9368L13.4980,2.8444L13.6987,2.7255L13.8796,2.5814L14.0399,2.4131L14.1798,2.2207L14.2992,2.0043L14.3980,1.7637L13.2496,1.5709L13.2082,1.6949L13.1597,1.8045L13.1039,1.8997L13.0409,1.9804L12.9707,2.0467L12.8934,2.0998L12.8092,2.1412L12.7182,2.1707L12.6202,2.1884L12.5154,2.1943L12.3615,2.1829L12.2181,2.1487L12.0852,2.0917L11.9628,2.0119L11.8510,1.9093L11.7545,1.7861L11.6784,1.6448L11.6226,1.4853L11.5871,1.3075L11.5720,1.1115L14.4595,1.1115L14.4459,0.6089L14.3854,0.1609L14.2779,-0.2324L14.1235,-0.5711L13.9222,-0.8552L13.6811,-1.0863L13.4071,-1.2660L13.1003,-1.3944L12.7607,-1.4714L12.3883,-1.4971L12.0541,-1.4725L11.7438,-1.3990L11.4575,-1.2763L11.1952,-1.1046L10.9568,-0.8839L10.7530,-0.6198L10.5946,-0.3182L10.4814,0.0210L10.4134,0.3978L10.3908,0.8121ZM11.5926,0.4061L11.6009,0.2253L11.6293,0.0602L11.6777,-0.0891L11.7461,-0.2226L11.8345,-0.3404L11.9382,-0.4394L12.0524,-0.5163L12.1771,-0.5713L12.3123,-0.6042L12.4580,-0.6152L12.5948,-0.6048L12.7231,-0.5736L12.8429,-0.5215L12.9541,-0.4485L13.0568,-0.3548L13.1459,-0.2410L13.2163,-0.1080L13.2680,0.0441L13.3009,0.2155L13.3152,0.4061L11.5926,0.4061ZM11.6622,13.3895L11.6844,13.8180L11.7508,14.2069L11.8616,14.5562L12.0167,14.8660L12.2161,15.1362L12.4466,15.3616L12.6949,15.5369L12.9611,15.6621L13.2450,15.7372L13.5468,15.7623L13.6994,15.7547L13.8514,15.7321L14.0030,15.6943L14.1540,15.6414L14.3045,15.5734L14.4508,15.4899L14.5891,15.3907L14.7194,15.2757L14.8417,15.1448L14.9561,14.9982L14.9561,15.6604L16.0639,15.6604L16.0639,9.4377L14.8712,9.4377L14.8712,11.6789L14.6423,11.4528L14.3971,11.2769L14.1357,11.1512L13.8579,11.0758L13.5638,11.0507L13.2458,11.0746L12.9505,11.1461L12.6780,11.2654L12.4283,11.4324L12.2013,11.6471L12.0072,11.9076L11.8563,12.2121L11.7485,12.5606L11.6838,12.9531L11.6622,13.3895ZM12.8804,13.3089L12.8919,13.0539L12.9263,12.8256L12.9836,12.6240L13.0638,12.4491L13.1669,12.3008L13.2871,12.1793L13.4182,12.0848L13.5604,12.0173L13.7137,11.9768L13.8779,11.9633L14.0465,11.9770L14.2026,12.0180L14.3460,12.0863L14.4769,12.1820L14.5953,12.3050L14.6961,12.4591L14.7746,12.6480L14.8306,12.8717L14.8642,13.1302L14.8754,13.4235L14.8639,13.6881L14.8292,13.9250L14.7715,14.1343L14.6907,14.3159L14.5868,14.4698L14.4664,14.5958L14.3362,14.6939L14.1961,14.7639L14.0462,14.8060L13.8864,14.8200L13.6884,14.8013L13.5088,14.7453L13.3475,14.6519L13.2045,14.5211L13.0799,14.3530L13.0081,14.2080L12.9522,14.0311L12.9123,13.8223L12.8884,13.5815L12.8804,13.3089ZM17.2100,15.6604L18.4664,15.6604L18.4664,9.4377L17.2100,9.4377L17.2100,15.6604ZM19.6464,15.6604L20.8392,15.6604L20.8392,13.6187L20.8428,13.3355L20.8538,13.0903L20.8720,12.8832L20.8976,12.7141L20.9304,12.5830L20.9731,12.4754L21.0282,12.3766L21.0957,12.2866L21.1756,12.2054L21.2679,12.1331L21.3689,12.0720L21.4750,12.0244L21.5862,11.9905L21.7025,11.9701L21.8239,11.9633L21.9179,11.9681L22.0063,11.9823L22.0890,12.0061L22.1662,12.0394L22.2378,12.0822L22.3027,12.1335L22.3600,12.1925L22.4097,12.2592L22.4517,12.3334L22.4861,12.4154L22.5136,12.5217L22.5350,12.6694L22.5503,12.8582L22.5594,13.0884L22.5625,13.3598L22.5625,15.6604L23.7552,15.6604L23.7552,12.8589L23.7526,12.6598L23.7447,12.4800L23.7316,12.3195L23.7131,12.1784L23.6895,12.0567L23.6591,11.9470L23.6205,11.8421L23.5738,11.7419L23.5190,11.6465L23.4560,11.5558L23.3826,11.4707L23.2964,11.3918L23.1975,11.3192L23.0859,11.2529L22.9615,11.1929L22.8280,11.1417L22.6892,11.1019L22.5448,11.0734L22.3951,11.0564L22.2399,11.0507L21.8939,11.0813L21.5723,11.1729L21.2752,11.3258L21.0025,11.5397L20.7543,11.8147L20.7543,11.1526L19.6464,11.1526L19.6464,15.6604Z" fill="#ffffff" fill-rule="evenodd"/></svg>