<svg xmlns="http://www.w3.org/2000/svg" width="75mm" height="75mm" viewBox="-37.5 -37.5 75 75"><title>Sessione finita. Pericolo: karaoke.</title><circle r="37.5" fill="#803fa1"/><path d="M-24.508,8.648L-24.484,8.687L-24.516,8.676L-24.508,8.648ZM-5.962,24.579L-4.430,24.172L-3.423,23.884L-2.364,23.623L-1.336,23.492L-0.904,23.574L-0.628,23.837L-0.727,24.258L-1.471,24.491L-2.825,24.798L-3.773,25.016L-5.201,25.415L-6.650,25.770L-8.109,25.992L-12.537,25.620L-16.104,23.534L-17.625,19.453L-17.618,18.769L-17.622,18.059L-17.719,17.391L-17.810,17.164L-17.930,16.958L-18.063,16.758L-19.275,15.654L-20.819,15.172L-22.438,14.844L-23.148,14.625L-23.831,14.333L-24.469,13.953L-25.416,13.045L-26.064,11.903L-26.359,10.625L-26.361,10.229L-26.340,9.831L-26.352,9.445L-26.435,9.273L-26.573,9.143L-26.672,8.977L-26.681,8.520L-26.582,8.092L-26.539,7.656L-26.624,7.430L-26.751,7.229L-26.805,6.977L-26.668,6.100L-26.423,5.207L-26.172,4.352L-25.774,2.844L-25.380,1.336L-24.992,-0.172L-24.823,-0.787L-24.648,-1.401L-24.500,-2.016L-24.498,-2.766L-24.697,-3.424L-24.914,-4.133L-24.964,-4.533L-24.994,-4.938L-25.055,-5.328L-25.121,-5.506L-25.199,-5.671L-25.250,-5.859L-25.170,-6.597L-24.851,-7.012L-24.453,-7.500L-24.327,-7.770L-24.220,-8.053L-24.094,-8.328L-23.731,-8.876L-23.288,-9.397L-22.820,-9.867L-20.084,-10.947L-17.216,-10.152L-15.313,-7.898L-15.063,-6.923L-15.005,-5.895L-15.141,-4.898L-15.237,-4.606L-15.354,-4.319L-15.445,-4.031L-15.470,-3.733L-15.470,-3.442L-15.516,-3.148L-15.705,-2.774L-15.998,-2.390L-16.328,-2.141L-16.515,-2.083L-16.696,-2.032L-16.867,-1.938L-17.240,-1.597L-17.593,-1.273L-18.023,-0.984L-18.272,-0.897L-18.574,-0.814L-18.781,-0.727L-18.826,-0.657L-18.859,-0.572L-18.898,-0.492L-19.017,-0.395L-19.150,-0.313L-19.273,-0.211L-19.554,0.215L-19.792,0.704L-20.016,1.172L-20.940,2.938L-21.880,4.698L-22.805,6.469L-23.079,7.045L-23.434,7.736L-23.797,8.203L-24.591,8.228L-25.537,7.905L-26.055,7.742L-26.059,7.813L-26.043,7.932L-26.031,8.008L-25.694,8.355L-25.116,8.554L-24.602,8.656L-24.580,8.662L-24.561,8.666L-24.539,8.672L-24.517,8.678L-24.610,8.979L-24.757,9.297L-24.969,9.570L-25.145,9.648L-25.316,9.688L-25.414,9.828L-25.422,10.409L-25.299,11.034L-25.109,11.594L-22.975,13.607L-20.043,14.344L-17.445,15.789L-16.760,17.230L-16.615,18.812L-16.523,20.414L-15.041,23.183L-12.250,24.651L-9.086,25.039L-7.507,24.892L-5.962,24.579ZM-15.959,-6.066L-15.992,-6.273L-16.071,-6.307L-16.169,-6.313L-16.242,-6.336L-16.269,-6.433L-16.278,-6.567L-16.305,-6.648L-16.455,-6.657L-16.506,-6.520L-16.516,-6.367L-16.532,-6.186L-16.513,-6.022L-16.383,-5.930L-16.203,-5.877L-16.138,-5.784L-16.124,-5.571L-16.026,-5.788L-15.959,-6.066ZM-16.102,-7.023L-16.211,-6.944L-16.211,-6.780L-16.102,-6.648L-16.102,-7.023ZM-16.555,-5.180L-16.672,-4.781L-16.558,-4.657L-16.400,-4.577L-16.234,-4.578L-16.122,-5.174L-16.555,-5.180ZM-16.171,-3.640L-16.172,-3.641L-16.182,-3.646L-18.211,-4.767L-19.470,-5.262L-21.545,-6.108L-23.734,-6.883L-24.030,-6.916L-24.285,-6.839L-24.416,-6.662L-24.461,-6.617L-24.536,-6.313L-24.536,-6.302L-24.544,-6.271L-24.536,-6.182L-24.537,-5.953L-24.383,-5.711L-24.012,-5.565L-23.912,-5.521L-23.474,-5.385L-23.047,-5.258L-22.266,-4.995L-21.960,-4.886L-21.120,-4.570L-20.219,-4.211L-19.485,-3.899L-18.752,-3.575L-18.023,-3.242L-17.680,-3.067L-17.312,-2.894L-17.117,-2.833L-16.938,-2.766L-16.513,-2.838L-16.314,-3.097L-16.225,-3.197L-16.176,-3.607L-16.171,-3.640ZM-16.525,-7.317L-16.234,-7.398L-16.257,-7.816L-16.576,-8.233L-16.844,-8.172L-16.857,-8.048L-16.794,-7.997L-16.672,-7.961L-16.673,-7.615L-16.525,-7.317ZM-17.396,-9.014L-17.547,-8.633L-17.372,-8.352L-17.029,-8.335L-16.797,-8.648L-17.078,-8.971L-17.396,-9.014ZM-17.403,-5.096L-17.045,-5.274L-17.203,-5.641L-17.301,-5.686L-17.392,-5.707L-17.492,-5.711L-17.547,-5.607L-17.586,-5.500L-17.609,-5.391L-17.403,-5.096ZM-17.401,-6.164L-17.266,-6.234L-17.159,-6.515L-17.484,-6.556L-17.680,-6.023L-17.539,-6.094L-17.401,-6.164ZM-17.165,-7.261L-17.734,-7.836L-17.559,-7.041L-17.165,-7.261ZM-17.573,-9.329L-18.047,-9.586L-17.823,-9.015L-17.573,-9.329ZM-18.448,-2.048L-17.797,-2.383L-18.474,-2.431L-18.448,-2.048ZM-18.160,-7.922L-18.047,-8.273L-18.384,-8.620L-18.834,-8.620L-19.047,-8.211L-18.616,-7.922L-18.160,-7.922ZM-18.525,-6.444L-18.484,-6.586L-18.314,-6.644L-18.093,-6.757L-18.188,-6.898L-18.581,-6.769L-18.749,-6.332L-18.548,-6.069L-18.538,-6.243L-18.525,-6.444ZM-18.282,-6.037L-18.477,-6.039L-18.643,-5.799L-18.482,-5.654L-18.180,-5.648L-18.130,-5.875L-18.282,-6.037ZM-18.821,-9.352L-18.438,-9.523L-18.404,-9.797L-18.687,-9.927L-18.992,-9.961L-19.078,-9.596L-18.821,-9.352ZM-19.832,-1.712L-19.352,-1.484L-19.195,-1.504L-19.050,-1.549L-18.914,-1.625L-19.455,-1.986L-19.832,-1.712ZM-19.739,-2.989L-19.781,-2.578L-19.501,-2.459L-19.079,-2.533L-18.930,-2.883L-19.341,-3.040L-19.739,-2.989ZM-19.272,-7.844L-19.305,-7.586L-19.227,-7.566L-19.080,-7.538L-18.992,-7.523L-19.118,-7.833L-19.272,-7.844ZM-19.110,-9.802L-19.141,-9.977L-19.473,-10.099L-19.613,-9.922L-19.492,-9.586L-19.299,-9.656L-19.110,-9.802ZM-19.299,-6.379L-19.375,-6.648L-19.593,-6.702L-19.762,-6.516L-19.813,-6.273L-19.508,-6.230L-19.299,-6.379ZM-19.745,-8.385L-19.391,-8.586L-19.435,-9.005L-19.857,-9.188L-20.297,-8.930L-20.135,-8.558L-19.745,-8.385ZM-20.372,-7.434L-20.555,-6.961L-20.304,-6.846L-19.901,-6.936L-19.609,-7.086L-19.839,-7.498L-20.372,-7.434ZM-24.996,3.255L-25.555,5.250L-25.713,5.813L-25.863,6.387L-25.984,6.961L-25.968,7.159L-25.868,7.346L-25.680,7.352L-25.627,7.254L-25.566,7.085L-25.523,6.961L-25.297,6.234L-25.091,5.496L-24.891,4.758L-24.648,3.901L-24.406,3.045L-24.164,2.188L-23.843,1.045L-23.514,-0.097L-23.172,-1.234L-23.180,-1.250L-22.184,-0.876L-20.928,-0.442L-19.969,-0.328L-19.845,-0.409L-19.710,-0.552L-19.664,-0.680L-20.072,-0.861L-20.842,-1.139L-21.359,-1.320L-22.117,-1.667L-23.170,-2.109L-23.859,-2.242L-23.975,-2.063L-23.892,-1.864L-23.742,-1.727L-23.695,-1.472L-23.789,-1.062L-23.883,-0.750L-24.431,1.255L-24.996,3.255ZM-20.717,-1.913L-20.648,-1.883L-20.317,-1.777L-20.084,-1.845L-19.854,-2.122L-20.001,-2.220L-20.155,-2.300L-20.313,-2.359L-20.581,-2.365L-20.830,-2.249L-20.859,-2.000L-20.806,-1.959L-20.717,-1.913ZM-20.805,-3.070L-20.440,-2.969L-20.042,-3.169L-20.281,-3.484L-20.432,-3.531L-20.584,-3.555L-20.742,-3.571L-20.770,-3.420L-20.802,-3.210L-20.805,-3.070ZM-20.885,-9.525L-20.797,-9.398L-20.591,-9.398L-20.295,-9.477L-20.109,-9.586L-20.184,-9.941L-20.667,-9.975L-21.055,-9.711L-20.904,-9.652L-20.885,-9.525ZM-20.491,-7.865L-20.242,-8.172L-20.455,-8.549L-20.944,-8.641L-21.250,-8.320L-20.907,-7.924L-20.491,-7.865ZM-21.145,-6.777L-20.782,-6.717L-20.778,-6.728L-21.048,-6.859L-21.145,-6.777ZM-22.406,-3.250L-22.931,-3.195L-22.701,-2.753L-22.242,-2.703L-22.250,-2.695L-21.895,-2.445L-21.404,-2.274L-21.117,-2.492L-21.141,-2.631L-21.231,-2.736L-21.344,-2.813L-21.626,-2.905L-21.959,-2.970L-22.133,-3.016L-22.216,-3.104L-22.302,-3.188L-22.406,-3.250ZM-21.130,-3.715L-21.938,-4.016L-21.505,-3.269L-21.130,-3.715ZM-21.468,-8.927L-21.219,-9.203L-21.350,-9.487L-21.692,-9.508L-22.000,-9.328L-21.860,-8.954L-21.468,-8.927ZM-21.601,-8.013L-21.891,-7.945L-21.903,-7.629L-21.646,-7.379L-21.289,-7.375L-21.323,-7.745L-21.601,-8.013ZM-22.416,-7.303L-21.930,-7.023L-22.194,-7.530L-22.416,-7.303ZM-22.738,-8.637L-22.633,-8.367L-22.395,-8.349L-22.102,-8.432L-21.937,-8.586L-21.974,-8.749L-22.083,-8.944L-22.187,-9.086L-22.504,-8.941L-22.738,-8.637ZM-23.736,2.860L-23.571,2.981L-23.383,3.055L-23.237,3.085L-23.067,3.100L-22.922,3.078L-22.468,2.395L-22.089,1.266L-22.109,0.484L-22.233,0.396L-22.382,0.331L-22.531,0.289L-22.699,0.253L-22.869,0.247L-23.031,0.305L-23.469,0.930L-23.794,1.909L-23.883,2.695L-23.867,2.703L-23.736,2.860ZM-22.408,-4.061L-23.000,-4.453L-22.665,-3.872L-22.408,-4.061ZM-22.885,-8.088L-23.398,-7.781L-23.458,-7.659L-23.495,-7.531L-23.508,-7.398L-22.834,-7.529L-22.885,-8.088ZM-23.645,-3.487L-23.586,-3.359L-23.190,-3.107L-23.135,-3.505L-23.688,-3.758L-23.675,-3.620L-23.645,-3.487ZM-23.965,-4.230L-23.875,-4.016L-23.766,-4.000L-23.614,-4.005L-23.500,-4.016L-23.490,-4.192L-23.489,-4.376L-23.516,-4.547L-23.631,-4.693L-23.828,-4.813L-24.000,-4.828L-24.041,-4.598L-23.965,-4.230ZM-27.321,-23.334L-26.384,-24.389L-25.406,-25.406L-24.389,-26.384L-23.334,-27.321L-22.244,-28.216L-21.119,-29.068L-19.962,-29.874L-18.773,-30.635L-17.556,-31.349L-16.312,-32.014L-15.042,-32.629L-13.750,-33.195L-12.436,-33.709L-11.103,-34.171L-9.753,-34.581L-8.388,-34.937L-7.010,-35.239L-5.621,-35.487L-4.223,-35.681L-2.819,-35.819L-1.411,-35.902L0.000,-35.930L1.411,-35.902L2.819,-35.819L4.223,-35.681L5.621,-35.487L7.010,-35.239L8.388,-34.937L9.753,-34.581L11.103,-34.171L12.436,-33.709L13.750,-33.195L15.042,-32.629L16.312,-32.014L17.556,-31.349L18.773,-30.635L19.962,-29.874L21.119,-29.068L22.244,-28.216L23.334,-27.321L24.389,-26.384L25.406,-25.406L26.384,-24.389L27.321,-23.334L28.216,-22.244L29.068,-21.119L29.874,-19.962L30.635,-18.773L31.349,-17.556L32.014,-16.312L32.629,-15.042L33.195,-13.750L33.709,-12.436L34.171,-11.103L34.581,-9.753L34.937,-8.388L35.239,-7.010L35.487,-5.621L35.681,-4.223L35.819,-2.819L35.902,-1.411L35.930,0.000L35.902,1.411L35.819,2.819L35.681,4.223L35.487,5.621L35.239,7.010L34.937,8.388L34.581,9.753L34.171,11.103L33.709,12.436L33.195,13.750L32.629,15.042L32.014,16.312L31.349,17.556L30.635,18.773L29.874,19.962L29.068,21.119L28.216,22.244L27.321,23.334L26.384,24.389L25.406,25.406L24.389,26.384L23.334,27.321L22.244,28.216L21.119,29.068L19.962,29.874L18.773,30.635L17.556,31.349L16.312,32.014L15.042,32.629L13.750,33.195L12.436,33.709L11.103,34.171L9.753,34.581L8.388,34.937L7.010,35.239L5.621,35.487L4.223,35.681L2.819,35.819L1.411,35.902L0.000,35.930L-1.411,35.902L-2.819,35.819L-4.223,35.681L-5.621,35.487L-7.010,35.239L-8.388,34.937L-9.753,34.581L-11.103,34.171L-12.436,33.709L-13.750,33.195L-15.042,32.629L-16.312,32.014L-17.556,31.349L-18.773,30.635L-19.962,29.874L-21.119,29.068L-22.244,28.216L-23.334,27.321L-24.389,26.384L-25.406,25.406L-26.384,24.389L-27.321,23.334L-28.216,22.244L-29.068,21.119L-29.874,19.962L-30.635,18.773L-31.349,17.556L-32.014,16.312L-32.629,15.042L-33.195,13.750L-33.709,12.436L-34.171,11.103L-34.581,9.753L-34.937,8.388L-35.239,7.010L-35.487,5.621L-35.681,4.223L-35.819,2.819L-35.902,1.411L-35.930,0.000L-35.902,-1.411L-35.819,-2.819L-35.681,-4.223L-35.487,-5.621L-35.239,-7.010L-34.937,-8.388L-34.581,-9.753L-34.171,-11.103L-33.709,-12.436L-33.195,-13.750L-32.629,-15.042L-32.014,-16.312L-31.349,-17.556L-30.635,-18.773L-29.874,-19.962L-29.068,-21.119L-28.216,-22.244L-27.321,-23.334ZM-26.668,22.776L-25.753,23.806L-24.799,24.799L-23.806,25.753L-22.776,26.668L-21.712,27.541L-20.614,28.372L-19.484,29.160L-18.324,29.902L-17.136,30.599L-15.922,31.248L-14.682,31.849L-13.421,32.401L-12.138,32.903L-10.837,33.354L-9.520,33.754L-8.187,34.101L-6.842,34.396L-5.486,34.639L-4.122,34.827L-2.752,34.962L-1.377,35.043L0.000,35.070L1.377,35.043L2.752,34.962L4.122,34.827L5.486,34.639L6.842,34.396L8.187,34.101L9.520,33.754L10.837,33.354L12.138,32.903L13.421,32.401L14.682,31.849L15.922,31.248L17.136,30.599L18.324,29.902L19.484,29.160L20.614,28.372L21.712,27.541L22.776,26.668L23.806,25.753L24.799,24.799L25.753,23.806L26.668,22.776L27.541,21.712L28.372,20.614L29.160,19.484L29.902,18.324L30.599,17.136L31.248,15.922L31.849,14.682L32.401,13.421L32.903,12.138L33.354,10.837L33.754,9.520L34.101,8.187L34.396,6.842L34.639,5.486L34.827,4.122L34.962,2.752L35.043,1.377L35.070,0.000L35.043,-1.377L34.962,-2.752L34.827,-4.122L34.639,-5.486L34.396,-6.842L34.101,-8.187L33.754,-9.520L33.354,-10.837L32.903,-12.138L32.401,-13.421L31.849,-14.682L31.248,-15.922L30.599,-17.136L29.902,-18.324L29.160,-19.484L28.372,-20.614L27.541,-21.712L26.668,-22.776L25.753,-23.806L24.799,-24.799L23.806,-25.753L22.776,-26.668L21.712,-27.541L20.614,-28.372L19.484,-29.160L18.324,-29.902L17.136,-30.599L15.922,-31.248L14.682,-31.849L13.421,-32.401L12.138,-32.903L10.837,-33.354L9.520,-33.754L8.187,-34.101L6.842,-34.396L5.486,-34.639L4.122,-34.827L2.752,-34.962L1.377,-35.043L0.000,-35.070L-1.377,-35.043L-2.752,-34.962L-4.122,-34.827L-5.486,-34.639L-6.842,-34.396L-8.187,-34.101L-9.520,-33.754L-10.837,-33.354L-12.138,-32.903L-13.421,-32.401L-14.682,-31.849L-15.922,-31.248L-17.136,-30.599L-18.324,-29.902L-19.484,-29.160L-20.614,-28.372L-21.712,-27.541L-22.776,-26.668L-23.806,-25.753L-24.799,-24.799L-25.753,-23.806L-26.668,-22.776L-27.541,-21.712L-28.372,-20.614L-29.160,-19.484L-29.902,-18.324L-30.599,-17.136L-31.248,-15.922L-31.849,-14.682L-32.401,-13.421L-32.903,-12.138L-33.354,-10.837L-33.754,-9.520L-34.101,-8.187L-34.396,-6.842L-34.639,-5.486L-34.827,-4.122L-34.962,-2.752L-35.043,-1.377L-35.070,0.000L-35.043,1.377L-34.962,2.752L-34.827,4.122L-34.639,5.486L-34.396,6.842L-34.101,8.187L-33.754,9.520L-33.354,10.837L-32.903,12.138L-32.401,13.421L-31.849,14.682L-31.248,15.922L-30.599,17.136L-29.902,18.324L-29.160,19.484L-28.372,20.614L-27.541,21.712L-26.668,22.776ZM-8.602,-0.688L-8.966,-0.189L-9.597,0.105L-10.227,0.125L-10.633,-0.360L-10.864,-1.202L-10.984,-1.906L-11.127,-2.897L-11.347,-4.343L-11.547,-5.125L-11.938,-5.059L-12.484,-4.988L-12.953,-5.453L-13.017,-5.673L-13.050,-5.908L-13.047,-6.133L-12.726,-6.711L-12.175,-6.919L-11.734,-7.258L-11.626,-7.768L-11.642,-8.357L-11.664,-8.898L-11.605,-9.627L-11.466,-10.349L-11.234,-11.047L-10.999,-11.535L-10.710,-11.991L-10.359,-12.406L-10.095,-12.639L-9.809,-12.827L-9.492,-12.977L-7.737,-12.754L-7.385,-11.358L-8.094,-10.672L-8.315,-10.791L-8.513,-10.935L-8.766,-10.992L-9.262,-10.342L-9.436,-9.111L-9.469,-8.148L-9.031,-8.340L-8.550,-8.535L-8.102,-8.633L-7.567,-8.333L-7.352,-7.665L-7.500,-7.047L-7.982,-6.659L-8.687,-6.299L-9.273,-6.141L-9.157,-5.164L-9.038,-4.190L-8.906,-3.219L-8.739,-2.392L-8.576,-1.493L-8.602,-0.688ZM-4.795,-3.449L-5.229,-3.192L-5.750,-3.133L-5.963,-3.181L-6.152,-3.283L-6.297,-3.445L-6.688,-5.363L-6.866,-8.241L-6.695,-10.133L-6.263,-10.610L-5.662,-10.822L-5.050,-10.649L-5.055,-10.657L-5.047,-10.648L-5.050,-10.649L-4.933,-10.476L-4.861,-10.274L-4.828,-10.063L-4.755,-8.700L-4.745,-7.318L-4.688,-5.945L-4.581,-5.268L-4.474,-4.539L-4.523,-3.883L-4.795,-3.449ZM0.611,-5.556L0.084,-5.509L-0.367,-5.789L-0.636,-6.322L-0.786,-6.949L-0.867,-7.555L-0.926,-8.361L-0.970,-9.170L-1.055,-9.977L-1.416,-9.008L-1.667,-8.007L-1.820,-6.992L-1.850,-6.361L-1.858,-5.709L-1.930,-5.094L-2.297,-4.611L-2.927,-4.396L-3.492,-4.586L-3.582,-4.725L-3.650,-4.903L-3.703,-5.063L-3.942,-6.966L-4.108,-9.825L-4.055,-11.656L-3.643,-12.103L-2.985,-12.282L-2.453,-12.047L-2.301,-11.647L-2.259,-11.173L-2.243,-10.737L-1.986,-11.385L-1.681,-12.088L-1.297,-12.688L-0.984,-12.938L-0.594,-13.116L-0.203,-13.180L0.665,-12.598L0.915,-11.378L0.930,-10.234L0.948,-9.524L0.966,-8.815L1.000,-8.109L1.119,-7.538L1.298,-6.973L1.391,-6.500L1.353,-6.241L1.246,-6.020L1.078,-5.828L0.611,-5.556ZM-4.624,-12.600L-5.516,-11.562L-6.703,-11.844L-6.702,-13.045L-5.887,-14.018L-4.844,-13.891L-4.624,-12.600ZM1.680,-14.289L1.612,-15.394L2.401,-16.150L3.453,-15.859L3.556,-14.848L2.759,-14.030L1.680,-14.289ZM-16.691,-12.051L-16.945,-12.367L-17.132,-13.157L-16.954,-14.009L-16.359,-14.523L-15.829,-14.339L-15.212,-13.958L-14.234,-14.086L-13.868,-14.333L-13.595,-14.665L-13.438,-15.078L-13.914,-16.450L-15.341,-17.352L-16.656,-18.281L-17.072,-19.060L-17.204,-19.946L-17.094,-20.828L-15.957,-22.704L-13.967,-24.155L-11.867,-24.141L-11.299,-23.323L-11.329,-22.292L-11.984,-21.703L-11.977,-21.688L-12.336,-21.759L-12.672,-21.868L-13.047,-21.898L-13.941,-21.486L-14.598,-20.665L-14.539,-19.727L-13.817,-19.053L-12.878,-18.520L-12.016,-17.945L-10.971,-15.907L-11.438,-13.705L-13.023,-12.000L-13.963,-11.572L-14.974,-11.410L-15.992,-11.602L-16.356,-11.788L-16.691,-12.051ZM-9.723,-21.074L-8.016,-21.789L-6.920,-20.754L-7.119,-19.080L-7.883,-17.648L-8.250,-17.293L-8.641,-17.025L-9.021,-16.728L-8.844,-16.177L-8.377,-16.076L-7.844,-16.352L-7.571,-16.672L-7.276,-17.028L-6.945,-17.234L-6.727,-17.202L-6.599,-17.041L-6.531,-16.820L-7.087,-15.092L-8.757,-14.304L-10.375,-15.289L-10.636,-15.837L-10.812,-16.415L-10.906,-17.016L-10.678,-19.007L-9.723,-21.074ZM-9.255,-18.536L-9.273,-18.109L-8.724,-18.619L-8.250,-19.440L-8.273,-20.117L-8.641,-20.159L-8.935,-19.753L-9.094,-19.367L-9.196,-18.956L-9.255,-18.536ZM-4.625,-21.289L-4.719,-21.143L-4.770,-20.982L-4.781,-20.805L-4.769,-20.722L-4.741,-20.661L-4.688,-20.594L-4.631,-20.534L-4.572,-20.479L-4.516,-20.430L-3.901,-20.032L-3.297,-19.653L-2.781,-19.109L-2.905,-16.811L-4.936,-15.746L-6.227,-16.828L-6.189,-17.197L-6.043,-17.573L-5.766,-17.797L-5.254,-17.608L-4.702,-17.480L-4.320,-17.859L-4.763,-18.540L-5.852,-19.299L-6.523,-20.578L-6.111,-22.044L-4.944,-23.045L-3.438,-23.031L-3.176,-22.853L-3.004,-22.608L-2.930,-22.305L-2.936,-21.884L-3.046,-21.462L-3.328,-21.172L-3.748,-21.239L-4.164,-21.472L-4.625,-21.289ZM-0.850,-24.083L0.383,-24.156L0.690,-24.060L0.969,-23.901L1.188,-23.664L1.346,-23.053L1.219,-22.371L0.727,-22.031L0.500,-22.111L0.352,-22.297L0.188,-22.461L-0.175,-22.512L-0.494,-22.347L-0.648,-22.023L-0.645,-21.821L-0.592,-21.611L-0.500,-21.430L0.209,-21.017L0.872,-20.463L1.336,-19.789L1.347,-18.180L0.247,-17.088L-1.367,-16.844L-2.142,-17.606L-2.080,-18.621L-1.234,-18.617L-0.810,-18.496L-0.406,-18.640L-0.320,-19.039L-1.086,-19.872L-2.081,-20.685L-2.383,-22.273L-1.859,-23.393L-0.850,-24.083ZM24.431,1.903L25.459,-0.086L26.453,-2.094L26.755,-2.689L27.068,-3.277L27.375,-3.867L27.523,-4.212L27.691,-4.592L27.891,-4.891L27.939,-4.675L27.884,-4.435L27.797,-4.219L27.446,-3.483L27.054,-2.754L26.672,-2.023L25.844,-0.339L25.010,1.339L24.156,3.008L23.896,3.609L23.567,4.310L23.188,4.766L23.146,4.450L23.239,4.175L23.391,3.891L24.431,1.903ZM27.031,-1.938L27.392,-2.744L27.941,-3.777L28.484,-4.250L28.671,-3.457L28.073,-2.043L27.531,-1.031L26.639,0.849L25.757,2.732L24.859,4.602L24.555,5.273L24.245,5.964L23.898,6.609L23.796,6.751L23.675,6.874L23.531,6.969L23.133,7.039L22.713,6.953L22.336,6.805L19.967,5.794L17.606,4.769L15.242,3.742L14.237,3.347L13.151,2.880L12.281,2.297L11.835,1.618L11.637,0.801L11.664,-0.008L12.046,-1.030L12.670,-2.030L13.297,-2.953L14.180,-4.318L15.072,-5.682L15.961,-7.047L16.571,-7.992L17.187,-8.935L17.844,-9.844L18.170,-10.195L18.546,-10.367L19.023,-10.281L19.020,-9.830L18.608,-9.121L18.266,-8.633L16.974,-6.609L15.703,-4.566L14.469,-2.500L14.106,-1.946L13.722,-1.363L13.438,-0.773L13.411,-0.662L13.379,-0.541L13.320,-0.445L13.101,-0.385L12.871,-0.344L12.828,-0.133L13.284,0.059L14.167,0.400L14.773,0.633L16.769,1.436L18.765,2.236L20.750,3.055L21.360,3.288L22.197,3.629L22.688,3.914L22.690,3.991L22.664,4.100L22.625,4.172L22.444,4.183L22.196,4.114L22.016,4.047L18.980,2.749L15.898,1.490L12.789,0.375L12.826,0.550L12.905,0.674L13.047,0.781L13.758,1.158L14.513,1.467L15.266,1.766L16.804,2.412L18.341,3.057L19.875,3.703L20.774,4.085L22.086,4.657L22.766,5.008L22.765,5.067L22.763,5.157L22.758,5.211L22.370,5.154L21.760,4.927L21.336,4.750L20.622,4.447L19.912,4.146L19.203,3.844L18.346,3.477L17.490,3.114L16.633,2.758L15.353,2.215L14.074,1.683L12.789,1.188L12.889,1.395L13.020,1.579L13.188,1.734L13.639,1.984L14.148,2.188L14.641,2.375L15.521,2.747L16.398,3.126L17.273,3.508L18.999,4.276L21.548,5.375L23.039,5.914L23.211,5.772L23.359,5.504L23.469,5.273L24.662,2.873L25.859,0.474L27.031,-1.938ZM19.192,-9.518L19.609,-9.938L21.753,-9.535L25.289,-8.398L27.703,-7.547L27.947,-7.443L28.146,-7.304L28.297,-7.086L28.351,-6.842L28.308,-6.595L28.211,-6.367L26.959,-3.857L25.689,-1.357L24.406,1.133L24.078,1.859L23.652,2.719L23.172,3.258L22.904,3.313L22.630,3.273L22.367,3.188L20.052,2.326L17.742,1.398L15.453,0.453L14.879,0.255L14.189,-0.005L13.719,-0.313L13.727,-0.313L13.730,-0.472L13.767,-0.622L13.828,-0.766L14.175,-1.390L14.569,-2.003L14.953,-2.617L16.091,-4.537L17.266,-6.442L18.477,-8.320L18.795,-8.870L19.192,-9.518ZM22.260,-0.245L22.258,-0.234L22.259,-0.232L22.258,-0.188L22.327,-0.128L22.360,-0.078L22.497,0.019L22.540,0.055L22.553,0.057L22.567,0.068L22.758,0.141L22.843,0.111L22.957,0.133L23.313,0.031L23.375,-0.034L23.405,-0.081L23.438,-0.092L23.607,-0.747L23.578,-1.500L23.840,-1.636L23.844,-1.685L23.859,-1.703L23.879,-1.894L23.862,-1.980L23.859,-2.258L23.916,-2.449L23.995,-2.632L24.078,-2.813L24.147,-3.029L24.282,-3.319L24.354,-3.715L24.391,-3.813L24.472,-3.825L24.629,-3.820L24.895,-3.825L24.987,-3.814L25.203,-3.875L25.220,-3.990L25.189,-4.119L25.133,-4.219L24.348,-4.953L23.208,-5.931L23.126,-6.002L23.103,-6.021L22.344,-6.625L21.493,-6.680L20.332,-6.577L20.273,-6.571L19.698,-6.524L19.071,-6.458L19.025,-6.455L18.695,-6.418L18.516,-6.398L18.386,-6.367L18.294,-6.297L18.227,-6.266L18.249,-6.190L18.255,-6.180L18.250,-6.164L18.330,-6.054L18.359,-6.008L18.377,-5.990L18.427,-5.920L18.584,-5.771L19.043,-5.286L20.095,-4.277L20.151,-4.231L20.339,-4.046L20.627,-3.844L20.789,-3.711L20.818,-3.708L20.914,-3.641L21.346,-3.610L21.652,-3.640L21.713,-3.635L23.029,-3.698L23.319,-3.735L23.429,-3.740L24.008,-3.820L23.847,-3.350L23.674,-2.866L23.475,-2.450L23.455,-2.416L23.349,-2.303L23.329,-2.283L23.184,-2.174L23.111,-2.092L23.063,-2.039L23.027,-1.880L23.031,-1.709L22.987,-1.549L22.891,-1.451L22.862,-1.428L22.791,-1.381L22.695,-1.305L22.645,-1.232L22.625,-1.211L22.564,-1.113L22.480,-0.989L22.462,-0.949L22.438,-0.909L22.268,-0.520L22.260,-0.245ZM21.098,-1.836L21.147,-1.821L21.663,-1.923L22.258,-2.016L22.284,-2.046L22.367,-2.063L22.616,-2.413L22.834,-2.938L23.000,-3.382L23.008,-3.383L23.000,-3.383L23.000,-3.382L22.271,-3.321L21.325,-3.275L20.656,-3.359L20.301,-3.615L20.099,-3.767L19.575,-4.288L19.055,-4.758L18.789,-4.382L18.492,-3.923L18.352,-3.516L18.419,-3.276L18.576,-3.078L18.758,-2.906L19.437,-2.463L19.712,-2.259L19.787,-2.235L19.817,-2.215L20.152,-2.116L21.041,-1.827L21.098,-1.836ZM15.980,-9.512L15.267,-8.834L14.289,-9.164L14.234,-10.171L14.914,-10.816L15.813,-10.516L15.980,-9.512ZM3.805,-7.039L3.553,-6.692L3.148,-6.485L2.719,-6.430L2.440,-6.495L2.211,-6.641L2.047,-6.867L1.787,-8.586L1.648,-11.242L1.742,-12.883L2.190,-13.288L2.833,-13.436L3.391,-13.227L3.383,-13.227L3.480,-13.059L3.543,-12.883L3.578,-12.695L3.606,-12.042L3.584,-11.370L3.570,-10.711L3.602,-9.803L3.676,-8.902L3.781,-8.000L3.820,-7.687L3.844,-7.347L3.805,-7.039ZM10.843,-15.131L11.430,-15.172L11.571,-15.136L11.736,-15.095L11.867,-15.102L12.167,-15.321L12.408,-15.520L12.844,-15.547L13.133,-15.460L13.383,-15.285L13.516,-15.016L13.527,-13.722L13.366,-12.351L13.305,-11.016L13.454,-10.401L13.676,-9.758L13.727,-9.195L13.591,-8.920L13.364,-8.723L13.078,-8.609L12.396,-8.677L11.946,-9.148L11.805,-9.836L11.789,-9.844L11.748,-9.849L11.705,-9.854L11.664,-9.844L11.622,-9.749L11.565,-9.579L11.523,-9.453L11.055,-8.789L10.398,-8.351L9.602,-8.266L9.198,-8.412L8.883,-8.684L8.641,-9.039L8.249,-10.920L8.743,-12.922L9.836,-14.531L10.303,-14.895L10.843,-15.131ZM11.449,-12.580L11.539,-13.664L10.566,-12.844L9.975,-11.232L10.164,-10.172L10.347,-10.200L10.530,-10.347L10.656,-10.500L11.142,-11.464L11.449,-12.580ZM6.635,-12.370L6.639,-10.636L6.680,-9.617L6.718,-9.527L6.774,-9.413L6.828,-9.344L7.197,-9.350L7.530,-9.626L7.914,-9.711L8.205,-9.321L8.194,-8.728L8.031,-8.234L6.927,-7.292L5.711,-7.508L4.883,-8.758L4.674,-10.129L4.683,-11.527L4.766,-12.914L4.539,-12.903L4.304,-12.912L4.094,-12.984L3.819,-13.399L3.824,-13.960L4.086,-14.391L4.361,-14.491L4.717,-14.572L4.898,-14.609L4.997,-15.155L5.006,-15.976L5.250,-16.625L5.912,-16.937L6.596,-16.852L6.914,-16.227L6.912,-15.854L6.906,-15.482L6.898,-15.103L7.223,-15.176L7.563,-15.246L7.906,-15.289L8.468,-14.967L8.573,-14.257L8.219,-13.680L7.734,-13.544L7.058,-13.419L6.703,-13.352L6.635,-12.370ZM3.469,-17.711L3.190,-17.476L2.828,-17.389L2.461,-17.414L2.215,-17.527L2.056,-17.723L1.961,-17.977L1.881,-19.454L1.955,-21.666L2.156,-23.039L2.523,-23.392L3.009,-23.527L3.516,-23.469L3.500,-23.469L3.678,-23.333L3.791,-23.157L3.844,-22.938L3.834,-22.149L3.749,-21.362L3.672,-20.578L3.650,-19.760L3.644,-18.940L3.602,-18.133L3.578,-17.982L3.534,-17.841L3.469,-17.711ZM16.594,-24.086L17.607,-22.692L16.906,-20.767L15.227,-19.680L15.718,-19.090L16.337,-18.923L17.094,-19.172L17.530,-19.533L18.009,-19.980L18.461,-20.195L18.706,-20.087L18.815,-19.848L18.836,-19.578L18.745,-19.040L18.515,-18.583L18.164,-18.164L16.297,-17.262L14.481,-17.801L13.422,-19.586L13.567,-21.713L14.636,-23.652L16.594,-24.086ZM16.172,-22.633L15.840,-22.708L15.478,-22.341L15.266,-22.000L15.150,-21.678L15.079,-21.345L15.046,-21.004L15.643,-21.340L16.145,-21.965L16.172,-22.633ZM4.252,-19.077L4.555,-21.874L6.141,-23.938L6.475,-24.025L6.829,-24.025L7.164,-23.945L8.360,-21.912L7.835,-19.030L5.938,-17.617L4.252,-19.077ZM6.087,-21.758L5.846,-20.362L5.953,-19.297L6.717,-19.795L7.017,-21.383L6.656,-22.375L6.087,-21.758ZM10.352,-23.992L10.476,-23.607L10.493,-23.151L10.477,-22.734L10.762,-23.244L11.116,-23.808L11.531,-24.203L11.816,-24.314L12.127,-24.363L12.422,-24.328L12.699,-24.199L12.921,-23.985L13.063,-23.711L13.143,-22.673L13.018,-21.410L12.906,-20.305L12.949,-19.593L13.020,-18.680L12.984,-18.109L12.495,-17.746L11.888,-17.762L11.430,-18.148L11.241,-18.687L11.163,-19.267L11.156,-19.836L11.191,-20.482L11.244,-21.127L11.293,-21.826L11.292,-21.826L10.940,-21.128L10.667,-20.424L10.461,-19.695L10.376,-19.197L10.293,-18.670L10.141,-18.203L9.622,-17.863L9.010,-18.005L8.711,-18.570L8.719,-19.961L8.773,-21.349L8.875,-22.734L8.894,-23.100L8.927,-23.501L9.008,-23.852L9.377,-24.187L9.920,-24.246L10.352,-23.992ZM2.195,-24.383L2.230,-25.390L3.059,-25.995L3.969,-25.664L4.026,-24.667L3.216,-24.047L2.195,-24.383Z" fill="#ffffff" fill-rule="evenodd"/><path d="M25.445,7.508L25.643,7.505L25.828,7.617L26.082,7.944L26.308,8.368L26.359,8.758L25.432,9.388L23.690,10.357L22.508,10.961L22.304,11.033L22.097,11.074L21.883,11.078L21.875,11.094L21.759,10.955L21.759,10.795L21.836,10.625L22.716,9.719L24.193,8.427L25.250,7.594L25.445,7.508ZM25.345,12.331L25.308,12.557L25.195,12.742L24.472,12.827L23.328,12.712L22.531,12.547L22.396,12.476L22.322,12.373L22.313,12.219L23.061,11.877L24.234,11.654L25.070,11.672L25.219,11.775L25.309,11.928L25.344,12.109L25.345,12.331ZM20.339,-4.046L19.598,-4.774L19.039,-5.352L18.779,-5.585L18.427,-5.920L18.250,-6.164L18.291,-6.294L18.386,-6.367L18.516,-6.398L19.698,-6.524L21.245,-6.650L22.313,-6.609L23.103,-6.021L24.348,-4.953L25.133,-4.219L25.189,-4.119L25.220,-3.990L25.203,-3.875L24.987,-3.814L24.653,-3.853L24.391,-3.813L24.297,-3.562L24.182,-3.136L24.078,-2.813L23.995,-2.632L23.916,-2.449L23.859,-2.258L23.863,-1.940L23.840,-1.636L23.578,-1.500L23.607,-0.747L23.438,-0.092L22.758,0.141L22.567,0.068L22.360,-0.078L22.258,-0.234L22.317,-0.607L22.480,-0.989L22.695,-1.305L22.791,-1.381L22.899,-1.452L22.984,-1.539L23.031,-1.709L23.027,-1.880L23.063,-2.039L23.174,-2.160L23.318,-2.272L23.445,-2.398L23.685,-2.824L23.878,-3.335L24.010,-3.821L23.429,-3.740L22.842,-3.716L22.258,-3.703L21.811,-3.656L21.346,-3.610L20.914,-3.641L20.339,-4.046ZM18.352,-3.516L18.492,-3.923L18.789,-4.382L19.055,-4.758L19.565,-4.276L20.109,-3.753L20.656,-3.359L21.325,-3.275L22.271,-3.321L23.000,-3.382L23.000,-3.383L23.008,-3.383L23.000,-3.382L22.834,-2.938L22.616,-2.413L22.367,-2.063L21.147,-1.821L19.817,-2.215L18.758,-2.906L18.576,-3.078L18.419,-3.276L18.352,-3.516ZM20.909,16.027L20.638,14.978L21.359,14.164L22.327,14.405L22.527,15.355L21.938,16.273L20.909,16.027ZM20.060,12.955L20.237,13.181L20.313,13.461L19.444,15.970L17.212,16.845L14.953,15.453L14.613,14.837L14.364,14.174L14.195,13.484L14.124,11.374L14.678,9.218L15.977,7.586L16.444,7.328L16.949,7.187L17.484,7.195L19.049,8.893L18.425,11.643L16.422,13.477L16.880,14.305L17.594,14.591L18.484,14.242L18.907,13.770L19.343,13.194L19.781,12.883L20.060,12.955ZM16.400,9.845L16.142,10.790L16.109,11.656L16.801,10.977L17.379,9.938L17.242,9.148L17.148,9.131L17.032,9.153L16.938,9.188L16.400,9.845ZM11.088,9.588L11.396,9.092L11.703,8.594L12.111,7.887L12.642,7.324L13.430,7.336L13.678,7.489L13.879,7.698L14.008,7.961L13.698,9.391L12.708,10.768L12.164,11.688L12.602,12.551L13.430,13.842L14.039,14.758L14.425,15.379L14.544,15.957L14.148,16.578L13.939,16.744L13.710,16.866L13.453,16.922L12.283,16.058L11.363,14.346L10.781,13.414L10.912,14.447L10.922,15.790L10.641,16.703L10.460,16.811L10.243,16.874L10.031,16.898L9.722,16.875L9.453,16.770L9.227,16.555L8.966,15.727L8.894,14.630L8.883,13.703L8.815,11.859L8.771,10.013L8.734,8.164L8.692,7.335L8.670,6.444L8.773,5.641L9.243,5.069L9.960,4.931L10.523,5.359L10.648,5.878L10.669,6.481L10.664,7.031L10.649,8.041L10.645,9.123L10.780,10.089L11.088,9.588ZM9.461,2.156L10.399,2.372L10.608,3.308L10.000,4.039L9.143,3.841L8.953,2.985L9.461,2.156ZM8.887,-0.402L9.357,-1.177L10.211,-1.156L10.588,-0.267L10.078,0.543L9.148,0.500L8.887,-0.402ZM4.351,14.125L4.464,10.179L6.297,8.133L8.285,10.424L8.275,14.558L6.164,16.563L4.351,14.125ZM5.888,11.307L5.870,13.438L6.422,14.563L6.981,13.533L6.970,11.550L6.461,10.156L5.888,11.307ZM4.457,3.694L4.764,0.361L6.695,-1.328L8.269,0.545L8.041,3.854L6.156,5.602L4.457,3.694ZM6.064,1.096L5.863,2.852L6.281,3.859L6.877,3.093L6.977,1.527L6.703,0.375L6.064,1.096ZM1.183,9.225L1.575,9.244L1.945,9.203L2.176,9.017L2.376,8.806L2.742,8.719L3.030,8.810L3.272,9.008L3.430,9.266L3.497,9.640L3.501,10.079L3.500,10.469L3.531,11.486L3.578,12.511L3.688,13.523L3.943,14.343L4.286,15.233L4.406,15.953L4.312,16.207L4.141,16.418L3.922,16.578L3.209,16.561L2.752,15.910L2.445,15.227L2.145,16.043L1.704,16.686L0.898,16.977L-0.740,15.345L-0.663,11.938L0.766,9.359L1.183,9.225ZM0.665,13.555L0.875,14.852L1.048,14.865L1.208,14.745L1.313,14.602L1.683,13.526L1.871,12.110L1.806,10.981L1.030,11.646L0.665,13.555ZM3.633,-3.438L3.794,-3.246L3.873,-3.014L3.898,-2.766L3.912,-0.717L3.877,1.334L3.891,3.383L3.907,3.672L3.937,3.959L4.000,4.242L4.137,4.567L4.285,4.886L4.328,5.227L4.303,5.339L4.267,5.445L4.211,5.547L4.006,5.798L3.736,5.978L3.422,6.047L2.957,5.897L2.694,5.527L2.547,5.055L2.260,3.143L2.217,1.192L2.242,-0.750L2.218,-1.461L2.204,-2.232L2.289,-2.922L2.599,-3.361L3.099,-3.538L3.633,-3.430L3.633,-3.438ZM-0.484,6.492L-1.709,4.287L-1.429,1.103L0.289,-0.352L1.924,1.756L1.659,5.161L-0.477,6.492L-0.484,6.492ZM-0.295,2.316L-0.315,4.015L0.109,4.891L0.619,3.994L0.657,2.326L0.188,1.305L-0.295,2.316ZM-2.112,9.867L-1.398,9.906L-1.316,9.966L-1.242,10.034L-1.180,10.109L-1.075,10.258L-0.993,10.420L-0.930,10.594L-0.873,10.809L-0.844,11.032L-0.844,11.258L-1.015,11.856L-1.352,11.999L-1.727,12.211L-2.036,12.830L-2.177,13.551L-2.211,14.242L-2.081,15.359L-1.880,16.664L-1.891,17.641L-1.977,17.795L-2.104,17.909L-2.258,18.000L-2.422,18.066L-2.591,18.109L-2.766,18.133L-3.109,18.082L-3.344,17.895L-3.516,17.594L-4.014,15.790L-4.655,12.955L-4.930,11.219L-4.827,10.949L-4.628,10.731L-4.375,10.586L-3.704,10.545L-3.301,10.939L-3.189,11.595L-3.152,11.599L-3.108,11.604L-3.070,11.594L-3.050,11.486L-3.030,11.285L-3.000,11.109L-2.677,10.429L-2.112,9.867ZM-3.825,3.238L-3.836,4.616L-3.414,5.555L-2.917,5.470L-2.529,4.908L-2.078,4.625L-1.822,4.867L-1.735,5.297L-1.734,5.680L-1.969,6.540L-2.539,7.174L-3.383,7.430L-4.428,7.002L-5.041,5.975L-5.305,4.828L-5.341,4.081L-5.294,3.333L-5.164,2.602L-5.030,2.147L-4.856,1.708L-4.633,1.289L-3.345,0.449L-2.304,1.074L-2.344,2.422L-2.439,2.567L-2.566,2.701L-2.719,2.773L-3.053,2.623L-3.197,2.291L-3.505,2.186L-3.825,3.238ZM-9.505,15.110L-8.688,12.883L-8.251,12.440L-7.678,12.130L-7.086,12.219L-6.800,11.635L-6.278,11.349L-5.695,11.609L-5.639,11.688L-5.603,11.773L-5.578,11.867L-5.327,13.279L-5.124,14.710L-4.789,16.102L-4.465,16.665L-4.035,17.268L-3.820,17.758L-4.014,18.327L-4.486,18.705L-5.070,18.680L-5.387,18.434L-5.644,18.087L-5.829,17.739L-6.053,18.481L-6.366,19.128L-6.930,19.656L-7.311,19.805L-7.731,19.828L-8.133,19.727L-9.445,17.884L-9.505,15.110ZM-7.966,16.722L-7.586,17.813L-7.011,16.871L-6.859,14.952L-7.102,13.719L-7.826,14.778L-7.966,16.722ZM-5.493,5.784L-5.306,6.825L-5.297,7.664L-5.460,7.985L-5.738,8.171L-6.094,8.227L-6.335,8.208L-6.540,8.128L-6.703,7.953L-7.063,6.444L-7.281,4.175L-7.234,2.609L-6.968,2.169L-6.548,1.990L-6.047,2.117L-5.947,2.236L-5.878,2.371L-5.836,2.516L-5.739,3.289L-5.699,4.094L-5.648,4.883L-5.493,5.784ZM-7.556,0.421L-7.045,-0.312L-6.219,-0.281L-5.903,0.613L-6.464,1.439L-7.398,1.328L-7.556,0.421ZM-9.357,3.271L-9.315,3.276L-9.273,3.266L-9.139,2.831L-8.848,2.179L-8.078,1.984L-7.900,2.067L-7.774,2.204L-7.680,2.375L-7.632,2.485L-7.595,2.596L-7.563,2.711L-7.542,2.803L-7.526,2.893L-7.516,2.984L-7.714,3.783L-8.200,4.264L-8.602,5.047L-8.688,5.885L-8.653,6.774L-8.547,7.617L-8.468,7.981L-8.387,8.368L-8.375,8.727L-8.561,9.046L-8.910,9.282L-9.273,9.383L-9.566,9.330L-9.768,9.162L-9.898,8.891L-10.256,7.148L-10.632,4.620L-10.703,2.992L-10.404,2.615L-9.932,2.455L-9.508,2.656L-9.440,2.841L-9.422,3.071L-9.408,3.264L-9.357,3.271ZM-12.448,15.373L-12.117,14.575L-11.789,13.781L-11.680,13.505L-11.547,13.216L-11.375,12.977L-10.803,12.768L-10.215,12.974L-9.867,13.484L-10.137,14.818L-10.855,16.287L-11.203,17.328L-10.713,17.967L-9.797,18.924L-9.141,19.578L-8.860,19.824L-8.549,20.093L-8.320,20.359L-8.273,20.970L-8.626,21.543L-9.141,21.898L-10.365,21.394L-11.510,20.023L-12.281,19.242L-12.042,20.233L-11.786,21.423L-11.734,22.367L-11.901,22.736L-12.211,23.027L-12.586,23.188L-12.915,23.221L-13.244,23.159L-13.500,22.969L-13.959,21.683L-14.351,19.778L-14.602,18.305L-14.806,17.041L-14.988,15.777L-15.156,14.508L-15.247,13.855L-15.326,13.158L-15.313,12.500L-14.941,11.863L-14.244,11.510L-13.570,11.742L-13.392,12.116L-13.313,12.582L-13.266,13.008L-13.121,14.062L-12.968,15.113L-12.779,16.167L-12.448,15.373ZM-14.107,9.124L-14.127,5.803L-12.594,3.383L-11.721,3.330L-11.130,3.900L-10.883,4.758L-10.970,5.777L-11.327,6.721L-11.914,7.563L-12.168,7.791L-12.511,8.087L-12.688,8.289L-12.658,8.417L-12.582,8.549L-12.500,8.656L-12.058,8.831L-11.648,8.575L-11.336,8.172L-11.160,7.886L-10.928,7.645L-10.617,7.625L-10.359,8.240L-10.443,8.927L-10.727,9.547L-11.123,10.051L-11.620,10.415L-12.234,10.602L-14.107,9.124ZM-12.454,6.301L-12.062,5.449L-12.226,4.867L-12.695,5.188L-12.914,6.124L-12.977,6.836L-12.454,6.301ZM-16.810,12.323L-17.414,12.148L-17.870,11.143L-18.242,9.640L-18.484,8.453L-18.868,6.668L-19.270,4.322L-19.273,2.672L-18.929,2.156L-18.412,1.701L-17.891,1.352L-17.227,1.029L-16.510,0.826L-15.773,0.789L-14.244,1.709L-13.944,3.481L-14.414,5.281L-14.813,6.016L-15.289,6.677L-15.844,7.297L-16.018,7.516L-16.242,7.736L-16.484,7.836L-16.291,8.802L-16.069,9.755L-15.844,10.711L-15.778,10.975L-15.737,11.254L-15.766,11.523L-16.157,12.041L-16.810,12.323ZM-15.626,3.624L-15.977,2.695L-16.410,2.684L-16.937,2.842L-17.266,3.102L-17.302,3.307L-17.282,3.552L-17.250,3.773L-17.156,4.482L-17.039,5.187L-16.915,5.883L-16.137,4.998L-15.626,3.624ZM-18.752,-3.575L-19.485,-3.899L-20.219,-4.211L-21.120,-4.570L-22.028,-4.912L-22.945,-5.234L-23.424,-5.380L-23.920,-5.528L-24.383,-5.711L-24.537,-5.953L-24.536,-6.313L-24.461,-6.617L-24.301,-6.778L-24.064,-6.808L-23.836,-6.781L-21.448,-6.040L-18.211,-4.767L-16.172,-3.641L-16.225,-3.197L-16.520,-2.865L-16.953,-2.781L-17.312,-2.894L-17.680,-3.067L-18.023,-3.242L-18.752,-3.575ZM-22.750,-17.258L-22.563,-17.693L-22.146,-18.073L-21.719,-18.320L-21.566,-18.376L-21.395,-18.398L-21.242,-18.359L-20.543,-17.239L-19.642,-15.277L-19.156,-13.938L-19.152,-13.708L-19.228,-13.527L-19.422,-13.406L-19.430,-13.414L-19.604,-13.455L-19.764,-13.529L-19.906,-13.633L-20.819,-14.656L-22.103,-16.250L-22.750,-17.258ZM-20.706,-12.142L-20.872,-12.063L-21.055,-12.047L-22.237,-12.228L-23.896,-12.624L-24.938,-13.039L-24.945,-13.039L-24.849,-13.553L-24.605,-14.163L-24.258,-14.500L-23.083,-14.059L-21.427,-13.068L-20.617,-12.305L-20.706,-12.142Z" fill="#facc15" fill-rule="evenodd"/></svg>